<svg width="44" height="30" viewBox="0 0 44 30" fill="none" xmlns="http://www.w3.org/2000/svg">
<path d="M38.5609 18.8424C37.479 18.8365 36.4197 19.1582 35.5171 19.7667C34.6144 20.3753 33.909 21.2434 33.4901 22.2611C33.0712 23.2788 32.9576 24.4004 33.1637 25.4841C33.3698 26.5677 33.8864 27.5646 34.648 28.3486C35.4096 29.1325 36.3821 29.6684 37.4423 29.8883C38.5025 30.1083 39.6029 30.0024 40.6041 29.584C41.6053 29.1657 42.4624 28.4538 43.0669 27.5383C43.6714 26.6228 43.9961 25.545 44 24.4412C44.0052 22.9633 43.4353 21.5436 42.4156 20.4939C41.3958 19.4442 40.0095 18.8502 38.5609 18.8424V18.8424ZM38.5609 27.995C37.8658 27.9931 37.1869 27.7807 36.6101 27.3848C36.0334 26.989 35.5847 26.4274 35.3209 25.7713C35.0571 25.1151 34.9901 24.3939 35.1283 23.6989C35.2665 23.0038 35.6038 22.3663 36.0973 21.8669C36.5909 21.3675 37.2186 21.0287 37.901 20.8935C38.5833 20.7583 39.2897 20.8327 39.9306 21.1072C40.5715 21.3818 41.1182 21.8442 41.5014 22.4359C41.8845 23.0277 42.087 23.7221 42.0832 24.4312C42.082 24.9073 41.9876 25.3784 41.8056 25.8167C41.6235 26.2551 41.3575 26.6519 41.023 26.9839C40.6885 27.3159 40.2924 27.5763 39.8579 27.75C39.4234 27.9236 38.9593 28.0069 38.4928 27.995H38.5609Z" fill="#182846"/>
<path d="M38.5609 20.8375C37.8658 20.8335 37.1852 21.0401 36.6052 21.4311C36.0252 21.822 35.572 22.3797 35.3029 23.0336C35.0337 23.6875 34.9608 24.4081 35.0934 25.1043C35.2259 25.8005 35.5579 26.4409 36.0474 26.9445C36.5369 27.448 37.1618 27.7921 37.843 27.9331C38.5243 28.0741 39.2312 28.0057 39.8744 27.7366C40.5175 27.4675 41.0679 27.0098 41.4559 26.4213C41.8439 25.8329 42.052 25.1402 42.0539 24.431C42.0565 23.4823 41.6903 22.5712 41.0355 21.8976C40.3807 21.224 39.4908 20.8427 38.5609 20.8375V20.8375ZM38.5609 27.2304C38.014 27.2284 37.4799 27.0609 37.0263 26.7491C36.5728 26.4372 36.2202 25.995 36.0131 25.4785C35.806 24.9621 35.7538 24.3945 35.8631 23.8478C35.9724 23.301 36.2383 22.7996 36.6271 22.4071C37.0159 22.0147 37.5101 21.7487 38.0471 21.643C38.5842 21.5373 39.1399 21.5965 39.6439 21.8132C40.1479 22.0299 40.5775 22.3944 40.8784 22.8604C41.1792 23.3264 41.3378 23.873 41.3339 24.431C41.3315 24.8064 41.2556 25.1774 41.1107 25.5224C40.9659 25.8674 40.7549 26.1795 40.4903 26.4402C40.2257 26.701 39.9127 26.9052 39.5697 27.0409C39.2266 27.1766 38.8605 27.241 38.4928 27.2304H38.5609Z" fill="#E6E4E3"/>
<path d="M38.5026 26.2776C39.5075 26.2776 40.3221 25.4465 40.3221 24.4213C40.3221 23.3961 39.5075 22.5649 38.5026 22.5649C37.4977 22.5649 36.6831 23.3961 36.6831 24.4213C36.6831 25.4465 37.4977 26.2776 38.5026 26.2776Z" fill="#0E1B2F"/>
<path d="M35.8365 16.3606L35.9436 18.1574L35.7198 18.4254L39.242 23.8853L38.376 24.3816L35.0289 19.299C34.2568 20.3034 33.5853 21.3842 33.0246 22.5253C33.0104 22.5638 32.9883 22.5989 32.9598 22.628C32.9313 22.6571 32.897 22.6796 32.8592 22.694C32.7246 22.7622 32.5764 22.7977 32.4262 22.7977C32.2759 22.7977 32.1277 22.7622 31.9932 22.694C31.9932 22.694 33.1219 15.7948 35.8365 16.3606Z" fill="#213E7B"/>
<path d="M8.08669 18.7032C7.00478 18.6973 5.94547 19.019 5.04282 19.6276C4.14018 20.2361 3.43476 21.1042 3.01584 22.1219C2.59692 23.1396 2.48333 24.2613 2.68944 25.3449C2.89555 26.4285 3.41211 27.4254 4.17373 28.2094C4.93535 28.9934 5.90781 29.5293 6.96804 29.7492C8.02828 29.9691 9.12863 29.8632 10.1298 29.4449C11.1311 29.0266 11.9882 28.3146 12.5926 27.3992C13.1971 26.4837 13.5219 25.4058 13.5257 24.302C13.5309 22.8241 12.9611 21.4045 11.9413 20.3548C10.9216 19.3051 9.53527 18.7111 8.08669 18.7032V18.7032ZM8.08669 27.8559C7.39199 27.8519 6.71404 27.6379 6.13857 27.2409C5.56309 26.8438 5.11594 26.2816 4.85365 25.6253C4.59137 24.969 4.52572 24.2481 4.66503 23.5537C4.80434 22.8593 5.14233 22.2227 5.63628 21.7243C6.13022 21.2259 6.75793 20.8881 7.44003 20.7537C8.12212 20.6193 8.82797 20.6942 9.46831 20.9691C10.1087 21.2439 10.6547 21.7063 11.0375 22.2978C11.4203 22.8893 11.6225 23.5833 11.6187 24.2921C11.6162 24.7669 11.5212 25.2365 11.3393 25.6736C11.1574 26.1107 10.8921 26.5065 10.559 26.8381C10.2258 27.1697 9.83141 27.4304 9.39864 27.6051C8.96586 27.7799 8.50337 27.8651 8.03804 27.8559H8.08669Z" fill="#182846"/>
<path d="M8.07698 20.6988C7.38187 20.6949 6.70124 20.9014 6.12127 21.2924C5.5413 21.6833 5.08807 22.241 4.81895 22.8949C4.54982 23.5488 4.47692 24.2695 4.60946 24.9657C4.74199 25.6618 5.07402 26.3023 5.56349 26.8058C6.05297 27.3094 6.67788 27.6534 7.35913 27.7944C8.04037 27.9355 8.7473 27.8671 9.39043 27.598C10.0336 27.3288 10.584 26.8711 10.972 26.2826C11.36 25.6942 11.5681 25.0015 11.57 24.2923C11.5726 23.3436 11.2064 22.4326 10.5516 21.7589C9.89677 21.0853 9.00686 20.704 8.07698 20.6988V20.6988ZM8.07698 27.1017C7.53045 27.0997 6.99677 26.9324 6.54342 26.621C6.09007 26.3096 5.73741 25.868 5.53005 25.3521C5.32268 24.8362 5.26992 24.2692 5.37843 23.7227C5.48694 23.1762 5.75185 22.6748 6.13966 22.2819C6.52747 21.889 7.02077 21.6223 7.55717 21.5154C8.09357 21.4086 8.64898 21.4664 9.15317 21.6816C9.65736 21.8968 10.0877 22.2597 10.3897 22.7244C10.6917 23.1891 10.8519 23.7348 10.85 24.2923C10.8475 24.6647 10.7729 25.0329 10.6306 25.3758C10.4883 25.7188 10.281 26.0296 10.0206 26.2906C9.76029 26.5516 9.452 26.7576 9.11346 26.8968C8.77491 27.036 8.41276 27.1056 8.04779 27.1017H8.07698Z" fill="#E6E4E3"/>
<path d="M8.05751 26.1385C9.06239 26.1385 9.87701 25.3074 9.87701 24.2821C9.87701 23.2569 9.06239 22.4258 8.05751 22.4258C7.05263 22.4258 6.23801 23.2569 6.23801 24.2821C6.23801 25.3074 7.05263 26.1385 8.05751 26.1385Z" fill="#0E1B2F"/>
<path d="M5.65422 19.2395L8.24238 18.8921L20.3367 23.1408L20.4243 24.0541L30.5045 24.7788L29.1715 25.295C28.9023 25.4053 28.6151 25.4625 28.325 25.4637L21.9227 25.6126L20.6189 25.9105C20.3175 25.9802 20.012 26.0299 19.7043 26.0594C17.6291 26.3384 15.5405 26.5008 13.4479 26.5458C13.0587 26.3671 10.8695 25.5531 10.8695 25.5531L10.4803 25.6921L4.6423 23.7067C4.33185 22.95 4.15401 22.1436 4.11688 21.3242C4.19472 20.5003 5.65422 19.2395 5.65422 19.2395Z" fill="#213E7B"/>
<path d="M35.4473 23.5474C35.0939 23.5377 34.7487 23.6574 34.4743 23.8849C34.0559 24.2324 33.5013 24.7486 33.4527 24.9273C33.4425 25.0719 33.4762 25.2163 33.5493 25.3406C33.6225 25.465 33.7314 25.5633 33.8613 25.6222C34.4136 25.9294 35.012 26.1407 35.6322 26.2476C36.8211 25.8981 37.9719 25.4257 39.0669 24.8379C39.1464 24.7983 39.2164 24.7413 39.2718 24.6709C39.3273 24.6006 39.367 24.5186 39.388 24.4309C39.4354 24.2984 39.4422 24.1543 39.4074 24.0178C39.3727 23.8813 39.298 23.7587 39.1934 23.6666C39.0965 23.5967 38.9811 23.5586 38.8625 23.5574L35.4473 23.5474Z" fill="#213E7B"/>
<path d="M31.0883 2.5918L32.1683 3.515C32.4968 3.90347 32.7214 4.37194 32.8202 4.875C32.9467 5.60959 32.0613 6.40375 32.0613 6.40375L30.8548 6.5328L29.9791 3.43559L31.0883 2.5918Z" fill="#EC6626"/>
<path d="M4.26281 9.46122C4.46658 9.3609 4.67812 9.27789 4.89526 9.21305C5.12294 9.16314 5.35841 9.16314 5.58609 9.21305C5.98501 9.30239 8.34939 9.58034 12.1052 10.0072C12.3421 10.0334 12.5764 10.0799 12.8057 10.1462C13.9648 10.4901 15.1544 10.7162 16.3571 10.8212L20.3075 10.9701L21.2805 11.0495C21.4608 11.0568 21.637 11.1062 21.7956 11.194C21.9542 11.2818 22.0909 11.4056 22.1951 11.5558C22.631 12.2842 23.0273 13.0364 23.3822 13.8092C23.3822 13.8092 23.5476 14.4148 23.2557 14.7126C23.1097 14.8714 22.8373 15.1196 22.6038 15.338C22.6493 15.3747 22.6817 15.4258 22.6958 15.4833C22.7099 15.5407 22.7049 15.6014 22.6816 15.6556C22.3602 16.415 22.1314 17.2119 22.0005 18.0282C22.0686 18.5146 23.0805 21.4034 23.0805 21.4034V21.4728C24.2092 21.5622 27.6731 21.8401 27.8774 21.8302C28.169 21.8238 28.4513 21.7247 28.685 21.5467C28.9187 21.3688 29.0922 21.1208 29.1812 20.8375C29.7074 18.9246 30.1072 16.9779 30.378 15.0104C30.4824 14.1973 30.3819 13.3705 30.0861 12.6081C30.0083 12.4195 26.5931 6.02649 26.5931 6.02649C26.4043 5.62093 26.2512 5.19902 26.1358 4.76576C26.1191 4.58005 26.1458 4.39296 26.2136 4.21978C26.2136 4.21978 28.0234 2.66125 28.1596 2.55205C28.2107 2.52507 28.2674 2.51099 28.325 2.51099C28.3826 2.51099 28.4393 2.52507 28.4904 2.55205C28.4384 2.99461 28.3029 3.42273 28.0915 3.81278C28.6655 3.75321 30.1931 4.80547 30.1931 4.80547L30.1348 6.79087L34.2408 13.1243L30.9326 24.1531L18.634 24.034L13.263 21.8898L15.5398 20.7581L21.3292 21.3537C20.2839 19.1799 18.5488 17.4307 16.4058 16.3902L14.0122 15.3975C13.7516 15.2786 13.546 15.0617 13.4382 14.792L13.263 14.0872L11.0835 13.303L4.50606 11.1587C4.37589 11.1141 4.26092 11.0325 4.17473 10.9235C4.08853 10.8144 4.03469 10.6825 4.01956 10.5433V10.5433C4.00426 10.1669 4.08827 9.79319 4.26281 9.46122V9.46122Z" fill="#213E7B"/>
<path d="M31.5845 3.31652L29.804 2.979L30.018 3.67389C30.018 3.67389 31.1662 4.58717 31.2537 4.97432C31.2603 5.1283 31.2371 5.28209 31.1853 5.42689C31.1336 5.57168 31.0543 5.70463 30.9521 5.81812L31.497 6.05636C31.5446 6.07099 31.5953 6.07099 31.6429 6.05636L31.9056 5.98688C32.0358 5.94595 32.1466 5.85762 32.217 5.7387C32.3413 5.55198 32.4304 5.34325 32.4797 5.12323C32.4645 4.77455 32.3769 4.43314 32.2226 4.12166C32.0682 3.81017 31.8507 3.53572 31.5845 3.31652Z" fill="white"/>
<path d="M40.9934 16.9461C39.5692 16.1466 38.0336 15.5742 36.4398 15.2486L36.6149 15.1592C36.9263 15.0798 37.1598 15.0699 37.3447 15.0004C38.4539 14.5438 37.4322 12.4591 37.0722 11.794C37.009 11.6709 36.9341 11.5545 36.8484 11.4465C36.2063 10.5852 35.4756 9.79651 34.6689 9.09385C33.9907 8.57836 33.3411 8.02491 32.7229 7.43605C32.3618 7.08537 31.888 6.88072 31.3899 6.86028H31.2245L30.9423 6.96948C30.9423 6.96948 30.8353 6.75109 30.9423 6.62204C31.1071 6.48484 31.2829 6.36197 31.4678 6.25474L31.7499 5.47051C31.7731 5.39451 31.7772 5.31381 31.7619 5.23578C31.7466 5.15775 31.7124 5.08487 31.6624 5.02379C31.2046 4.4974 30.685 4.03062 30.1153 3.63402L30.0667 3.39577L31.9348 3.5546C32.1683 3.5546 32.2072 3.5546 32.2072 3.5546C32.2072 3.5546 32.2656 3.37592 31.1272 2.6314C30.3258 2.14026 29.4658 1.75656 28.5682 1.4898C28.5554 1.48767 28.5422 1.48886 28.5299 1.49328C28.5176 1.49769 28.5066 1.50518 28.4979 1.51506C28.4892 1.52494 28.4831 1.53689 28.48 1.54982C28.477 1.56275 28.4772 1.57624 28.4807 1.58907C28.4941 1.72107 28.4941 1.85414 28.4807 1.98614C28.4772 2.05058 28.4493 2.11111 28.4028 2.1549C28.3666 2.20064 28.343 2.25551 28.3347 2.31373V3.04833L27.6439 3.94175L28.0428 4.63664C28.0604 4.66784 28.0861 4.69355 28.1169 4.71104C28.1478 4.72853 28.1827 4.73712 28.218 4.73591C28.6904 4.69812 29.1652 4.76587 29.6093 4.93445C29.6998 4.98494 29.7699 5.0664 29.8073 5.16447C29.8447 5.26253 29.8469 5.37091 29.8137 5.47051C29.7781 5.61942 29.7071 5.75709 29.607 5.87136C29.5068 5.98563 29.3807 6.07298 29.2396 6.12569C28.8497 6.21009 28.4504 6.24015 28.0526 6.21503H27.9942L27.7801 6.43342C27.7675 6.43858 27.7566 6.44748 27.749 6.45898C27.7414 6.47049 27.7373 6.48406 27.7373 6.49795C27.7373 6.51184 27.7414 6.52541 27.749 6.53691C27.7566 6.54842 27.7675 6.55732 27.7801 6.56248H28.432L29.3077 8.15079L30.2807 7.72393C30.2807 7.72393 32.8786 11.794 33.1219 13.0448C33.3651 14.2956 30.738 23.4979 30.738 23.4979C30.7217 23.5449 30.6913 23.5856 30.6512 23.6141C30.611 23.6426 30.5631 23.6575 30.5142 23.6567L17.8653 22.5052L17.6123 23.1901C17.6123 23.1901 17.6123 23.2993 17.2718 23.2993C16.0958 23.0113 14.9515 22.6022 13.8565 22.0783L15.7052 20.9665L21.261 21.6614C21.261 21.6614 21.5919 21.6614 21.4848 21.2345C19.6868 17.7878 16.7547 15.0987 13.2046 13.6404L3.79577 10.8311C3.79577 10.8311 3.37738 11.0892 3.59144 11.4465L4.21416 12.2705C4.21416 12.2705 4.21416 12.4889 3.96118 12.6775C3.7082 12.8661 2.80331 13.5808 2.80331 13.5808L2.66709 13.9878C2.66709 13.9878 2.66709 14.1765 2.91034 14.0772C3.15359 13.9779 4.63255 13.5014 4.63255 13.5014L5.28445 13.6702C5.28445 13.6702 2.45304 15.4868 2.1806 15.7946C1.90816 16.1023 2.2779 16.6383 2.32655 16.7872C2.3752 16.9362 2.93953 17.8395 2.93953 17.8395L1.25625 16.5291L1.13949 16.3306C1.13029 16.4645 1.15721 16.5984 1.21733 16.7178L1.57734 17.6112C1.66733 17.834 1.79963 18.0363 1.96662 18.2067C2.13361 18.3771 2.33199 18.5121 2.55033 18.6039L3.69847 19.13C3.88814 19.2159 4.08317 19.2888 4.28227 19.3484L5.77095 19.7653C5.77095 19.7653 13.4576 22.4357 13.6425 22.525C14.9682 23.0301 16.2293 23.6968 17.3982 24.5104C17.3982 24.5104 17.4858 24.6395 17.7777 24.6296L30.2418 25.0961C30.5431 25.1029 30.8441 25.0695 31.1369 24.9968V24.9968C31.3162 24.9481 31.4817 24.8571 31.6203 24.7313C31.7588 24.6054 31.8666 24.4482 31.9348 24.2722C32.5089 22.8129 34.0462 18.8918 34.7273 17.3829L35.4473 18.8322C35.4928 18.9229 35.5608 18.9999 35.6444 19.0556C35.728 19.1113 35.8244 19.1438 35.9241 19.1499L42.8615 19.6661C42.9803 19.6909 43.1028 19.6909 43.2216 19.6661C43.2338 19.6616 43.245 19.6548 43.2546 19.6458C43.2642 19.6369 43.272 19.6261 43.2774 19.6141C43.2828 19.6021 43.2859 19.5891 43.2863 19.5758C43.2867 19.5626 43.2846 19.5494 43.2799 19.537C42.751 18.4856 41.963 17.5927 40.9934 16.9461V16.9461Z" fill="#EC6626"/>
<path d="M3.212 13.4023L1.32439 15.0005C1.05195 15.2388 0.84762 15.755 1.32439 16.9859L3.33849 18.5246L6.39369 13.8093L4.82717 13.0747L3.212 13.4023Z" fill="#B02931"/>
<path d="M28.3445 4.42827C28.2392 4.48944 28.1498 4.57544 28.0838 4.67906C28.0178 4.78268 27.9771 4.90091 27.965 5.02388C27.965 5.40111 27.8093 6.44344 28.1499 6.44344L29.7067 6.51293L30.0277 4.93454C30.0277 4.93454 28.9283 4.27936 28.3445 4.42827Z" fill="#182846"/>
<path d="M4.59365 18.8721L1.49952 22.3068L1.35357 22.3763L1.07141 22.6642C0.761789 22.8168 0.435026 22.9301 0.09841 23.0017C0.0852556 23.0033 0.0719179 23.0018 0.0594007 22.9974C0.0468835 22.993 0.0355134 22.9857 0.0261463 22.9761C0.0167792 22.9666 0.00965937 22.955 0.00532284 22.9422C0.000986306 22.9294 -0.000454079 22.9158 0.00111054 22.9024V22.9024C-0.00194318 22.8854 0.0013532 22.8678 0.0103531 22.8531C0.019353 22.8384 0.0334074 22.8277 0.0497605 22.823C0.254661 22.7053 0.465801 22.5992 0.682208 22.5053L2.02494 19.6265C2.16941 19.3607 2.34953 19.1168 2.56009 18.9018L3.1147 18.2566L4.59365 18.8721Z" fill="#213E7B"/>
<path d="M11.0543 13.0647L10.5873 13.1342L8.71914 12.6478C8.71914 12.6478 8.55373 12.3698 8.35913 12.3202L4.68121 11.1488C4.68121 11.1488 4.53526 11.0892 4.54499 10.9602C4.55472 10.8311 4.81743 10.7517 4.905 10.7219C4.99257 10.6921 5.77097 10.7219 5.77097 10.7219L5.6834 10.3447C5.6834 10.3447 5.6834 10.2057 5.6834 10.1859H5.93637C5.96054 10.1851 5.98456 10.1901 6.00651 10.2004C6.02847 10.2107 6.04776 10.2262 6.06286 10.2454C6.36078 10.633 6.68598 10.998 7.03586 11.3374C7.20127 11.4267 9.36132 11.933 9.36132 11.933C9.66421 12.0398 9.95207 12.1867 10.2176 12.3698C10.5678 12.5981 11.0543 13.0647 11.0543 13.0647Z" fill="white"/>
<path d="M26.4666 5.27213L27.1769 5.0041C27.2149 4.90893 27.2793 4.8272 27.3623 4.76898C27.4453 4.71077 27.5432 4.67862 27.6439 4.67651C27.7919 4.68673 27.93 4.756 28.0284 4.86933C28.1267 4.98265 28.1773 5.13093 28.1693 5.28206C28.1733 5.35769 28.1625 5.43338 28.1377 5.50477C28.113 5.57617 28.0746 5.64187 28.0249 5.69812C27.9752 5.75437 27.9151 5.80007 27.848 5.83258C27.781 5.86509 27.7083 5.88379 27.6342 5.8876C27.5859 5.89654 27.5365 5.89654 27.4882 5.8876L26.7488 6.17549H26.7001H26.6028C26.5453 6.17294 26.4888 6.15884 26.4367 6.134C26.3845 6.10916 26.3376 6.07407 26.2988 6.03073C26.2599 5.9874 26.2298 5.93666 26.2102 5.88144C26.1906 5.82622 26.1818 5.7676 26.1844 5.70892C26.1819 5.61539 26.2077 5.52334 26.2581 5.44522C26.3086 5.3671 26.3814 5.30668 26.4666 5.27213Z" fill="#E65225"/>
<path d="M28.9866 2.0061C29.0873 2.18638 29.1626 2.38019 29.2104 2.58187C29.2104 2.70099 29.0937 3.32639 29.0937 3.32639H28.831C28.831 3.32639 28.938 2.69106 28.9283 2.60172C28.8816 2.45616 28.8264 2.31361 28.7628 2.17486L28.9866 2.0061Z" fill="#213E7B"/>
<path d="M28.2861 0.0109277C28.1781 0.227053 28.1152 0.463649 28.1012 0.705815C28.116 1.2907 28.1877 1.87263 28.3153 2.44303C28.3153 2.52245 28.8504 2.44303 29.045 2.21471C29.2396 1.98639 29.551 1.53968 29.4732 1.22202C29.4266 1.05214 29.3472 0.893498 29.2396 0.75545C29.22 0.73134 29.2036 0.704625 29.191 0.676035C29.1131 0.517203 28.831 -0.0883419 28.2861 0.0109277Z" fill="#2962AE"/>
<path d="M29.2299 3.01877C29.234 3.00249 29.234 2.98542 29.2299 2.96914C29.1061 2.90709 28.9685 2.87968 28.8309 2.88972C28.8309 2.88972 28.6947 2.88972 28.7337 3.0287L28.6072 3.44563C28.5626 3.45205 28.5204 3.47002 28.4847 3.49783C28.4489 3.52564 28.4207 3.56236 28.4028 3.60446C28.4028 3.71366 28.4028 3.95191 28.7726 4.02139C29.1423 4.09088 29.2688 4.0214 29.2688 3.83278C29.2747 3.78878 29.2698 3.74397 29.2545 3.70238C29.2392 3.6608 29.214 3.62374 29.1812 3.59454V3.06841C29.1929 3.06528 29.2036 3.05904 29.2121 3.05032C29.2207 3.04159 29.2268 3.03071 29.2299 3.01877V3.01877Z" fill="#213E7B"/>
<path d="M4.36014 22.1677C4.36014 22.1677 4.88556 23.7461 5.1288 23.8355L10.4803 25.662L11.2976 24.7984C11.3548 24.7943 11.4102 24.7766 11.4596 24.7469C11.509 24.7172 11.5509 24.6761 11.582 24.627C11.6132 24.5779 11.6327 24.5221 11.639 24.464C11.6454 24.4058 11.6384 24.347 11.6187 24.2921L11.0349 23.7163C10.7459 23.4276 10.3808 23.231 9.98405 23.1505L5.73206 22.2471C5.50192 22.1957 5.26711 22.169 5.0315 22.1677H4.36014ZM6.71479 23.1604C7.78508 22.942 9.40025 24.7984 9.40025 24.7984L7.98941 24.2921C7.7791 24.2201 7.58887 24.0975 7.4348 23.9347L6.71479 23.1604Z" fill="#2962AE"/>
<path d="M31.9154 21.3934L31.3802 22.3167C31.2217 22.5859 30.9907 22.803 30.7147 22.942C30.4387 23.081 30.1293 23.1362 29.8234 23.1009L23.5281 22.3861C23.0619 22.3336 22.6138 22.1719 22.2188 21.9136C21.8239 21.6553 21.4928 21.3074 21.2513 20.8971L20.8427 20.2221L14.1193 19.4775L11.2003 20.6589L13.4576 22.1479L18.0404 24.0439L31.1078 24.1531L31.9154 21.3934Z" fill="#EC6626"/>
<path d="M30.777 12.0124L28.831 9.03436C28.4245 8.42115 27.9176 7.88387 27.3326 7.44604C28.3055 9.3421 30.0277 12.4889 30.0764 12.618C30.3722 13.3804 30.4727 14.2072 30.3683 15.0203C30.271 15.745 30.0569 17.0851 29.7261 18.6238C30.4002 17.111 30.9502 15.5438 31.3705 13.9383C31.3875 13.2469 31.1787 12.5694 30.777 12.0124V12.0124Z" fill="#2962AE"/>
<path d="M15.209 12.3997C15.3593 12.4399 15.5121 12.4698 15.6664 12.489L18.7508 12.9358C19.4013 13.0336 20.0153 13.304 20.5313 13.72L22.5454 15.348C22.779 15.1296 23.0514 14.8814 23.1973 14.7226C23.4892 14.4248 23.3238 13.8193 23.3238 13.8193C22.9563 13.0456 22.547 12.2933 22.0979 11.5658C21.9936 11.4156 21.8569 11.2918 21.6983 11.204C21.5398 11.1162 21.3635 11.0668 21.1832 11.0596L20.2102 10.9801L16.3572 10.8312C15.1544 10.7263 13.9648 10.5002 12.8057 10.1562C12.5765 10.0899 12.3421 10.0434 12.1052 10.0172C8.34943 9.59037 5.98505 9.31241 5.58612 9.22307C5.43419 9.20527 5.28075 9.20527 5.12881 9.22307C5.84088 9.8312 6.67943 10.2658 7.58076 10.4937L15.209 12.3997Z" fill="#2962AE"/>
<path d="M33.7446 9.83862L35.6906 12.9755C35.8434 13.2273 36.0495 13.441 36.2938 13.6009L37.5879 14.1072C37.6491 13.3998 37.4553 12.694 37.043 12.1218C36.9067 11.946 36.7422 11.7949 36.5565 11.6751L33.7446 9.83862Z" fill="white"/>
</svg>
