<svg width="35" height="30" viewBox="0 0 35 30" fill="none" xmlns="http://www.w3.org/2000/svg">
<path d="M31.971 2.67761C30.3057 0.962644 28.0528 0 25.7044 0C23.356 0 21.103 0.962644 19.4377 2.67761L17.5514 4.66884L15.6197 2.67761C13.9544 0.962644 11.7015 0 9.35309 0C7.00468 0 4.75173 0.962644 3.08646 2.67761V2.67761C1.42783 4.4027 0.496613 6.73808 0.496613 9.17259C0.496613 11.6071 1.42783 13.9425 3.08646 15.6676L6.03386 18.7577L16.445 29.5499C16.7297 29.8384 17.1122 30 17.5106 30C17.909 30 18.2915 29.8384 18.5762 29.5499L28.9873 18.7577L31.971 15.6676C33.6296 13.9425 34.5608 11.6071 34.5608 9.17259C34.5608 6.73808 33.6296 4.4027 31.971 2.67761Z" fill="#EC6626"/>
<path d="M23.5822 2.75252C23.5822 2.75252 28.8422 -0.347043 31.2545 5.6924C31.2545 5.6924 27.9897 1.86961 23.5822 2.75252Z" fill="white"/>
<path d="M17.7962 21.1151H17.7328C17.5362 21.1009 17.3484 21.0249 17.1945 20.8974C17.0406 20.7699 16.9278 20.5968 16.8712 20.4013L14.5949 12.3706L12.5453 18.1659C12.482 18.3487 12.3684 18.5084 12.2186 18.6252C12.0687 18.7421 11.8891 18.8109 11.7019 18.8233C11.5174 18.8317 11.3343 18.7859 11.1739 18.6912C11.0134 18.5965 10.8821 18.4567 10.795 18.288L8.98125 14.7657H1.06408C0.929375 14.7793 0.793431 14.7635 0.664975 14.7194C0.53652 14.6753 0.418393 14.6038 0.318185 14.5096C0.217977 14.4154 0.137903 14.3005 0.0831055 14.1724C0.0283084 14.0442 0 13.9056 0 13.7654C0 13.6253 0.0283084 13.4867 0.0831055 13.3585C0.137903 13.2303 0.217977 13.1155 0.318185 13.0213C0.418393 12.9271 0.53652 12.8556 0.664975 12.8115C0.793431 12.7674 0.929375 12.7516 1.06408 12.7651H9.58887C9.76464 12.7651 9.93705 12.815 10.0874 12.9094C10.2377 13.0038 10.3601 13.1391 10.4413 13.3005L11.4843 15.3669L13.7787 8.8484C13.8482 8.65687 13.972 8.49158 14.1339 8.37424C14.2957 8.2569 14.4881 8.19299 14.6856 8.19092C14.8905 8.19426 15.089 8.26532 15.2521 8.39374C15.4153 8.52215 15.5345 8.7012 15.5925 8.90476L17.9776 17.2548L19.7914 13.0939C19.8587 12.9412 19.9621 12.8086 20.0922 12.7084C20.2222 12.6083 20.3745 12.5438 20.5351 12.5209C20.6937 12.4978 20.8554 12.5157 21.0058 12.5731C21.1561 12.6304 21.2904 12.7255 21.3966 12.8497L23.2104 14.9254L25.8857 13.3099C26.0368 13.2175 26.2091 13.1688 26.3845 13.169H34.0387C34.1649 13.169 34.2899 13.1948 34.4066 13.2448C34.5232 13.2948 34.6292 13.3682 34.7184 13.4606C34.8077 13.5531 34.8785 13.6628 34.9268 13.7836C34.9751 13.9044 35 14.0339 35 14.1646C35 14.2954 34.9751 14.4248 34.9268 14.5456C34.8785 14.6664 34.8077 14.7762 34.7184 14.8686C34.6292 14.9611 34.5232 15.0344 34.4066 15.0844C34.2899 15.1345 34.1649 15.1602 34.0387 15.1602H26.6203L23.5278 17.0669C23.3345 17.1881 23.1065 17.2357 22.883 17.2014C22.6595 17.1671 22.4545 17.0531 22.3035 16.8791L20.9794 15.3199L18.6759 20.5422C18.5977 20.715 18.4732 20.8608 18.3173 20.9624C18.1613 21.064 17.9805 21.117 17.7962 21.1151V21.1151Z" fill="#213E7B"/>
<path d="M26.3845 13.1316C26.2091 13.1314 26.0368 13.1801 25.8858 13.2725L23.2195 14.9631L21.4057 12.8874C21.2995 12.7632 21.1652 12.6681 21.0149 12.6108C20.8645 12.5534 20.7028 12.5355 20.5442 12.5586C20.3836 12.5815 20.2313 12.646 20.1013 12.7461C19.9712 12.8463 19.8678 12.9789 19.8005 13.1316L17.9867 17.2925L17.5514 15.7333L17.1614 14.315L15.6197 8.93308C15.5618 8.72952 15.4425 8.55047 15.2794 8.42206C15.1162 8.29364 14.9177 8.22258 14.7128 8.21924C14.5153 8.22131 14.323 8.28522 14.1611 8.40256C13.9993 8.5199 13.8754 8.68519 13.8059 8.87672L11.5115 15.3952L10.4414 13.31C10.3601 13.1486 10.2377 13.0133 10.0874 12.9189C9.93708 12.8245 9.76467 12.7746 9.58889 12.7747H1.0641C0.838432 12.7763 0.620362 12.8593 0.447418 13.0095C0.610579 13.1495 0.815932 13.2259 1.02783 13.2255H8.77269L10.5139 16.7571C10.5869 16.9384 10.7129 17.0914 10.8742 17.1947C11.0355 17.2979 11.224 17.3462 11.4132 17.3327C11.6024 17.3193 11.7828 17.2447 11.9289 17.1195C12.0751 16.9944 12.1796 16.8249 12.228 16.635L14.2231 10.8398L16.4541 18.8329C16.5023 19.0272 16.6093 19.2004 16.7594 19.3272C16.9096 19.4539 17.0949 19.5276 17.2884 19.5373H17.3519C17.534 19.5402 17.7127 19.4861 17.8648 19.3822C18.0169 19.2784 18.1352 19.1295 18.2044 18.955L20.4535 13.7703L21.7413 15.3294C21.8834 15.508 22.0842 15.6259 22.3051 15.6606C22.526 15.6952 22.7515 15.6442 22.9384 15.5173L25.9946 13.5448H33.1953C33.3522 13.5414 33.506 13.4986 33.6434 13.42C33.7808 13.3415 33.8978 13.2296 33.9843 13.094L26.3845 13.1316Z" fill="#2962AE"/>
</svg>
