<svg width="35" height="33" viewBox="0 0 35 33" fill="none" xmlns="http://www.w3.org/2000/svg">
<path d="M2.2037 29.6187L3.49373 29.8788H31.2725L32.5625 29.6187C34.1966 29.1852 34.4546 27.7114 34.3686 26.4976C34.2826 25.7173 34.1106 24.937 33.7666 24.2434C32.8205 22.1626 29.9825 16.0937 29.0364 14.6198C28.4344 13.6661 27.4024 13.0592 26.2844 12.9725C25.5963 12.8858 24.9083 12.7124 24.3063 12.4523L22.8443 11.8454C25.1663 9.93805 24.2203 7.94398 24.2203 7.94398C23.1023 5.6898 21.8122 3.60902 20.4362 1.52824C18.8882 -0.465835 15.7061 -0.552534 14.33 1.52824C13.212 3.17553 11.0619 6.99028 10.6319 7.77058C10.5459 7.94397 10.4599 8.11737 10.4599 8.20407C10.2879 8.81097 10.1159 10.3715 11.922 11.7587L10.4599 12.3656C9.85791 12.6257 9.16989 12.7991 8.48187 12.8858C7.36384 12.9725 6.33181 13.5794 5.72979 14.5331C4.86977 16.007 1.94569 22.0759 0.999662 24.1567C0.655653 24.8503 0.483647 25.6306 0.397645 26.4109C0.311643 27.7114 0.56965 29.2719 2.2037 29.6187Z" fill="#EC6626"/>
<path d="M12.438 6.90352C12.438 6.90352 16.8241 2.74196 22.8443 7.16362C19.6622 5.25624 15.7061 5.16954 12.438 6.90352Z" fill="#E65225"/>
<path d="M20.6082 14.5332C20.4362 14.2731 20.0922 14.2731 19.8342 14.4465C19.5762 14.6199 19.5762 14.9667 19.7482 15.2268C19.8342 15.3135 20.0062 15.4002 20.1782 15.4002C20.6082 16.3539 20.5222 17.3943 19.9202 18.1746L20.3502 18.4347C21.0382 17.481 21.1242 16.1805 20.6082 15.1401C20.6942 14.9667 20.6942 14.7066 20.6082 14.5332Z" fill="#E65225"/>
<path d="M14.588 15.4866C14.76 15.4866 14.932 15.4866 15.018 15.3132C15.19 15.0532 15.19 14.7931 14.932 14.533C14.674 14.3596 14.416 14.3596 14.158 14.6197C14.072 14.7931 13.986 14.9665 14.072 15.1399C13.556 16.1802 13.556 17.4807 14.158 18.4344L14.588 18.1743C14.244 17.394 14.158 16.3536 14.588 15.4866Z" fill="#E65225"/>
<path d="M7.79381 16.9607H27.1443C27.7464 16.9607 28.1764 17.3942 28.1764 18.0011V29.9656C28.1764 30.5724 27.7464 31.0059 27.1443 31.0059H7.79381C7.19179 31.0059 6.76178 30.5724 6.76178 29.9656V18.0011C6.76178 17.4809 7.19179 16.9607 7.79381 16.9607Z" fill="#213E7B"/>
<path d="M6.76181 31.4395H28.1764C28.5204 31.4395 28.7784 31.6996 28.7784 32.0463V32.3931C28.7784 32.7399 28.5204 33 28.1764 33H6.76181C6.4178 33 6.15979 32.7399 6.15979 32.3931V32.0463C6.07379 31.6996 6.4178 31.4395 6.76181 31.4395Z" fill="#182846"/>
<path d="M26.9724 18.001L10.3739 30.0521H25.5963C26.3703 30.0521 26.9724 29.4453 26.9724 28.665V18.001Z" fill="#2962AE"/>
<path d="M17.3401 9.85143L14.244 9.50464L14.846 12.5391C14.932 13.146 15.362 13.7529 15.9641 14.013L16.3941 14.2731C16.9961 14.6199 17.7701 14.6199 18.3721 14.2731L18.8881 14.013C19.4902 13.6662 19.8342 13.146 20.0062 12.5391L20.6082 9.50464L17.3401 9.85143Z" fill="white"/>
<path d="M14.244 6.73022C14.244 7.68391 15.018 8.46421 15.9641 8.46421C16.0501 8.46421 16.2221 8.46421 16.3081 8.46421C16.3081 8.46421 17.0821 6.81692 14.244 6.73022Z" fill="white"/>
<path d="M20.5222 6.73022C20.5222 7.68391 19.7482 8.46421 18.8022 8.46421C18.7162 8.46421 18.5442 8.46421 18.4582 8.46421C18.4582 8.46421 17.6842 6.81692 20.5222 6.73022Z" fill="white"/>
<path d="M17.2541 21.8157H17.1681L15.9641 20.6019C15.9641 20.5152 15.9641 20.4285 16.0501 20.4285C16.1361 20.4285 16.1361 20.4285 16.2221 20.4285L17.3401 21.5556L18.4581 20.4285C18.5441 20.4285 18.6301 20.4285 18.6301 20.5152C18.6301 20.6019 18.6301 20.6019 18.6301 20.6886L17.4261 21.9024C17.3401 21.8157 17.2541 21.8157 17.2541 21.8157Z" fill="white"/>
<path d="M17.2541 22.9431C17.824 22.9431 18.2861 22.4773 18.2861 21.9027C18.2861 21.3281 17.824 20.8623 17.2541 20.8623C16.6841 20.8623 16.222 21.3281 16.222 21.9027C16.222 22.4773 16.6841 22.9431 17.2541 22.9431Z" fill="white"/>
<path d="M17.2541 20.8623C16.9961 20.8623 16.7381 20.949 16.5661 21.1224C16.7381 21.0357 16.8241 21.0357 16.9961 21.0357C17.5981 21.0357 18.0281 21.5559 18.0281 22.0761C18.0281 22.3362 17.9421 22.683 17.6841 22.8564C18.0281 22.683 18.2861 22.3362 18.2861 21.9027C18.2861 21.2958 17.8561 20.8623 17.2541 20.8623Z" fill="white"/>
<path d="M15.792 24.2434L14.072 23.2897L13.298 24.07C13.212 24.07 13.126 24.07 13.126 23.9833C13.126 23.8966 13.126 23.8966 13.126 23.8099L13.986 22.9429C14.072 22.9429 14.072 22.9429 14.158 22.9429L15.8781 23.8966C15.9641 23.8966 15.9641 23.9833 15.9641 24.07C15.9641 24.1567 15.8781 24.2434 15.792 24.2434Z" fill="white"/>
<path d="M15.792 25.6306L14.072 24.6769L13.298 25.4572C13.212 25.4572 13.126 25.4572 13.126 25.3705C13.126 25.2838 13.126 25.2838 13.126 25.1971L13.986 24.3301C14.072 24.3301 14.072 24.3301 14.158 24.3301L15.8781 25.2838C15.9641 25.2838 15.9641 25.3705 15.9641 25.4572C15.9641 25.6306 15.8781 25.7173 15.792 25.6306Z" fill="white"/>
<path d="M16.308 27.0178L14.588 26.0641L13.814 26.8444C13.728 26.8444 13.642 26.8444 13.642 26.7577C13.642 26.671 13.642 26.671 13.642 26.5843L14.502 25.7173C14.588 25.7173 14.588 25.7173 14.674 25.7173L16.394 26.671C16.48 26.7577 16.48 26.7577 16.394 26.8444C16.394 27.0178 16.308 27.0178 16.308 27.0178Z" fill="white"/>
<path d="M18.7161 24.2433C18.6301 24.2433 18.6301 24.2433 18.6301 24.1566C18.6301 24.0699 18.6301 23.9832 18.7161 23.9832L20.4362 23.0295C20.5222 23.0295 20.5222 23.0295 20.6082 23.0295L21.4682 23.8965C21.4682 23.9832 21.4682 24.0699 21.3822 24.0699C21.2962 24.0699 21.2962 24.0699 21.2102 24.0699L20.4362 23.2896L18.8021 24.2433H18.7161Z" fill="white"/>
<path d="M18.7161 25.6308C18.6301 25.6308 18.6301 25.6308 18.6301 25.5441C18.6301 25.4574 18.6301 25.3707 18.7161 25.3707L20.4362 24.417C20.5222 24.417 20.5222 24.417 20.6082 24.417L21.4682 25.284C21.4682 25.3707 21.4682 25.4574 21.3822 25.4574C21.2962 25.4574 21.2962 25.4574 21.2102 25.4574L20.4362 24.6771L18.8021 25.6308H18.7161Z" fill="white"/>
<path d="M18.2001 27.0177C18.1141 27.0177 18.1141 27.0177 18.1141 26.931C18.1141 26.8443 18.1141 26.7576 18.2001 26.7576L19.9202 25.804C20.0062 25.804 20.0062 25.804 20.0922 25.804L20.9522 26.6709C20.9522 26.7576 20.9522 26.8443 20.8662 26.8443C20.7802 26.8443 20.7802 26.8443 20.6942 26.8443L19.9202 26.0641L18.2001 27.0177Z" fill="white"/>
<path d="M17.2541 27.6247C18.5841 27.6247 19.6622 26.3825 19.6622 24.8503C19.6622 23.3181 18.5841 22.0759 17.2541 22.0759C15.9242 22.0759 14.8461 23.3181 14.8461 24.8503C14.8461 26.3825 15.9242 27.6247 17.2541 27.6247Z" fill="white"/>
<path d="M16.4801 23.8099C17.9421 23.8966 18.9741 25.1104 18.9741 26.4976C18.9741 26.5843 18.9741 26.671 18.9741 26.7577C19.4901 26.2375 19.7481 25.5439 19.7481 24.7636C19.8341 23.2897 18.7161 22.076 17.3401 21.9893C16.05 22.076 15.018 23.1163 14.932 24.4168C15.276 24.07 15.878 23.8099 16.4801 23.8099Z" fill="white"/>
</svg>
