<svg width="32" height="31" viewBox="0 0 32 31" fill="none" xmlns="http://www.w3.org/2000/svg">
<path d="M12.0695 3.72486L12.5092 4.17059C12.5738 4.23605 12.625 4.31377 12.66 4.3993C12.6949 4.48484 12.7129 4.57651 12.7129 4.66909C12.7129 4.76167 12.6949 4.85335 12.66 4.93888C12.625 5.02442 12.5738 5.10214 12.5092 5.1676L10.1026 7.60736L8.6794 6.16462L11.0803 3.73072C11.1446 3.66399 11.2213 3.61086 11.306 3.5744C11.3907 3.53795 11.4817 3.51889 11.5737 3.51835C11.6657 3.5178 11.7569 3.53578 11.842 3.57123C11.9271 3.60667 12.0045 3.6589 12.0695 3.72486Z" fill="#213E7B"/>
<path d="M10.9585 4.42558C11.0446 4.33706 11.1471 4.26676 11.2602 4.21878C11.3732 4.17079 11.4946 4.14608 11.6172 4.14608C11.7397 4.14608 11.8611 4.17079 11.9742 4.21878C12.0872 4.26676 12.1897 4.33706 12.2758 4.42558L12.3821 4.5334C12.478 4.62855 12.5508 4.74495 12.5948 4.87346C12.6224 4.72473 12.6137 4.57142 12.5695 4.42687C12.5253 4.28231 12.4469 4.1509 12.3412 4.04405L12.2349 3.93623C12.059 3.76146 11.8225 3.66357 11.5762 3.66357C11.33 3.66357 11.0935 3.76146 10.9176 3.93623L8.68408 6.20051L8.95407 6.47422L10.9585 4.42558Z" fill="#2962AE"/>
<path d="M16.5364 4.09142L16.9935 4.55474C17.058 4.6202 17.1093 4.69792 17.1442 4.78346C17.1792 4.86899 17.1972 4.96066 17.1972 5.05325C17.1972 5.14583 17.1792 5.2375 17.1442 5.32304C17.1093 5.40857 17.058 5.48629 16.9935 5.55175L14.5926 7.98565L13.1521 6.52531L15.5414 4.10315C15.6054 4.03514 15.6821 3.98079 15.7672 3.9433C15.8522 3.90581 15.9438 3.88593 16.0365 3.88484C16.1292 3.88375 16.2212 3.90146 16.307 3.93694C16.3929 3.97241 16.4709 4.02494 16.5364 4.09142Z" fill="#213E7B"/>
<path d="M15.4256 4.76543C15.6015 4.59066 15.838 4.49277 16.0842 4.49277C16.3305 4.49277 16.567 4.59066 16.7429 4.76543L16.8492 4.87325C16.9451 4.9684 17.0179 5.0848 17.0619 5.21331C17.0895 5.06457 17.0808 4.91126 17.0366 4.76671C16.9924 4.62216 16.914 4.49075 16.8083 4.3839L16.702 4.27608C16.6159 4.18756 16.5134 4.11726 16.4003 4.06928C16.2873 4.02129 16.1659 3.99658 16.0433 3.99658C15.9208 3.99658 15.7994 4.02129 15.6863 4.06928C15.5733 4.11726 15.4707 4.18756 15.3847 4.27608L13.1921 6.52377L13.4621 6.79748L15.4256 4.76543Z" fill="#2962AE"/>
<path d="M25.4996 23.2068L24.0765 21.764L26.4773 19.3302C26.5419 19.2647 26.6186 19.2128 26.7029 19.1773C26.7873 19.1419 26.8778 19.1237 26.9691 19.1237C27.0604 19.1237 27.1508 19.1419 27.2352 19.1773C27.3196 19.2128 27.3962 19.2647 27.4608 19.3302L27.9005 19.7759C27.9651 19.8413 28.0163 19.9191 28.0512 20.0046C28.0862 20.0901 28.1042 20.1818 28.1042 20.2744C28.1042 20.367 28.0862 20.4586 28.0512 20.5442C28.0163 20.6297 27.9651 20.7074 27.9005 20.7729L25.4996 23.2068Z" fill="#213E7B"/>
<path d="M27.2316 20.8977C27.404 20.7194 27.5006 20.4797 27.5006 20.23C27.5006 19.9804 27.404 19.7406 27.2316 19.5623L27.1007 19.4545C27.0047 19.36 26.8905 19.2866 26.7653 19.2389C26.912 19.2109 27.0632 19.2197 27.2058 19.2646C27.3484 19.3094 27.478 19.3888 27.5834 19.496L27.6898 19.6038C27.7773 19.6917 27.8468 19.7964 27.8943 19.9117C27.9417 20.027 27.9661 20.1507 27.9661 20.2756C27.9661 20.4006 27.9417 20.5243 27.8943 20.6396C27.8468 20.7549 27.7773 20.8595 27.6898 20.9475L25.4644 23.2117L25.1944 22.9297L27.2316 20.8977Z" fill="#2962AE"/>
<path d="M25.1168 18.7117L23.6936 17.2689L26.1234 14.8057C26.188 14.7402 26.2646 14.6883 26.349 14.6529C26.4334 14.6175 26.5238 14.5992 26.6151 14.5992C26.7065 14.5992 26.7969 14.6175 26.8813 14.6529C26.9656 14.6883 27.0423 14.7402 27.1069 14.8057L27.5465 15.2514C27.6111 15.3169 27.6623 15.3946 27.6973 15.4802C27.7322 15.5657 27.7502 15.6574 27.7502 15.7499C27.7502 15.8425 27.7322 15.9342 27.6973 16.0197C27.6623 16.1053 27.6111 16.183 27.5465 16.2485L25.1168 18.7117Z" fill="#213E7B"/>
<path d="M26.8716 16.3774C26.9592 16.2894 27.0287 16.1848 27.0761 16.0695C27.1236 15.9542 27.148 15.8305 27.148 15.7055C27.148 15.5806 27.1236 15.4569 27.0761 15.3416C27.0287 15.2263 26.9592 15.1216 26.8716 15.0337L26.7652 14.9259C26.6692 14.8314 26.555 14.758 26.4298 14.7102C26.5765 14.6837 26.7274 14.6932 26.8697 14.738C27.0121 14.7827 27.1418 14.8614 27.248 14.9674L27.3543 15.0752C27.5272 15.2549 27.624 15.496 27.624 15.747C27.624 15.998 27.5272 16.2391 27.3543 16.4188L25.1208 18.6831L24.8426 18.4011L26.8716 16.3774Z" fill="#2962AE"/>
<path d="M23.1572 6.26694L3.31699 4.0856C3.02762 4.06653 2.73779 4.11492 2.46974 4.22706C2.20169 4.33921 1.96256 4.51212 1.77068 4.73254L1.12434 5.43753C1.09729 5.45468 1.07499 5.47852 1.05952 5.50682C1.04406 5.53511 1.03595 5.56692 1.03595 5.59927C1.03595 5.63161 1.04406 5.66342 1.05952 5.69172C1.07499 5.72001 1.09729 5.74385 1.12434 5.761L16.9556 11.9567L23.1572 6.26694Z" fill="#213E7B"/>
<path d="M25.3825 8.5144L27.567 28.6192C27.5863 28.9131 27.5396 29.2076 27.4305 29.4805C27.3214 29.7534 27.1527 29.9978 26.937 30.1951L26.2416 30.8504C26.1271 30.9582 25.9634 30.9416 25.9225 30.8504L19.7782 14.7764L25.3825 8.5144Z" fill="#213E7B"/>
<path d="M2.13889 5.38777L21.7745 7.54423L23.1572 6.26694L3.31703 4.0856C3.02766 4.06653 2.73783 4.11492 2.46978 4.22706C2.20173 4.33921 1.96259 4.51212 1.77072 4.73254L1.12438 5.43753C1.09834 5.4661 1.07953 5.50065 1.06956 5.53821C1.05958 5.57577 1.05874 5.61522 1.06711 5.65318C1.38772 5.4521 1.76294 5.35918 2.13889 5.38777Z" fill="#2962AE"/>
<path d="M24.2045 9.82487L26.3889 29.9214C26.4146 30.2509 26.3495 30.5811 26.2008 30.8752H26.2417L26.9371 30.22C27.1527 30.0226 27.3214 29.7783 27.4305 29.5054C27.5396 29.2324 27.5863 28.938 27.5671 28.6441L25.3826 8.5144L24.2045 9.82487Z" fill="#2962AE"/>
<path d="M7.75959 20.6569L2.14707 19.6035C1.95464 19.5666 1.75682 19.5696 1.56557 19.6123C1.37432 19.6551 1.19361 19.7368 1.03438 19.8524L0.641667 20.1427C0.616335 20.1592 0.5955 20.1819 0.581071 20.2087C0.566642 20.2355 0.559082 20.2656 0.559082 20.2961C0.559082 20.3266 0.566642 20.3567 0.581071 20.3835C0.5955 20.4103 0.616335 20.433 0.641667 20.4495L5.70603 24.1404L7.75959 20.6569Z" fill="#213E7B"/>
<path d="M10.7376 23.7007L11.793 29.3904C11.8295 29.5855 11.8265 29.786 11.7844 29.9799C11.7422 30.1738 11.6616 30.357 11.5476 30.5184L11.2694 30.9165C11.2522 30.9422 11.229 30.9632 11.2019 30.9777C11.1748 30.9922 11.1446 30.9998 11.114 30.9998C11.0833 30.9998 11.0532 30.9922 11.0261 30.9777C10.999 30.9632 10.9758 30.9422 10.9585 30.9165L7.30957 25.7908L10.7376 23.7007Z" fill="#213E7B"/>
<path d="M31.4124 0.145799C27.4525 -0.866078 23.4436 3.72055 23.4436 3.72055L6.5569 21.9675C5.19058 23.5683 4.92059 26.0316 4.92059 27.0352C5.90238 26.9854 8.33229 26.7283 9.9195 25.3764L27.9188 8.23252C27.9188 8.23252 32.4187 4.15184 31.4124 0.145799Z" fill="#EC6626"/>
<path d="M7.78413 22.8716L24.6462 4.59143C24.6462 4.59143 27.9189 0.834207 31.5105 0.883972C31.4856 0.635459 31.4446 0.388873 31.3878 0.145799V0.145799C27.428 -0.866078 23.419 3.72055 23.419 3.72055L6.53236 21.9675C5.16605 23.5683 4.89606 26.0316 4.89606 27.0352C5.33754 27.0104 5.7773 26.9606 6.21328 26.8859C6.3621 25.4266 6.90572 24.0374 7.78413 22.8716V22.8716Z" fill="#E65225"/>
<path d="M28.1807 1.53076C28.6355 1.6318 29.0527 1.86193 29.3834 2.19429C29.7142 2.5285 29.9441 2.95147 30.0461 3.41352H30.6269C30.6269 2.7536 30.3683 2.12071 29.908 1.65408C29.4477 1.18744 28.8234 0.925293 28.1725 0.925293L28.1807 1.53076Z" fill="#213E7B"/>
<path d="M29.8988 1.67176C29.8452 1.62029 29.7878 1.57315 29.727 1.53076C29.8023 1.70316 29.8412 1.88962 29.8412 2.07817C29.8412 2.26672 29.8023 2.45318 29.727 2.62558C29.8822 2.88095 29.9929 3.16152 30.0543 3.45499H30.6351C30.636 3.12298 30.5712 2.79417 30.4448 2.48792C30.3183 2.18166 30.1327 1.90416 29.8988 1.67176Z" fill="#2962AE"/>
<path d="M24.3848 3.89004L24.3027 3.80912C24.2541 3.76123 24.1764 3.76236 24.1291 3.81163L23.8554 4.09714C23.8082 4.14642 23.8093 4.22519 23.8579 4.27307L23.9401 4.35399C23.9887 4.40188 24.0664 4.40075 24.1136 4.35148L24.3873 4.06597C24.4345 4.01669 24.4334 3.93793 24.3848 3.89004Z" fill="white"/>
<path d="M23.6422 4.66958L23.5601 4.58866C23.5115 4.54077 23.4338 4.5419 23.3865 4.59118L23.1128 4.87669C23.0656 4.92596 23.0667 5.00473 23.1153 5.05261L23.1975 5.13354C23.2461 5.18142 23.3238 5.18029 23.371 5.13102L23.6447 4.84551C23.6919 4.79623 23.6908 4.71747 23.6422 4.66958Z" fill="white"/>
<path d="M21.4002 7.01064L21.3181 6.92972C21.2694 6.88183 21.1917 6.88296 21.1445 6.93224L20.8708 7.21775C20.8236 7.26703 20.8247 7.34579 20.8733 7.39367L20.9555 7.4746C21.0041 7.52248 21.0818 7.52136 21.129 7.47208L21.4027 7.18657C21.4499 7.13729 21.4488 7.05853 21.4002 7.01064Z" fill="white"/>
<path d="M20.6435 7.78457L20.5614 7.70365C20.5128 7.65576 20.4351 7.65689 20.3879 7.70617L20.1142 7.99168C20.0669 8.04095 20.0681 8.11972 20.1167 8.1676L20.1988 8.24853C20.2474 8.29641 20.3251 8.29528 20.3723 8.24601L20.646 7.9605C20.6933 7.91122 20.6922 7.83246 20.6435 7.78457Z" fill="white"/>
<path d="M19.8951 8.57876L19.813 8.49784C19.7644 8.44995 19.6867 8.45108 19.6394 8.50035L19.3658 8.78586C19.3185 8.83514 19.3196 8.91391 19.3682 8.96179L19.4504 9.04272C19.499 9.0906 19.5767 9.08947 19.6239 9.0402L19.8976 8.75469C19.9448 8.70541 19.9437 8.62665 19.8951 8.57876Z" fill="white"/>
<path d="M19.1467 9.35244L19.0645 9.27152C19.0159 9.22363 18.9382 9.22476 18.891 9.27404L18.6173 9.55955C18.5701 9.60882 18.5712 9.68759 18.6198 9.73547L18.7019 9.81639C18.7505 9.86428 18.8282 9.86315 18.8755 9.81388L19.1491 9.52837C19.1964 9.47909 19.1953 9.40033 19.1467 9.35244Z" fill="white"/>
<path d="M27.2487 7.69279L27.3286 7.77592C27.3759 7.82511 27.4536 7.8261 27.5022 7.77813L27.7833 7.50018C27.8319 7.45221 27.8328 7.37344 27.7855 7.32425L27.7055 7.24112C27.6582 7.19192 27.5805 7.19094 27.532 7.23891L27.2508 7.51686C27.2023 7.56483 27.2013 7.64359 27.2487 7.69279Z" fill="white"/>
<path d="M26.4695 8.45377L26.5495 8.53691C26.5968 8.5861 26.6745 8.58709 26.7231 8.53912L27.0042 8.26117C27.0527 8.21319 27.0537 8.13443 27.0064 8.08524L26.9264 8.0021C26.8791 7.95291 26.8014 7.95192 26.7529 7.99989L26.4717 8.27784C26.4232 8.32581 26.4222 8.40458 26.4695 8.45377Z" fill="white"/>
<path d="M24.1686 10.734L24.2486 10.8172C24.2959 10.8664 24.3736 10.8674 24.4222 10.8194L24.7033 10.5414C24.7518 10.4935 24.7528 10.4147 24.7055 10.3655L24.6255 10.2824C24.5782 10.2332 24.5005 10.2322 24.452 10.2802L24.1708 10.5581C24.1223 10.6061 24.1213 10.6849 24.1686 10.734Z" fill="white"/>
<path d="M23.4036 11.4892L23.4836 11.5723C23.5309 11.6215 23.6086 11.6225 23.6571 11.5745L23.9383 11.2966C23.9868 11.2486 23.9878 11.1698 23.9405 11.1206L23.8605 11.0375C23.8132 10.9883 23.7355 10.9873 23.687 11.0353L23.4058 11.3132C23.3573 11.3612 23.3563 11.44 23.4036 11.4892Z" fill="white"/>
<path d="M22.6328 12.2587L22.7127 12.3418C22.76 12.391 22.8377 12.392 22.8863 12.344L23.1674 12.0661C23.2159 12.0181 23.2169 11.9394 23.1696 11.8902L23.0896 11.807C23.0423 11.7578 22.9646 11.7569 22.9161 11.8048L22.6349 12.0828C22.5864 12.1307 22.5854 12.2095 22.6328 12.2587Z" fill="white"/>
<path d="M21.8677 13.0141L21.9476 13.0972C21.995 13.1464 22.0727 13.1474 22.1212 13.0994L22.4023 12.8215C22.4509 12.7735 22.4518 12.6947 22.4045 12.6455L22.3246 12.5624C22.2772 12.5132 22.1995 12.5122 22.151 12.5602L21.8699 12.8381C21.8213 12.8861 21.8204 12.9649 21.8677 13.0141Z" fill="white"/>
</svg>
