<svg width="27" height="32" viewBox="0 0 27 32" fill="none" xmlns="http://www.w3.org/2000/svg">
<path d="M20.3091 2.80027e-06H2.28022C1.91044 -5.2444e-06 1.55567 0.14897 1.29334 0.414413C1.03101 0.679857 0.882422 1.04022 0.880005 1.41684V30.6204C0.891886 30.9906 1.04464 31.3414 1.30595 31.5989C1.56726 31.8564 1.91665 32.0002 2.28022 32H25.4889C25.8579 32 26.2117 31.8507 26.4726 31.585C26.7334 31.3193 26.88 30.9589 26.88 30.5832V6.70201C26.8796 6.32585 26.7351 5.96469 26.4773 5.69531L21.2883 0.419461C21.1609 0.286367 21.0087 0.180664 20.8404 0.108614C20.6722 0.0365626 20.4916 -0.000370397 20.3091 2.80027e-06V2.80027e-06Z" fill="#EC6626"/>
<path d="M21.6086 6.34768H26.6603L20.6568 0.23291V5.36894C20.6504 5.49842 20.6705 5.62785 20.7159 5.74895C20.7613 5.87006 20.831 5.98019 20.9206 6.0723C21.0102 6.16441 21.1176 6.23647 21.2361 6.28389C21.3545 6.33131 21.4814 6.35303 21.6086 6.34768Z" fill="#E65225"/>
<path d="M20.9954 9.81519H5.73037C5.50292 9.81519 5.31854 10.003 5.31854 10.2346V10.505C5.31854 10.7366 5.50292 10.9244 5.73037 10.9244H20.9954C21.2229 10.9244 21.4072 10.7366 21.4072 10.505V10.2346C21.4072 10.003 21.2229 9.81519 20.9954 9.81519Z" fill="#213E7B"/>
<path d="M20.9954 13.1523H5.73037C5.50292 13.1523 5.31854 13.3401 5.31854 13.5718V13.8421C5.31854 14.0738 5.50292 14.2616 5.73037 14.2616H20.9954C21.2229 14.2616 21.4072 14.0738 21.4072 13.8421V13.5718C21.4072 13.3401 21.2229 13.1523 20.9954 13.1523Z" fill="#213E7B"/>
<path d="M19.0003 19.6869C18.3478 19.0748 17.5832 18.5997 16.7503 18.2886C15.9175 17.9775 15.0326 17.8365 14.1462 17.8738C12.3561 17.9489 10.6687 18.7453 9.45511 20.0877C8.24152 21.4301 7.60119 23.2085 7.67499 25.0317C7.74879 26.855 8.53067 28.5737 9.84863 29.8098L10.2422 30.1733C9.38373 29.28 8.87601 28.0975 8.81482 26.8491C8.75362 25.6006 9.14319 24.3725 9.91 23.3965C10.6768 22.4205 11.7678 21.7642 12.9772 21.5513C14.1865 21.3384 15.4305 21.5837 16.4745 22.2409L15.4129 23.3222H20.0894V18.559L19.0003 19.6869Z" fill="white"/>
</svg>
