<svg width="48" height="17" viewBox="0 0 48 17" fill="none" xmlns="http://www.w3.org/2000/svg">
<path d="M0.610001 9.4035C0.610001 9.4035 1.05935 9.4035 1.11984 9.4035C1.1368 9.40066 1.15279 9.39367 1.16637 9.38315C1.17994 9.37262 1.19068 9.3589 1.19761 9.34321C1.19761 9.34321 1.29266 7.30195 1.27538 6.83686C1.2482 6.46753 1.18746 6.10141 1.09391 5.74302L1.17168 4.83005L1.09391 4.17547L2.41603 4.08935C2.41603 4.08935 4.22206 3.22806 5.59603 2.58209C6.96999 1.93612 9.71792 0.859513 9.71792 0.859513C10.7655 0.495726 11.8593 0.281158 12.967 0.22216C14.8941 0.10158 18.2642 -0.0620649 20.0961 0.0240639C22.33 0.0737436 24.552 0.362497 26.724 0.885353C28.7973 1.69073 30.8176 2.62565 32.7729 3.68454C33.637 4.14102 35.8233 5.53631 35.8233 5.53631H36.1776C36.8764 5.47448 37.5806 5.51218 38.2688 5.64828C39.4699 5.88083 41.2327 6.25118 42.6499 6.62153C43.973 6.94189 45.2442 7.44639 46.4261 8.12018C46.7044 8.67965 46.9496 9.25482 47.1606 9.84276C47.1606 9.84276 47.6014 10.1614 47.6014 10.3337V11.6428L47.3853 13.064V13.107L47.2903 13.2535L47.0656 13.6066C46.9965 13.7013 46.936 13.8047 46.8668 13.908C46.8364 13.9592 46.7986 14.0057 46.7545 14.0458C46.5713 14.2139 46.3293 14.3035 46.0805 14.2956H43.0301H42.4252L42.5116 13.0726C42.5119 12.539 42.4045 12.0108 42.1958 11.5194C41.9871 11.028 41.6814 10.5835 41.2969 10.2122C40.9123 9.84098 40.4568 9.55063 39.9573 9.35843C39.4579 9.16623 38.9248 9.07611 38.3897 9.09343C37.3323 9.15543 36.3396 9.62165 35.6184 10.395C34.8973 11.1683 34.5033 12.1892 34.5184 13.2448V14.3817C34.5184 14.3817 14.0991 14.1836 13.2868 14.1664C12.4745 14.1492 12.4659 13.0726 12.4659 13.0726C12.4333 12.1427 12.0755 11.2535 11.4544 10.5588C10.8334 9.86415 9.9882 9.40781 9.06517 9.26879C8.14214 9.12977 7.1994 9.31682 6.40015 9.79756C5.60091 10.2783 4.99548 11.0225 4.68869 11.9012C4.57635 12.2716 4.28255 13.3137 4.28255 13.3137C3.93569 13.3382 3.5882 13.276 3.27152 13.1329C2.91662 12.9475 2.54294 12.8002 2.15679 12.6936C1.5519 12.5214 0.765544 12.3749 0.765544 12.3749L0.947011 11.8237C0.797589 11.4468 0.693176 11.0536 0.635925 10.6524L0.610001 9.4035Z" fill="#EC6626"/>
<path d="M46.9273 12.349L46.8755 12.728C46.8553 12.8682 46.7862 12.9968 46.6803 13.0913C46.5744 13.1858 46.4386 13.2401 46.2965 13.2447H46.0114C45.9275 13.2473 45.844 13.2324 45.7662 13.201C45.6884 13.1696 45.618 13.1225 45.5595 13.0625C45.501 13.0026 45.4557 12.9312 45.4263 12.8528C45.397 12.7744 45.3844 12.6909 45.3892 12.6074V12.2973C45.4002 12.1655 45.4544 12.0411 45.5434 11.943C45.6324 11.845 45.7513 11.7788 45.8817 11.7547L46.2015 11.6772C46.2965 11.6569 46.395 11.6597 46.4887 11.6855C46.5824 11.7112 46.6685 11.759 46.7397 11.8249C46.8109 11.8908 46.8651 11.9729 46.8978 12.0641C46.9305 12.1553 46.9406 12.253 46.9273 12.349V12.349Z" fill="#213E7B"/>
<path d="M4.82695 13.3567C4.82524 14.076 5.03765 14.7795 5.43731 15.3784C5.83696 15.9772 6.40589 16.4444 7.07207 16.7209C7.73825 16.9973 8.47174 17.0705 9.17968 16.9312C9.88763 16.7919 10.5382 16.4465 11.0491 15.9385C11.5599 15.4305 11.9081 14.7829 12.0495 14.0776C12.1909 13.3723 12.1192 12.6411 11.8434 11.9764C11.5677 11.3118 11.1003 10.7436 10.5004 10.3439C9.90055 9.94411 9.19517 9.73073 8.47357 9.73072C7.9951 9.72959 7.5211 9.82254 7.07872 10.0043C6.63634 10.186 6.23427 10.4529 5.89554 10.7897C5.55681 11.1265 5.28806 11.5266 5.10469 11.9671C4.92133 12.4076 4.82694 12.8798 4.82695 13.3567V13.3567Z" fill="#182846"/>
<path d="M5.76886 13.3567C5.76886 13.8899 5.92749 14.4111 6.22469 14.8544C6.52189 15.2978 6.94431 15.6433 7.43853 15.8473C7.93276 16.0514 8.47659 16.1048 9.00125 16.0008C9.52592 15.8967 10.0079 15.64 10.3861 15.263C10.7644 14.8859 11.022 14.4056 11.1263 13.8827C11.2307 13.3597 11.1771 12.8177 10.9724 12.3251C10.7677 11.8325 10.421 11.4114 9.97625 11.1152C9.53146 10.819 9.00853 10.6609 8.47358 10.6609C7.75625 10.6609 7.06829 10.9449 6.56106 11.4505C6.05382 11.956 5.76886 12.6417 5.76886 13.3567ZM5.96761 13.2361C5.98475 12.8579 6.09134 12.489 6.2787 12.1595C6.32753 12.1138 6.38761 12.0818 6.45286 12.0667C6.51811 12.0515 6.58621 12.0539 6.65027 12.0734C6.95435 12.291 7.19091 12.5895 7.33293 12.9347C7.36116 13.0489 7.35757 13.1686 7.32254 13.2809C7.28752 13.3933 7.22239 13.4939 7.13418 13.572C6.97755 13.6516 6.80294 13.6894 6.62731 13.6819C6.45167 13.6744 6.28098 13.6217 6.13179 13.529C6.04741 13.4511 5.98993 13.3486 5.96761 13.2361V13.2361ZM7.86005 10.9451C8.07418 10.8865 8.29479 10.8547 8.51679 10.8504C8.6634 10.8372 8.81089 10.8372 8.9575 10.8504C9.02489 10.8793 9.08218 10.9274 9.12217 10.9887C9.16215 11.05 9.18303 11.1218 9.18217 11.1949C9.05472 11.5531 8.83404 11.8712 8.54271 12.1165C8.44117 12.1781 8.32458 12.2107 8.2057 12.2107C8.08683 12.2107 7.97024 12.1781 7.86869 12.1165C7.74589 11.9899 7.65884 11.8332 7.61635 11.6623C7.57386 11.4914 7.57744 11.3123 7.62674 11.1432C7.68311 11.0556 7.76431 10.9867 7.86005 10.9451V10.9451ZM9.58831 13.0122C9.49779 12.9356 9.43044 12.8355 9.39381 12.7229C9.35718 12.6103 9.35272 12.4898 9.38092 12.3749C9.46409 12.2171 9.58808 12.0844 9.74002 11.9905C9.89196 11.8967 10.0663 11.845 10.245 11.8409C10.3611 11.8629 10.4688 11.9166 10.5561 11.9959C10.7552 12.315 10.882 12.6736 10.9277 13.0467C10.9156 13.1135 10.8849 13.1756 10.8391 13.2259C10.7932 13.2762 10.7341 13.3126 10.6685 13.3309C10.2858 13.326 9.91197 13.2157 9.58831 13.0122V13.0122ZM10.4524 14.9157C10.2196 15.209 9.92451 15.4472 9.58831 15.6133C9.51798 15.6258 9.44552 15.6178 9.37962 15.5903C9.31372 15.5628 9.25716 15.517 9.21674 15.4583C9.11321 15.0951 9.11321 14.7104 9.21674 14.3472C9.26146 14.2372 9.33612 14.1418 9.43231 14.0718C9.52849 14.0018 9.64238 13.96 9.76114 13.951C9.97717 13.951 10.5043 14.2955 10.5302 14.597C10.5368 14.7086 10.5097 14.8196 10.4524 14.9157V14.9157ZM6.68484 15.0879C6.64542 15.0277 6.62444 14.9574 6.62444 14.8855C6.62444 14.8136 6.64542 14.7433 6.68484 14.6831C6.995 14.4646 7.36001 14.3364 7.73907 14.3128C7.85687 14.321 7.97009 14.3615 8.06619 14.4299C8.16228 14.4983 8.23749 14.5919 8.28348 14.7003C8.30981 14.8756 8.28933 15.0546 8.2241 15.2194C8.15886 15.3843 8.05118 15.529 7.9119 15.6391C7.80862 15.6937 7.68986 15.712 7.57489 15.6908C7.22625 15.5644 6.91243 15.3579 6.65891 15.0879H6.68484Z" fill="#E6E4E3"/>
<path d="M7.6613 13.3565C7.6613 13.1964 7.70894 13.0398 7.79819 12.9067C7.88745 12.7736 8.01431 12.6698 8.16274 12.6085C8.31116 12.5472 8.47448 12.5312 8.63205 12.5624C8.78962 12.5937 8.93435 12.6708 9.04795 12.784C9.16155 12.8972 9.23891 13.0415 9.27026 13.1985C9.3016 13.3556 9.28551 13.5184 9.22403 13.6663C9.16255 13.8142 9.05844 13.9407 8.92486 14.0297C8.79128 14.1186 8.63424 14.1661 8.47358 14.1661C8.25885 14.1639 8.05355 14.0778 7.9017 13.9265C7.74985 13.7751 7.66355 13.5705 7.6613 13.3565ZM7.98103 13.3565C7.98325 13.486 8.03586 13.6096 8.12775 13.7012C8.21965 13.7928 8.34364 13.8452 8.47358 13.8474C8.60271 13.8452 8.72579 13.7924 8.8163 13.7006C8.90681 13.6088 8.95751 13.4852 8.95749 13.3565C8.95749 13.2286 8.90651 13.1059 8.81576 13.0154C8.72501 12.925 8.60192 12.8742 8.47358 12.8742C8.34443 12.8741 8.22044 12.9247 8.12831 13.0149C8.03619 13.1051 7.98329 13.2278 7.98103 13.3565V13.3565Z" fill="#182846"/>
<path d="M34.89 13.3567C34.89 14.0739 35.1034 14.775 35.5031 15.3713C35.9029 15.9676 36.4711 16.4323 37.1358 16.7068C37.8006 16.9812 38.532 17.053 39.2377 16.9131C39.9434 16.7732 40.5917 16.4278 41.1005 15.9207C41.6092 15.4136 41.9557 14.7675 42.0961 14.0642C42.2365 13.3608 42.1644 12.6317 41.8891 11.9691C41.6137 11.3066 41.1474 10.7402 40.5492 10.3418C39.9509 9.94338 39.2475 9.73072 38.528 9.73072C38.0499 9.72959 37.5764 9.8226 37.1345 10.0044C36.6926 10.1862 36.2911 10.4533 35.953 10.7902C35.615 11.1272 35.3471 11.5273 35.1646 11.9678C34.9822 12.4082 34.8889 12.8803 34.89 13.3567V13.3567Z" fill="#182846"/>
<path d="M35.8232 13.3567C35.8232 13.8899 35.9819 14.4111 36.2791 14.8544C36.5763 15.2978 36.9987 15.6433 37.4929 15.8473C37.9871 16.0514 38.531 16.1048 39.0556 16.0008C39.5803 15.8967 40.0622 15.64 40.4405 15.263C40.8188 14.8859 41.0764 14.4056 41.1807 13.8827C41.2851 13.3597 41.2315 12.8177 41.0268 12.3251C40.8221 11.8325 40.4754 11.4114 40.0306 11.1152C39.5858 10.819 39.0629 10.6609 38.528 10.6609C38.1728 10.6609 37.8211 10.7306 37.4929 10.8661C37.1648 11.0016 36.8666 11.2001 36.6154 11.4505C36.3643 11.7008 36.1651 11.998 36.0291 12.3251C35.8932 12.6521 35.8232 13.0027 35.8232 13.3567ZM36.022 13.2361C36.0523 12.8543 36.1738 12.4851 36.3763 12.1595C36.4264 12.1131 36.488 12.0807 36.5548 12.0655C36.6215 12.0504 36.6911 12.0531 36.7565 12.0734C37.0558 12.2938 37.2889 12.5917 37.4305 12.9347C37.4608 13.0488 37.4581 13.1691 37.423 13.2818C37.3879 13.3945 37.3216 13.4951 37.2318 13.572C37.0718 13.6494 36.8944 13.6837 36.7171 13.6716C36.5397 13.6596 36.3686 13.6015 36.2207 13.5031C36.1281 13.4371 36.0586 13.3437 36.022 13.2361V13.2361ZM37.8712 10.9451C38.0854 10.8865 38.306 10.8547 38.528 10.8504C38.6746 10.8368 38.8221 10.8368 38.9687 10.8504C39.0361 10.8793 39.0934 10.9274 39.1333 10.9887C39.1733 11.05 39.1942 11.1218 39.1933 11.1949C39.0694 11.5549 38.8481 11.8738 38.5539 12.1165C38.4523 12.1781 38.3358 12.2107 38.2169 12.2107C38.098 12.2107 37.9814 12.1781 37.8799 12.1165C37.7586 11.9889 37.6725 11.8322 37.6301 11.6616C37.5877 11.4911 37.5904 11.3124 37.6379 11.1432C37.6943 11.0556 37.7755 10.9867 37.8712 10.9451ZM39.6773 13.0122C39.5867 12.9356 39.5194 12.8355 39.4828 12.7229C39.4461 12.6103 39.4417 12.4898 39.4699 12.3749C39.5304 12.1681 40.0316 11.772 40.334 11.8409C40.4501 11.8629 40.5577 11.9166 40.6451 11.9959C40.8487 12.3129 40.9759 12.6725 41.0167 13.0467C41.0044 13.1121 40.9746 13.1731 40.9305 13.2231C40.8864 13.2731 40.8296 13.3103 40.7661 13.3309C40.3805 13.3272 40.0036 13.2168 39.6773 13.0122V13.0122ZM40.4809 14.9157C40.25 15.2108 39.9544 15.4495 39.6168 15.6133C39.5464 15.6258 39.474 15.6178 39.4081 15.5903C39.3422 15.5628 39.2856 15.517 39.2452 15.4583C39.146 15.0945 39.146 14.711 39.2452 14.3472C39.2899 14.2372 39.3646 14.1418 39.4608 14.0718C39.5569 14.0018 39.6708 13.96 39.7896 13.951C39.9641 13.9827 40.1275 14.0588 40.2637 14.172C40.4 14.2852 40.5046 14.4316 40.5673 14.597C40.5724 14.7096 40.5422 14.821 40.4809 14.9157V14.9157ZM36.7133 15.0879C36.6739 15.0277 36.6529 14.9574 36.6529 14.8855C36.6529 14.8136 36.6739 14.7433 36.7133 14.6831C37.0235 14.4646 37.3885 14.3364 37.7675 14.3128C37.8863 14.3213 38.0005 14.3619 38.0979 14.4302C38.1954 14.4984 38.2723 14.5918 38.3206 14.7003C38.3433 14.8762 38.3203 15.0549 38.2537 15.2193C38.1871 15.3837 38.0792 15.5283 37.9404 15.6391C37.8371 15.6937 37.7183 15.712 37.6033 15.6908C37.264 15.5609 36.9594 15.3545 36.7133 15.0879V15.0879Z" fill="#E6E4E3"/>
<path d="M37.7157 13.3565C37.7157 13.1964 37.7633 13.0398 37.8526 12.9067C37.9418 12.7736 38.0687 12.6698 38.2171 12.6085C38.3656 12.5472 38.5289 12.5312 38.6864 12.5624C38.844 12.5937 38.9888 12.6708 39.1024 12.784C39.216 12.8972 39.2933 13.0415 39.3247 13.1985C39.356 13.3556 39.3399 13.5184 39.2784 13.6663C39.217 13.8142 39.1128 13.9407 38.9793 14.0297C38.8457 14.1186 38.6886 14.1661 38.528 14.1661C38.3132 14.1639 38.1079 14.0778 37.9561 13.9265C37.8042 13.7751 37.7179 13.5705 37.7157 13.3565ZM38.0354 13.3565C38.0376 13.486 38.0903 13.6096 38.1822 13.7012C38.274 13.7928 38.398 13.8452 38.528 13.8474C38.6571 13.8452 38.7802 13.7924 38.8707 13.7006C38.9612 13.6088 39.0119 13.4852 39.0119 13.3565C39.0119 13.2286 38.9609 13.1059 38.8702 13.0154C38.7794 12.925 38.6563 12.8742 38.528 12.8742C38.3988 12.8741 38.2748 12.9247 38.1827 13.0149C38.0906 13.1051 38.0377 13.2278 38.0354 13.3565V13.3565Z" fill="#182846"/>
<path d="M2.97772 5.77753C2.48332 5.28348 1.85611 4.94249 1.17169 4.79566L1.09392 4.17554C1.85041 4.53798 2.49952 5.08999 2.97772 5.77753V5.77753Z" fill="#E65225"/>
<path d="M4.68004 11.9268C4.56771 12.2972 4.2739 13.3394 4.2739 13.3394C3.92705 13.3638 3.57955 13.3016 3.26287 13.1585C2.90797 12.9731 2.53429 12.8258 2.14815 12.7192C1.54325 12.547 0.756897 12.4005 0.756897 12.4005L0.947005 11.8235H4.70597L4.68004 11.9268Z" fill="#E65225"/>
<path d="M5.03434 9.44663C4.3662 10.0942 3.89837 10.9192 3.6863 11.8238H0.947012C0.79759 11.4468 0.693177 11.0537 0.635925 10.6524V9.40356C0.635925 9.40356 1.08527 9.40356 1.14576 9.40356L5.03434 9.44663Z" fill="#E65225"/>
<path d="M12.6387 13.0295L34.4061 13.2276H34.553V14.3559C34.553 14.3559 14.1336 14.1578 13.3213 14.1406C12.5091 14.1234 12.5004 13.0468 12.5004 13.0468L12.6387 13.0295Z" fill="#E65225"/>
<path d="M34.553 13.2363H34.4061L33.4383 13.0123C33.4383 11.7286 33.95 10.4974 34.8607 9.58961C35.7715 8.68185 37.0067 8.17188 38.2947 8.17188C39.5827 8.17188 40.8179 8.68185 41.7287 9.58961C42.6395 10.4974 43.1511 11.7286 43.1511 13.0123C43.1498 13.4424 43.0947 13.8706 42.9869 14.287H42.4252L42.5117 13.064C42.4638 12.0396 42.0219 11.0729 41.2776 10.3647C40.5334 9.65661 39.544 9.26151 38.5151 9.26151C37.4861 9.26151 36.4968 9.65661 35.7525 10.3647C35.0082 11.0729 34.5663 12.0396 34.5185 13.064L34.553 13.2363Z" fill="#E65225"/>
<path d="M8.42172 8.0686C9.68837 8.0704 10.9044 8.5645 11.8113 9.44588C12.7181 10.3273 13.2444 11.5264 13.2781 12.7885L12.6387 13.0469H12.5004C12.4865 12.1077 12.1397 11.2038 11.5215 10.4949C10.9032 9.78609 10.0534 9.31809 9.12221 9.17372C8.19107 9.02935 7.23871 9.21793 6.43365 9.70608C5.62858 10.1942 5.02272 10.9505 4.72325 11.841H3.68629C3.93078 10.7709 4.53227 9.81507 5.39244 9.12983C6.25261 8.44458 7.32056 8.07045 8.42172 8.0686V8.0686Z" fill="#E65225"/>
<path d="M42.7277 11.0659H47.61V11.6947C47.1937 11.655 46.7737 11.6811 46.3656 11.7722C46.2074 11.8551 46.0743 11.9786 45.9801 12.1301C45.8859 12.2815 45.834 12.4553 45.8299 12.6335C45.824 12.7383 45.8567 12.8417 45.922 12.9242C45.9872 13.0067 46.0805 13.0626 46.1842 13.0813H47.394V13.1244L46.8755 13.9254C46.7858 14.0487 46.6673 14.1485 46.5303 14.216C46.3933 14.2835 46.2419 14.3168 46.0891 14.313H43.0387C43.1465 13.8965 43.2016 13.4683 43.2029 13.0383C43.1887 12.3544 43.0266 11.6816 42.7277 11.0659Z" fill="#E65225"/>
<path d="M43.1424 7.035C44.1091 7.34496 45.0484 7.73385 45.9509 8.19773C46.011 8.22332 46.0756 8.23651 46.141 8.23651C46.2063 8.23651 46.271 8.22332 46.3311 8.19773C46.3311 8.19773 46.4348 8.26664 46.5298 8.38722C46.7977 8.94706 47.1261 9.86002 47.1261 9.86002C46.8236 9.86002 46.6249 9.42077 46.6249 9.42077C45.8817 8.07716 44.0325 7.569 43.0906 7.20725C42.1487 6.84551 38.6317 6.09619 38.6317 6.09619C40.1529 6.31804 41.6593 6.63155 43.1424 7.035V7.035Z" fill="#E65225"/>
<path d="M18.4629 2.0909L19.0937 5.25183C19.1112 5.34557 19.16 5.43064 19.2322 5.4932C19.3044 5.55576 19.3957 5.59212 19.4912 5.59635L31.8051 6.28538C31.8629 6.28876 31.9205 6.27598 31.9715 6.24847C32.0224 6.22096 32.0646 6.17982 32.0934 6.12968C32.1221 6.07955 32.1363 6.0224 32.1342 5.9647C32.1321 5.90699 32.1139 5.85101 32.0816 5.80306C31.5372 5.07408 30.8564 4.45697 30.0768 3.98574C28.9558 3.23247 27.7528 2.60835 26.4907 2.12536C24.5291 1.32436 21.5392 1.1521 19.2233 1.1521C18.99 1.16071 18.3333 1.20378 18.4629 2.0909ZM30.6299 5.03651C30.6299 5.03651 30.6299 4.8298 30.8113 4.81258C30.9928 4.79535 31.3125 4.91593 31.3384 5.13987C31.3644 5.3638 31.3989 5.76 31.131 5.77722H30.7508C30.7508 5.77722 30.6471 5.77722 30.6471 5.68248L30.6299 5.03651Z" fill="#213E7B"/>
<path d="M11.4721 1.88445C12.9984 1.46348 14.5722 1.23773 16.1557 1.21265C16.8556 1.21265 17.1667 1.34184 17.305 1.98781L17.8235 4.9248C17.8352 4.99465 17.831 5.06623 17.8113 5.13427C17.7916 5.20231 17.7569 5.26508 17.7096 5.31797C17.6624 5.37085 17.6038 5.41251 17.5383 5.43986C17.4727 5.46721 17.4019 5.47957 17.3309 5.47603L7.99831 4.91619C7.92277 4.9104 7.85057 4.88274 7.79059 4.83661C7.7306 4.79048 7.68544 4.72789 7.66066 4.65653C7.63588 4.58517 7.63255 4.50815 7.65108 4.43493C7.66962 4.36171 7.70921 4.29548 7.76499 4.24438C8.84294 3.23511 10.1001 2.43481 11.4721 1.88445Z" fill="#213E7B"/>
<path d="M16.1125 2.33228C16.0347 1.97054 15.8965 1.86719 15.499 1.86719H15.4039C14.2355 1.88366 13.0739 2.04864 11.9474 2.35812C11.082 2.69881 10.2834 3.1886 9.58831 3.80509C9.53909 3.84461 9.50312 3.89813 9.48518 3.95854C9.46724 4.01894 9.46818 4.08336 9.48789 4.14322C9.50759 4.20307 9.54512 4.25553 9.59548 4.29359C9.64584 4.33166 9.70664 4.35354 9.76978 4.35631L16.5273 4.7525L16.1125 2.33228Z" fill="#2962AE"/>
<path d="M34.648 5.61397C33.8759 5.25651 33.1257 4.85387 32.4013 4.40817C31.4421 3.86555 28.9448 2.46165 28.2189 2.10853L26.4907 1.29891L27.1301 1.04053C29.0422 1.82581 30.9114 2.7113 32.7297 3.6933C33.5938 4.14978 35.7801 5.54507 35.7801 5.54507C35.4076 5.61905 35.0268 5.64223 34.648 5.61397V5.61397Z" fill="#213E7B"/>
<path d="M19.353 1.94474C19.4479 1.86097 19.572 1.81767 19.6986 1.82416V1.82416C21.4989 1.73856 23.2999 1.98081 25.013 2.53903C25.8594 2.8569 26.668 3.26707 27.4239 3.76206L27.6572 3.89987L27.7609 3.96877V5.26932L19.7159 4.83006L19.2233 2.34955C19.2155 2.2768 19.2229 2.20321 19.2453 2.1335C19.2676 2.06379 19.3043 1.9995 19.353 1.94474V1.94474Z" fill="#2962AE"/>
<path d="M3.34065 4.36481C3.01955 4.33952 2.70599 4.25482 2.41603 4.11503C2.41603 4.11503 4.22206 3.25374 5.59603 2.60778C6.96999 1.96181 9.59695 0.954103 9.71792 0.8852C9.8389 0.816297 10.2018 1.09191 10.0117 1.18665C9.82162 1.28139 7.41934 2.34939 6.4688 2.84033C5.47449 3.44174 4.42748 3.95199 3.34065 4.36481V4.36481Z" fill="#213E7B"/>
<path d="M3.66901 8.57666H6.2614L7.16873 9.32598H7.11689L6.25276 8.61111H3.66037L3.66901 8.57666Z" fill="#E65225"/>
<path d="M18.9382 12.7886C18.9382 12.7886 18.532 10.9799 18.3938 10.1444C18.2555 9.30896 18.1777 6.50977 18.1691 6.48393L18.6185 5.54513L17.8926 1.42817C17.8691 1.33707 17.8639 1.24225 17.8772 1.14913C17.8906 1.05602 17.9222 0.966452 17.9704 0.885554C18.0296 0.814918 18.1059 0.760464 18.192 0.727315C18.2782 0.694167 18.3714 0.683414 18.4629 0.69607H18.895C20.6851 0.69513 22.4739 0.795777 24.2526 0.997521C26.0326 1.37237 27.7399 2.03266 29.3077 2.95265C31.036 3.91729 32.505 5.03697 32.7642 5.61403C32.9999 6.12678 33.1963 6.65655 33.3519 7.1988C33.4821 8.2273 33.5024 9.26667 33.4123 10.2994C33.3083 11.1937 33.1437 12.08 32.9198 12.9522L18.9382 12.7886ZM17.9876 0.885554C17.945 0.960727 17.9177 1.04357 17.9073 1.1293C17.8969 1.21504 17.9037 1.30197 17.9271 1.3851L18.653 5.51929L18.2296 6.49254C18.2296 6.6648 18.3246 9.32618 18.4543 10.1358C18.5839 10.9454 18.9468 12.5302 18.99 12.7197L32.8161 12.8661C33.0445 12.0163 33.2205 11.1534 33.3432 10.2822C33.4329 9.25518 33.4126 8.22155 33.2827 7.1988C33.1249 6.66405 32.9315 6.14037 32.7038 5.63125C31.7289 4.54537 30.5559 3.65393 29.2472 3.00432C27.6858 2.09222 25.9879 1.43507 24.218 1.05781C22.4422 0.856077 20.6563 0.755431 18.869 0.756361H18.4024C18.3252 0.748472 18.2472 0.759222 18.175 0.787704C18.1028 0.816186 18.0385 0.861563 17.9876 0.920005V0.885554Z" fill="#E65225"/>
<path d="M18.9641 7.68947C18.9662 7.74133 18.9879 7.79049 19.0247 7.82719C19.0615 7.8639 19.1108 7.88545 19.1629 7.88757H20.822C20.8732 7.88535 20.9215 7.8635 20.957 7.82659C20.9924 7.78967 21.0121 7.74055 21.0121 7.68947V7.46553C21.0133 7.43951 21.0093 7.41352 21.0003 7.38904C20.9914 7.36456 20.9777 7.34208 20.9601 7.32288C20.9424 7.30368 20.9211 7.28814 20.8974 7.27715C20.8737 7.26616 20.8481 7.25993 20.822 7.25882L19.1801 7.15547C19.1545 7.1543 19.1288 7.15835 19.1047 7.16734C19.0807 7.17634 19.0587 7.19012 19.0401 7.20783C19.0215 7.22554 19.0067 7.24683 18.9966 7.27039C18.9866 7.29396 18.9814 7.31933 18.9814 7.34495L18.9641 7.68947Z" fill="#E65225"/>
<path opacity="0.52" d="M20.9689 7.50844C20.9701 7.48171 20.9658 7.45502 20.9563 7.42998C20.9469 7.40494 20.9324 7.38207 20.9138 7.36276C20.8953 7.34344 20.8729 7.32807 20.8483 7.31758C20.8236 7.30709 20.797 7.3017 20.7701 7.30172L19.1369 7.19837C19.1097 7.1983 19.0827 7.20359 19.0575 7.21394C19.0323 7.22428 19.0093 7.23948 18.99 7.25866C19.0062 7.22702 19.031 7.20055 19.0616 7.18228C19.0921 7.164 19.1272 7.15466 19.1629 7.15531L20.8047 7.25866C20.8308 7.25977 20.8565 7.266 20.8801 7.27699C20.9038 7.28798 20.9251 7.30352 20.9428 7.32272C20.9604 7.34192 20.9741 7.3644 20.983 7.38888C20.992 7.41336 20.996 7.43935 20.9948 7.46537V7.6204L20.9689 7.50844Z" fill="white"/>
<path d="M41.4056 9.26562H43.3499L43.4449 9.3173H41.4315L40.8871 9.83408L41.4056 9.26562Z" fill="#E65225"/>
<path d="M1.95804 5.16577C2.1798 5.20799 2.39064 5.29465 2.57779 5.42049C2.76495 5.54634 2.92452 5.70874 3.04685 5.89787C3.38917 6.77852 3.60165 7.70398 3.67766 8.64538H1.81114V5.67393L1.95804 5.16577Z" fill="#D42327"/>
<path d="M46.5644 9.42053C46.2582 8.95521 45.8755 8.54466 45.4324 8.20612C44.8714 7.87471 44.235 7.69095 43.5832 7.67212H43.3585C43.0561 7.67212 42.9524 7.75825 42.9524 8.00802V8.0597C42.9156 8.44008 43.0068 8.82186 43.2116 9.14492C43.4795 9.44637 43.8943 9.45499 44.4127 9.47221H44.4559L46.5212 9.52389H46.6335L46.5644 9.42053Z" fill="white"/>
</svg>
