<svg xmlns="http://www.w3.org/2000/svg" width="420.632" height="242.81" viewBox="0 0 420.632 242.81">
  <g id="Layer_2" data-name="Layer 2" transform="translate(0 -0.043)">
    <g id="Layer_1" data-name="Layer 1" transform="translate(0 0.043)">
      <path id="Path_4347" data-name="Path 4347" d="M360.808,73.823a7.7,7.7,0,0,1-5.426-7.394v-.152h0A48.277,48.277,0,0,0,307.105,18H56.827A48.277,48.277,0,0,0,8.55,66.277h0a48.277,48.277,0,0,0,48.277,48.277h0a6.929,6.929,0,0,1,6.474,9.431,84.264,84.264,0,0,0-4.539,16.2,4.9,4.9,0,0,1-4.848,4.045h0A53.889,53.889,0,0,0,0,198.123H0a53.89,53.89,0,0,0,53.9,53.894H209.611a53.654,53.654,0,0,0,21.11-4.294,93.963,93.963,0,0,1,36.829-7.7h68.065A85.01,85.01,0,0,0,420.632,155v.01a85.047,85.047,0,0,0-59.824-81.188Z" transform="translate(0 -9.207)" fill="#fff2eb"/>
      <path id="Path_4348" data-name="Path 4348" d="M329.117,395.608l3.991.641a12.355,12.355,0,0,0,.867-2.625,5.509,5.509,0,0,1,1.875-3.266l6.141-5.049H328.73Z" transform="translate(-167.759 -196.654)" fill="#ffdbcf"/>
      <path id="Path_4349" data-name="Path 4349" d="M522.72,395.715a12.889,12.889,0,0,0,10.068.979,7.405,7.405,0,0,0,1.665-.759l17.486-10.665-20.464.514Z" transform="translate(-266.756 -196.633)" fill="#ffdbcf"/>
      <path id="Path_4350" data-name="Path 4350" d="M414.184,401.87,365.27,420.918l47.239,12.1,40.673-23.167Z" transform="translate(-186.406 -205.105)" fill="#ffdbcf"/>
      <path id="Path_4351" data-name="Path 4351" d="M292.842,427.955l-27.912,3.859s-3.09,1.675-5.019.774L190,415.331s-3.472-1.161-2.571-3.731Z" transform="translate(-95.571 -210.07)" fill="#ffdbcf"/>
      <path id="Path_4352" data-name="Path 4352" d="M366.06,419.868l47.239,12.1L453.972,408.8l-39-7.982Z" transform="translate(-186.809 -204.569)" fill="#fff"/>
      <path id="Path_4353" data-name="Path 4353" d="M424.68,425.127l27.8,7.595,1.161-.514-28.191-7.468Z" transform="translate(-216.724 -216.776)" fill="#fff2eb"/>
      <path id="Path_4354" data-name="Path 4354" d="M429.93,421.707l27.8,7.595,1.161-.514L430.7,421.32Z" transform="translate(-219.403 -215.03)" fill="#fff2eb"/>
      <path id="Path_4355" data-name="Path 4355" d="M455.69,409.357l27.8,7.59,1.161-.514-28.191-7.463Z" transform="translate(-232.549 -208.728)" fill="#fff2eb"/>
      <path id="Path_4356" data-name="Path 4356" d="M398.39,436.908l28.832,6.567,6.821-2.448-29.988-6.567Z" transform="translate(-203.308 -221.736)" fill="#fff2eb"/>
      <path id="Path_4357" data-name="Path 4357" d="M513.152,75.14,529.8,119.931s3.428,7.037,6.855,8.927,7.561,5.661,5.656,11.669L483.12,121.649Z" transform="translate(-246.548 -38.367)" fill="#05182d"/>
      <path id="Path_4358" data-name="Path 4358" d="M566.675,304.22l11.9-58.188a9.728,9.728,0,0,0,.152-3.173c-.764-6.141-5.842-8.594-8.432-9.456a10.188,10.188,0,0,0-2.39-.49l-61.165-4.823-33.5,76.13Z" transform="translate(-241.506 -116.421)" fill="#02355c"/>
      <path id="Path_4359" data-name="Path 4359" d="M416.837,162.714l41.529,13.711s10.655,2.081,13.128,15.18a26.575,26.575,0,0,1-1.528,14.769l-25.659,64.461H380.8l-3.428-12.012s-11.326-11.674-8.927-23.343L356.2,247.516a13.8,13.8,0,0,1-19.063.279h0a13.8,13.8,0,0,1-1.572-18.51L376.321,176.1S388,158.253,416.837,162.714Z" transform="translate(-169.795 -82.692)" fill="#ec6625"/>
      <path id="Path_4360" data-name="Path 4360" d="M415.1,275.077l10.954-.348a1.175,1.175,0,0,1,1.21,1.234l-.132,2.517a1.18,1.18,0,0,1-1.161,1.112l-13.06.117Z" transform="translate(-210.718 -140.221)" fill="#e44901"/>
      <path id="Path_4361" data-name="Path 4361" d="M414.769,274.022l10.954-.343a1.175,1.175,0,0,1,1.209,1.234l-.132,2.517a1.17,1.17,0,0,1-1.161,1.107l-13.06.122Z" transform="translate(-210.549 -139.686)" fill="#fff2eb"/>
      <path id="Path_4362" data-name="Path 4362" d="M414.54,278.672l2.017-4.1h.054l9.7-.294h.039a1.141,1.141,0,0,1,.818.343,1.018,1.018,0,0,1,.3.788l-.118,2.159a1.1,1.1,0,0,1-1.107,1.023Zm2.125-3.917-1.856,3.761,11.429-.1a.94.94,0,0,0,.945-.862l.117-2.135a.867.867,0,0,0-.255-.671.979.979,0,0,0-.73-.289Z" transform="translate(-211.55 -139.992)" fill="#ec6625"/>
      <path id="Path_4363" data-name="Path 4363" d="M506.819,262.29l-26.859,6.092,2.576,52.606,15.444-.862Z" transform="translate(-244.935 -133.874)" fill="#e44901"/>
      <path id="Path_4364" data-name="Path 4364" d="M540.955,249l-8.065,23.857S537.351,252.428,540.955,249Z" transform="translate(-271.946 -127.091)" fill="#e44901"/>
      <path id="Path_4365" data-name="Path 4365" d="M441.24,101.316l8.236,38.092,1.288,34.767,6.816-16.933a23.015,23.015,0,0,1,4.8-7.414l18.5-19.156L480.37,95.66Z" transform="translate(-225.175 -48.838)" fill="#ffc09e"/>
      <path id="Path_4366" data-name="Path 4366" d="M468.29,125.1,475.61,97.05l-34.37,4.975,8.236,38.092.294,7.943,12.565-12.56A22.834,22.834,0,0,0,468.29,125.1Z" transform="translate(-225.175 -49.548)" fill="#e7886b"/>
      <path id="Path_4367" data-name="Path 4367" d="M409.116,63.829h-1.332a.519.519,0,0,0-.524.49c-.191,2.287-.881,12.379,1.033,20.2a1.44,1.44,0,0,0,1.4,1.112h.171v.539a5.352,5.352,0,0,0,4.02,5.235,8.041,8.041,0,0,0,2.639.206A2.747,2.747,0,0,0,418.89,88.4l-1.959-11.968a2.781,2.781,0,0,0-2.737-2.331h-.211a3.771,3.771,0,0,1-3.384-2.062,15.481,15.481,0,0,1-.715-1.787,9.554,9.554,0,0,1-.24-5.749.524.524,0,0,0-.529-.671Z" transform="translate(-207.692 -32.594)" fill="#ec6625"/>
      <path id="Path_4368" data-name="Path 4368" d="M409.544,33.971c0-.25-1.014-24.675,22.848-29.327a1.3,1.3,0,0,1,1.538,1.067h0C409.877,9.507,410.8,32.908,410.856,33.9Z" transform="translate(-208.997 -2.378)" fill="#ec6625"/>
      <path id="Path_4369" data-name="Path 4369" d="M430.586,17.941s-5.661,1.8-6.439,10.557.49,36.295.49,36.295a26.5,26.5,0,0,0,7.835,15.351,16.909,16.909,0,0,0,11.855,4.446c6.616-.113,17.447-1.591,22.775-9.5l9.524-12.869V32.617S457.871,5.072,430.586,17.941Z" transform="translate(-216.323 -7.429)" fill="#ffc09e"/>
      <path id="Path_4370" data-name="Path 4370" d="M473.83,38.6s2.316,3.864,4.246,7.345,7.835,4.637,10.171,7.345,5.92,8.236,7.982,9.392l.583,8.883a2.879,2.879,0,0,0,3.026,2.679l4.241-.23,1.288-21.756Z" transform="translate(-241.807 -19.719)" fill="#e7886b"/>
      <path id="Path_4371" data-name="Path 4371" d="M489.859,135.7v.073a2.135,2.135,0,0,0,2.674,2.12l2.336-.593a2.12,2.12,0,0,0,.979-.573,1.851,1.851,0,0,0,.627-1.733,52.64,52.64,0,0,0,5.215-2c.837-.529,3.154-2.189,3.154-2.189l-1.2-1.812Z" transform="translate(-249.986 -65.853)" fill="#e7886b"/>
      <path id="Path_4372" data-name="Path 4372" d="M516.523,123.422l-1.89-.073a1.136,1.136,0,0,0-1.1,1.567,2.526,2.526,0,0,0,.8,1.019l1.542.979-1.469,2.017-1.435,3.389a2.423,2.423,0,0,0,.705,2.639l4.123,2.253,3.731-10.362Z" transform="translate(-261.715 -62.968)" fill="#e7886b"/>
      <path id="Path_4373" data-name="Path 4373" d="M432.089,17.591s-5.146-1.2-7.379,2.233c-1.562,2.4-2.365,6.317-3.589,8.863a18.118,18.118,0,0,0-1.9,7.835V44.7a15.67,15.67,0,0,1-3.947-8.065c-.69-4.809-.514-15.792-.514-15.792s1.3-12.614,13.647-17.854a12.472,12.472,0,0,1,6.366-.852h0a9.265,9.265,0,0,0,4.735-.646,21.285,21.285,0,0,1,13.52-.7c9.793,2.4,20.077,15.64,20.939,19.587a57.276,57.276,0,0,1,0,25.914l-5.146-1.542-.171-4.8a22.794,22.794,0,0,1-8.089-5.661,13.09,13.09,0,0,0-4.265-3.188c-2.938-1.386-7.482-4.138-10.131-8.657C442.044,15.363,434.493,16.049,432.089,17.591Z" transform="translate(-211.651 -0.043)" fill="#05182d"/>
      <path id="Path_4374" data-name="Path 4374" d="M407.985,127l-4.975,32.27a48.58,48.58,0,0,0-.759,12.056,12.243,12.243,0,0,1-.6,4.735c-1.582,4.838-5.176,15.978-8.77,28.171-4.8,16.306-3.775,26.261-2.233,31.579s9.8,18.015,9.8,18.015h9.94L406.962,241.3s-11.155-10.641-9.612-23.686a44.793,44.793,0,0,1,5.475-15.028,94.126,94.126,0,0,0,7.835-15.552c2.365-6.209,4.735-13.221,4.559-15.929l-1.2-2.062-3.775-.509,11.669-17.33L420.2,141.078A23.572,23.572,0,0,1,407.985,127Z" transform="translate(-198.702 -64.832)" fill="#05182d"/>
      <rect id="Rectangle_2354" data-name="Rectangle 2354" width="388.548" height="2.062" transform="translate(11.919 187.457)" fill="#ffdbcf"/>
      <path id="Path_4375" data-name="Path 4375" d="M349.747,411.961,293.5,396.35l-13.128,9.27,15.18,8.236,9.142,6.4,46.01-7.874A3.4,3.4,0,0,0,349.747,411.961Z" transform="translate(-143.079 -202.288)" fill="#02355c"/>
      <path id="Path_4376" data-name="Path 4376" d="M322.111,402.92l1.611.451a15.1,15.1,0,0,1-.421,1.582,3.824,3.824,0,0,1-2.791,2.551l-4.769,1.082-2.38-3.349Z" transform="translate(-159.915 -205.64)" fill="#05182d"/>
      <path id="Path_4377" data-name="Path 4377" d="M376.06,429.1l-46,7.874,3.917,2.747,43.836-7.1-.171-1.1A3.511,3.511,0,0,0,376.06,429.1Z" transform="translate(-168.437 -219.001)" fill="#05182d"/>
      <path id="Path_4378" data-name="Path 4378" d="M298.5,410.258l3.864-1.288,33.3,9.24a.49.49,0,0,1-.034.94l-30.453,6.165Z" transform="translate(-152.332 -208.728)" fill="#004a80"/>
      <path id="Path_4379" data-name="Path 4379" d="M299.214,369.048l-1.866,3.467a4.9,4.9,0,0,0-.49,3.286l.49,2.331a4.711,4.711,0,0,1-.073,2.155l-.372,1.386a2.874,2.874,0,0,1-3.011,2.111h0a2.879,2.879,0,0,1-2.6-2.419l-.813-5.235h0a1.023,1.023,0,0,0-1.689-.269l-3.07,3.359-2.762,4.9a4.24,4.24,0,0,1-2.63,2.042l-.176.039a1.591,1.591,0,0,1-1.9-1.866l1.9-9.794a5.561,5.561,0,0,1,.588-1.631l1.121-2.062-2.923,2.326a3.134,3.134,0,0,0-1.131,1.983l-.857,5.994a6.366,6.366,0,0,1-2.6,3.046A1.611,1.611,0,0,1,272,383.062l-.328-1.787A3.962,3.962,0,0,1,269.5,383.5a1.724,1.724,0,0,1-2.385-1.445l-.206-2.2a4.343,4.343,0,0,1-2.091,1.929,1.645,1.645,0,0,1-2.2-1.959l1.2-4.2,2.448-4.407a3.428,3.428,0,0,1,1.846-1.587l.979-.343a6.489,6.489,0,0,1,2.189-2.062c1.288-.641,4.505-1.929,4.505-1.929l5.661-6.567S294.836,360.038,299.214,369.048Z" transform="translate(-133.992 -183.094)" fill="#ffc09e"/>
      <path id="Path_4380" data-name="Path 4380" d="M303.15,362.335s6.523,1.587,10.038,5.445,5.068,5.964,5.068,5.964l1.587-2.786S310.143,360.229,303.15,362.335Z" transform="translate(-154.705 -184.789)" fill="#e7886b"/>
      <path id="Path_4381" data-name="Path 4381" d="M319.393,297.52a60.012,60.012,0,0,0-9.524,10.029c-4.29,5.832-13.559,21.624-13.559,21.624s11.5-1.376,19.225,11.669L336.9,317.073Z" transform="translate(-151.214 -151.852)" fill="#ec6625"/>
      <path id="Path_4382" data-name="Path 4382" d="M479.26,269.889l8.2,50.6a16.5,16.5,0,0,0,19.381,13.491h0a16.5,16.5,0,0,0,12.834-20.439L506.378,264.4Z" transform="translate(-244.578 -134.95)" fill="#ec6625"/>
      <path id="Path_4383" data-name="Path 4383" d="M439.66,212.87l6.532,11.15a12.457,12.457,0,0,1,1.567,4.436l1.185,7.928Z" transform="translate(-224.369 -108.653)" fill="#e44901"/>
      <path id="Path_4384" data-name="Path 4384" d="M480.974,221.64l-9.093,1.2a6.625,6.625,0,0,0-4.294,3.6C466.044,229.534,462.44,240,462.44,240l6.111-9.705a16.649,16.649,0,0,1,7.154-6.258Z" transform="translate(-235.994 -113.129)" fill="#e44901"/>
      <path id="Path_4385" data-name="Path 4385" d="M451.955,299.79c0,.49-2.4,8.241-1.89,13.045s2.248,15.459,2.248,15.459l-1.224-15.283a22.376,22.376,0,0,1,0-3.756Z" transform="translate(-229.642 -153.011)" fill="#e44901"/>
      <path id="Path_4386" data-name="Path 4386" d="M540.25,284.72,547.8,316.3S544.2,294.846,540.25,284.72Z" transform="translate(-275.702 -145.32)" fill="#e44901"/>
      <path id="Path_4387" data-name="Path 4387" d="M556,341.85s3.428,2.938,2.228,8.927Z" transform="translate(-283.74 -174.475)" fill="#e44901"/>
      <path id="Path_4388" data-name="Path 4388" d="M509.916,138.5l-1.518,8.246a12.325,12.325,0,0,1-2.1,4.9c-1.635,2.3-3.917,6.121-3.594,9.142l15.278-14.587L516.1,136.4Z" transform="translate(-256.528 -69.629)" fill="#e7886b"/>
      <path id="Path_4389" data-name="Path 4389" d="M139.328,305.2l22.226,49.624a6.018,6.018,0,0,0,4.123,3.516l71.037,17.139a1.376,1.376,0,0,0,1.562-1.9l-25.953-59.006a7.135,7.135,0,0,0-5.612-4.226l-65.822-8.1A2,2,0,0,0,139.328,305.2Z" transform="translate(-70.964 -154.26)" fill="#02355c"/>
      <path id="Path_4390" data-name="Path 4390" d="M139.327,306.285l21.33,49.678a5.92,5.92,0,0,0,4.069,3.428l70.141,16.7a1.347,1.347,0,0,0,1.542-1.856l-25.605-57.488a7.046,7.046,0,0,0-5.538-4.118l-64.534-8.212a1.347,1.347,0,0,0-1.405,1.866Z" transform="translate(-71.046 -155.368)" fill="#004a80"/>
      <path id="Path_4391" data-name="Path 4391" d="M529.12,46.679l1.249-.157a.8.8,0,0,1,.891.627c.637,3.012,2.938,14.9,1.831,24.513a1.768,1.768,0,0,1-1.533,1.562l-.211.029.083.651a6.542,6.542,0,0,1-4.064,6.968,9.94,9.94,0,0,1-3.173.646,3.359,3.359,0,0,1-3.359-3.535l.568-14.808a3.428,3.428,0,0,1,2.938-3.247l.255-.034a4.583,4.583,0,0,0,3.785-3.021,17.464,17.464,0,0,0,.6-2.287,11.83,11.83,0,0,0-.49-6.807.808.808,0,0,1,.627-1.1Z" transform="translate(-265.792 -23.758)" fill="#ec6625"/>
      <path id="Path_4392" data-name="Path 4392" d="M494.231,135.918a2.4,2.4,0,0,0-1.817-.147l-1.528.49a2.407,2.407,0,0,0,1.469,4.583l1.528-.49a2.4,2.4,0,0,0,1.66-2.532A1.8,1.8,0,0,1,494.231,135.918Z" transform="translate(-249.658 -69.25)" fill="#05182d"/>
      <path id="Path_4393" data-name="Path 4393" d="M511.644,113.73a17.358,17.358,0,0,1-7.835,9.387l-4.368,1.611a1.8,1.8,0,0,0,1.307,1.91l4.143-1.528s7.526-2.772,9.823-10.459Z" transform="translate(-254.872 -58.06)" fill="#ec6625"/>
      <path id="Path_4394" data-name="Path 4394" d="M536.89,80.57s-1.028.6-1.2,3.09v5.935s0,2.83,1.8,3.516a4.853,4.853,0,0,1-1.288-3.687V83.831A10.054,10.054,0,0,1,536.89,80.57Z" transform="translate(-273.375 -41.138)" fill="#e44901"/>
      <path id="Path_4395" data-name="Path 4395" d="M492.23,191.492l2.747-36.295s.171-8.07,4.632-10.983l9.612-9.612-.686-5.323a13.734,13.734,0,0,1-5.039-.2,1.616,1.616,0,0,1-.779-2.512l.666-.891.49-2.057,2.233-2.4a7.057,7.057,0,0,1-2.3-1.469,1.361,1.361,0,0,1,1.165-2.277l4.05.46a9.466,9.466,0,0,1-1.014-3.491,1.469,1.469,0,0,1,2.448-1.1l6.444,6.307a5.405,5.405,0,0,1,2.747,2.938L524.627,137s1.028,3.6-.857,5.318l-10.435,14.1a11.2,11.2,0,0,0-2.189,6.855l.264,24.077Z" transform="translate(-251.197 -57.67)" fill="#ffc09e"/>
      <path id="Path_4396" data-name="Path 4396" d="M499.59,10.47s16.732,6.439,18.809,21.11h2.576S516.836,12.017,499.59,10.47Z" transform="translate(-254.952 -5.364)" fill="#ec6625"/>
      <path id="Path_4397" data-name="Path 4397" d="M615.984,274.21s-28.142,21.967-31.574,45.3C584.41,319.515,589.9,300.638,615.984,274.21Z" transform="translate(-298.238 -139.957)" fill="#042645"/>
      <path id="Path_4398" data-name="Path 4398" d="M340.3,322.731s7.208-.774,10.812,7.722C351.112,330.453,344.932,324.533,340.3,322.731Z" transform="translate(-173.663 -164.709)" fill="#e44901"/>
      <path id="Path_4399" data-name="Path 4399" d="M352.93,324s3.34-.22,5.519,3.585Z" transform="translate(-180.108 -165.363)" fill="#e44901"/>
      <path id="Path_4400" data-name="Path 4400" d="M322.07,389.348a2.864,2.864,0,0,1,3.261-.514A9.793,9.793,0,0,0,322.07,389.348Z" transform="translate(-164.36 -198.287)" fill="#e7886b"/>
      <path id="Path_4401" data-name="Path 4401" d="M323.65,401.491a2.828,2.828,0,0,1,2.962.343A3.677,3.677,0,0,0,323.65,401.491Z" transform="translate(-165.166 -204.769)" fill="#e7886b"/>
      <path id="Path_4402" data-name="Path 4402" d="M318.939,390.9l-.49-3.046A8.076,8.076,0,0,0,318.939,390.9Z" transform="translate(-162.512 -197.95)" fill="#e7886b"/>
      <path id="Path_4403" data-name="Path 4403" d="M492.49,265.434l18.96-.514-19.22,4.118Z" transform="translate(-251.197 -135.216)" fill="#e7886b"/>
      <path id="Path_4404" data-name="Path 4404" d="M516,137.129l6.116-1.929S517.361,136.037,516,137.129Z" transform="translate(-263.327 -69.017)" fill="#e7886b"/>
      <path id="Path_4405" data-name="Path 4405" d="M520.62,128.574s.774-.979,1.542-.837l3.286.064-3.09-.382S521.457,127.1,520.62,128.574Z" transform="translate(-265.685 -65.03)" fill="#e7886b"/>
      <path id="Path_4406" data-name="Path 4406" d="M526.58,123.1l5.254,1.009S528.015,122.805,526.58,123.1Z" transform="translate(-268.726 -62.821)" fill="#e7886b"/>
      <path id="Path_4407" data-name="Path 4407" d="M445.977,102.988a3.673,3.673,0,0,1,2.649-3.521,3.746,3.746,0,0,0-1.023-.147,3.673,3.673,0,1,0,0,7.345,3.746,3.746,0,0,0,1.023-.147A3.668,3.668,0,0,1,445.977,102.988Z" transform="translate(-226.548 -50.706)" fill="#e7886b"/>
      <path id="Path_4408" data-name="Path 4408" d="M447.21,123.237l9.485-.877S453.16,131.605,447.21,123.237Z" transform="translate(-228.222 -62.464)" fill="#fff2eb"/>
      <path id="Path_4409" data-name="Path 4409" d="M454.12,27.61s8.236-4.637,13.383,2.571C467.5,30.181,463.644,24.52,454.12,27.61Z" transform="translate(-231.748 -13.362)" fill="#02355c"/>
      <path id="Path_4410" data-name="Path 4410" d="M455.43,22.5s3.864-5.147,9.524-.9C464.954,21.6,461.1,18.516,455.43,22.5Z" transform="translate(-232.417 -10.188)" fill="#02355c"/>
      <path id="Path_4411" data-name="Path 4411" d="M460.062,241.685l-.6-13.221s4.378.857,6.366-.514Z" transform="translate(-234.473 -116.349)" fill="#fff2eb"/>
      <path id="Path_4412" data-name="Path 4412" d="M426.42,127l-.93,6.028L438.569,153.8l1.753-2.6-1.714-10.126A23.555,23.555,0,0,1,426.42,127Z" transform="translate(-217.138 -64.832)" fill="#010c16"/>
    </g>
  </g>
</svg>
