<svg xmlns="http://www.w3.org/2000/svg" xmlns:xlink="http://www.w3.org/1999/xlink" width="565.494" height="369.386" viewBox="0 0 565.494 369.386">
  <defs>
    <clipPath id="clip-path">
      <rect id="Rectangle_2331" data-name="Rectangle 2331" width="404.506" height="369.005" fill="none"/>
    </clipPath>
  </defs>
  <g id="Group_3077" data-name="Group 3077" transform="translate(-1453.079 -1674.22)">
    <path id="Path_4413" data-name="Path 4413" d="M485.065,125.133c-4.356-1.528-7.32-6.121-7.3-11.311v-.233h0c0-40.79-29.048-73.871-64.885-73.879H76.418c-35.846,0-64.9,33.087-64.9,73.9h0c0,40.793,29.039,73.874,64.872,73.894h.006a9.053,9.053,0,0,1,7.7,4.6,11.871,11.871,0,0,1,1.009,9.839A142.49,142.49,0,0,0,78.97,226.79c-.57,3.587-3.317,6.192-6.518,6.183h0C32.438,232.973,0,269.908,0,315.468H0c0,45.561,32.438,82.5,72.452,82.5H281.819a64.69,64.69,0,0,0,28.381-6.555,113.268,113.268,0,0,1,49.508-11.791h91.469c63.135.02,114.324-58.254,114.317-130.141h0c0-57.048-32.6-107.441-80.441-124.348Z" transform="translate(1453.079 1645.643)" fill="#004a80"/>
    <rect id="Rectangle_3035" data-name="Rectangle 3035" width="76" height="91" transform="translate(1659.826 1840.914)" fill="#fff"/>
    <g id="Layer_2" data-name="Layer 2" transform="translate(1527.491 1674.22)">
      <g id="Layer_1" data-name="Layer 1" transform="translate(0 0)">
        <g id="Group_3069" data-name="Group 3069" clip-path="url(#clip-path)">
          <path id="Path_4126" data-name="Path 4126" d="M852.045,120.918v-17.65a1.992,1.992,0,0,0,1.844-2.054,13.264,13.264,0,0,0-.823-3.045,3.189,3.189,0,0,0-.276-.888h0c.476,0,2.63-2.567,2.681-3.467a.882.882,0,0,0-.793-.92l-2.357-19.5.052-.028-.074-.151v-.171h-.063l-.155-.314-.144.08-6.668-2.313-.07-.143L797.217,97.784l.026.056L792.1,106.8h-.244v-3.4h-3.33l-3.906-18.358h1.6v-1.13h-1.844l-2.032-9.553h1.475V73.061H782.2a.74.74,0,0,0,.4-.3,1.414,1.414,0,0,0,.044-1.465H843.2v-.131H782.564a1.261,1.261,0,0,0-.243-.251.72.72,0,0,0-.092-.056h60.983v-.131h-61.26a1.169,1.169,0,0,0-1.284.438h-.052v.068a1.309,1.309,0,0,0-.218.8l-.531,1.051h-1.276v1.306h.6L763.26,105.928h0a1.144,1.144,0,0,0-.738.275h-.03v.024a1.37,1.37,0,0,0-.107.1V106.2h-.122v.283a1.378,1.378,0,0,0-.229.764,1.347,1.347,0,0,0,.229.748v41h-4.489v1.421h0v.4h0v1.68h0v.4h0v1.453h0v.4h0v1.222h0v.4h0v1.684h0v.4h0v1.445h0v.4h0v1.226h0v.4h0v1.68h0v.4h0v1.648h4.5v.076h.122v-.076h.107v.076h.118v-.076h.225v.076h.114v-.076h4.4V148.981h-4.4V110.414h.668v-1.943a2.285,2.285,0,0,1,.343-.374h17.154v10.1h0v1.306h0v11.973h0v1.306h0v11.973h0v1.306h0v11.969h0v1.306h0V171.6h0v1.31h0v11.687h0V185.9h0V197.87h0v1.31h0V271.3h0V272.6h0v71.088h0V345h0v19.317h-5.2V352.309H758.658v12.005h-1.435a2.306,2.306,0,0,0-2.213,2.388v7.873a2.306,2.306,0,0,0,2.213,2.388h2.866v1.919h-7.133a3.1,3.1,0,0,0,0,6.186h51.87a3.1,3.1,0,0,0,0-6.186H781.373v-1.919h19.739a2.306,2.306,0,0,0,2.213-2.388v-7.865a2.306,2.306,0,0,0-2.213-2.388H790.482V118.856h4.632l1.844-4.777v-6.488h-3.113v-.76l56.668-32.4-1.575,18.573a.884.884,0,0,0-.476.824c.048.884,2.176,3.368,2.7,3.459a1.548,1.548,0,0,0-.277.9,1.238,1.238,0,0,0,1.081,1.349c.125,0,1.143.661,1.143,1.262a1.46,1.46,0,0,1-1.4,1.509c-.339,0-.881-.537-1.106-.76a3.463,3.463,0,0,0-.535-.135,2.071,2.071,0,0,0,1.062,1.664v17.861h-4.514v1.421h0v.4h0v1.68h0v.4h0v1.644H856.2v-5.557ZM770.873,354.574h2.213v6.035h-2.213Zm11.8-142.016-.5-.342.5-.342Zm6.594,149.95-2.254-1.548,2.254-1.548Zm-2.818-200.1,2.818,1.935v1.99l-2.822,1.935-3.172-2.177v-1.509Zm-3.175,1.405v-3.582l2.611,1.791Zm5.993,32.955-1.4-.963,1.254-.832-.321-.557-1.5.983-.288-.2,2.257-1.548Zm-6.8,8.606.21-.143v.291Zm3.135-3.32-2.323,1.592v-3.184Zm0,6.639-2.323,1.592V207.1Zm3.688-2.52-2.821,1.939-3.172-2.181v-1.115l3.175-2.177,2.818,1.935Zm-5.993-8.291v-.1l3.172-2.177.28.191-3.146,2.086Zm-.6-27.012-.188.127-.162-4.777.369.239Zm.6-4,2.611,1.791-2.611,1.8Zm5.993,16.619-2.257-1.548,2.257-1.548Zm0-3.873-2.821,1.938-3.172-2.181v-1.5l3.172-2.181,2.821,1.935Zm-5.993.533,2.608,1.791-2.608,1.791Zm0-3.057v-3.582L785.9,175.3Zm-.6-3.98v3.375l-.122-3.5Zm-.074,19.106-.428-.295.41-.283Zm.675,1.234,2.611,1.791-2.611,1.791Zm5.993-3.3-2.253-1.544,2.253-1.548Zm0,.776v1.99l-2.821,1.938-3.172-2.177v-1.513l3.175-2.177Zm-5.993-.529v-3.582l2.611,1.791Zm0-5.867,3.172-2.177,2.821,1.935v.346H783.28Zm5.993-7.655-2.272-1.58,2.257-1.548Zm-2.836-1.978-2.906-1.99h5.728v.06Zm-3.172-3.3v-.4l3.172-2.177,2.822,1.935v.629Zm5.993-1.4-2.257-1.552,2.257-1.548Zm0-6.643-2.257-1.548,2.257-1.548Zm-6.594,2.114-.369-.259v-.163l.369-.263Zm-.557,12.2H782.1v-.585Zm.052,1.5.166,4.984-.24.167v-5.195Zm.229,6.795.159,4.681-.461.314v-5.195Zm.229,6.8.048,1.326V197.4l-.579.4v-5.195Zm-.531,6.667.579.4v4.016l-.579.4Zm0,6.64.579.4v4.012l-.579.4Zm0,13.279.579.4v4.406l-.579.4Zm.081-.721.5-.342v.685Zm7.092,51.349-2.165-1.485,2.021-1.341-.07-.123.214-.147Zm0,72.394-2.257-1.548,2.257-1.548Zm-5.993-4.12v-1.509l3.172-2.177,2.822,1.935v1.99l-2.822,1.935Zm2.608,2.567-2.608,1.787v-3.582Zm-3.209-2.981-.5-.342.5-.342Zm.6-7.73,3.172-2.181,2.822,1.939v1.99L786.451,334l-3.172-2.177Zm-.6,1.095-.5-.342.5-.338Zm.6-7.738,3.176-2.177,2.818,1.935v1.99l-2.822,1.934-3.172-2.181Zm-.6,1.1-.5-.342.5-.342Zm.6-7.738,3.176-2.177,2.818,1.934v1.99l-2.818,1.938-3.176-2.181Zm-.6,1.095-.5-.342.5-.338Zm.6-7.734,3.172-2.177,2.822,1.934v1.99l-2.818,1.935L783.28,311.9Zm-.6,1.095-.5-.342.5-.338Zm.6-1.871v-3.582l2.608,1.791Zm2.611,4.848-2.611,1.791v-3.582Zm0,6.643L783.28,322.9v-3.582Zm0,6.64-2.611,1.8v-3.582Zm0,6.639-2.607,1.791v-3.582Zm3.386,1.548-2.257-1.548,2.257-1.548Zm0-6.635-2.257-1.552,2.257-1.548Zm0-6.644-2.257-1.548,2.257-1.548Zm0-6.639-2.257-1.548,2.257-1.548Zm0-6.639-2.261-1.529,2.257-1.548Zm0-3.873-2.825,1.946-3.172-2.177v-1.509l3.176-2.181,2.818,1.935Zm-6.594-.653-.5-.338.5-.342Zm.6-1.867V299.4l2.611,1.791Zm-.634-4.777.033-.024v.044Zm.634-66.829,3.175-2.177,2.818,1.935v1.99l-2.821,1.934-3.172-2.177Zm-.6,1.1-.5-.342.5-.342Zm.6-1.871v-3.582l2.611,1.791Zm2.607,4.844-2.607,1.791v-3.582Zm.564.4,2.822,1.939v1.99l-2.818,1.935-3.175-2.181v-1.509Zm2.822,10.572-2.818,1.934-3.179-2.205v-1.513l3.176-2.177,2.818,1.939Zm0,6.639-2.822,1.935-3.172-2.177v-1.509l3.175-2.181,2.818,1.939Zm0,6.639-2.822,1.935-3.172-2.177v-1.509l3.172-2.177,2.822,1.935Zm0,6.639-2.822,1.935-3.172-2.177v-1.509l3.172-2.177,2.822,1.934Zm-5.993-2.528v-3.582l2.607,1.787Zm0-6.636v-3.582l2.611,1.8Zm0-6.643v-3.582l2.611,1.791Zm-.738-5.366.129-.088v.673l-.11-.076Zm-.026-.756-.159-4.729.313.215v4.382Zm.756-.517V240.31l2.611,1.791Zm-.6-4.777-.343-.231v-.211l.347-.239Zm0,7.416v2.388l-.085-2.444ZM782.177,252.056Zm.229,6.8-.229-.159.221-.151Zm.232,6.795-.461-.318.439-.3Zm3.246,3-2.607,1.791v-3.582Zm-3.242,22.92h.033v.04Zm0-6.64.033-.024v.044Zm0-6.639.033-.024v.044Zm2.777-3.32-2.143,1.473V273.5Zm0,6.639-2.147,1.473v-2.942Zm0,6.639-2.143,1.473V286.75Zm0,6.639-2.143,1.469V293.4Zm3.85-2.647-2.822,1.939-3.172-2.177v-.88l3.175-2.181,2.818,1.939Zm0-6.639-2.818,1.939-3.175-2.177V284.5l3.172-2.177,2.822,1.935Zm0-6.632-2.818,1.931-3.175-2.177v-.9l3.175-2.177,2.818,1.935Zm-2.818-4.709-2.39-1.64h4.776Zm2.818-10.7-2.257-1.548,2.257-1.548Zm0-6.635-2.257-1.548,2.257-1.552Zm0-6.643-2.257-1.548,2.257-1.548Zm0-6.639-2.257-1.548,2.257-1.548Zm0-6.639-2.257-1.548,2.257-1.548Zm0-6.64-2.257-1.544,2.257-1.552Zm0-6.639-2.257-1.548,2.257-1.548Zm0,.776v1.99l-2.818,1.935-3.172-2.181v-1.509l3.172-2.177Zm-6.594,1.341-.5-.342.5-.342Zm.6-1.875v-3.582l2.607,1.787Zm-1.18,2.253.579.4v4.4l-.579.4Zm.579,7.034v4.406l-.369.255v-.362h-.192v-4.7Zm-.579,16.455.055,1.592-.055.04Zm0,3.065.107.072.17,4.944-.277.187Zm0,6.643.339.231.155,4.629-.494.338Zm.568,7.026v4.382l-.579.4v-5.175Zm0,6.643v3.77l-.579.4v-4.586Zm-.579,6.249.579.4v3.77l-.579.4Zm0,6.632.579.4v3.77l-.579.4Zm0,6.643.579.4v3.77l-.579.4Zm0,6.178v-.179l.579.4v4.41l-.579.4Zm0,6.46.579.4v4.406l-.579.4Zm0,6.635.579.4v4.41l-.579.4Zm0,6.644.579.4v4.41l-.579.4Zm0,6.639.579.4v4.41l-.579.4Zm0,6.639.579.4v4.41l-.579.4Zm.579,7.034v4.406l-.579.4v-5.175Zm0,6.639v4.406l-.579.4v-5.226Zm6.594,6.52-2.821,1.934-3.172-2.173v-1.513l3.176-2.177,2.818,1.935Zm-3.382,2.325-2.611,1.787v-3.583Zm-3.212-2.977-.5-.342.5-.342Zm.6-1.875v-3.583l2.611,1.787Zm-1.18,2.253.579.4v4.407l-.579.4Zm.579,5.573v.681l-.483-.378Zm-.424,7.034-.074-.052.5-.342v.4Zm-.155-.772V358.34l.579.4v4.414Zm1.18-4.379,2.611,1.8-2.611,1.791Zm0-.772V356.9l3.172-2.177,2.821,1.934v1.99l-2.818,1.935Zm5.993-2.528L787,354.339l2.257-1.548Zm0-6.64-2.239-1.592,2.254-1.544Zm0-3.869-2.818,1.935-3.176-2.177v-.1h5.993Zm-5.993-1.648v-.1l3.172-2.177,2.821,1.935v.346Zm5.993-40.956L787,301.223l2.257-1.548Zm-2.818-1.934-3.176-2.177v-.872l3.172-2.177,2.821,1.939V298.9Zm2.818-4.705-1.789-1.226,1.789-1.23Zm0-6.639-1.789-1.226,1.789-1.23Zm0-6.639-1.774-1.278,1.789-1.23Zm0-6.64-1.789-1.226,1.789-1.23Zm-5.993-4.88v-.108l3.253-2.161,2.74,1.883v.342Zm5.993-54.234L787,215.555,789.258,214Zm0,.776v1.99l-2.821,1.935-3.172-2.177v-1.509l3.176-2.177Zm-5.993-.529v-3.582l2.611,1.791Zm-.6.4-.579.4V212.92l.579.4Zm6.594-7.69-1.951-1.369,1.966-1.349Zm0-6.639-1.969-1.353,1.969-1.353Zm0-3.869-2.818,1.935-3.176-2.181v-.119h5.993Zm-4.529-1.656,2.556-1.7,1.973,1.353v.342Zm4.529-11.627L786.44,188.2l-3.176-2.177v-.1h5.993Zm0-26.554-2.818,1.934-3.176-2.181v-.1h5.993Zm-25.411-53.641L779.632,74.39l.568.43.3-.454h.634V83.92H779.61v1.13h1.523v16.185h-2.541v1.306h2.541v.868H765.4v3.4h-.955A1.3,1.3,0,0,0,763.847,106.067Zm20.79-15.245-1.973-1.373-.118-3.535,1.232.872Zm2.67,12.574h-4.182l-.026-.86h4.02ZM783.276,118.2v-.1l3.175-2.181,1.807,1.242V118.2Zm0-6.066,2.187-1.453,2.8,1.962V113.9l-1.807,1.242-3.175-2.177Zm-.6.4ZM782.1,94.4l.133.084.136,3.981-.269-.183Zm0-.76V90.571L782.2,93.7Zm0,5.413.3.207.066,1.954h-.369Zm.911.633,2.213,1.529h-2.154Zm-.494,2.854.022.669-.428-.291v-.378Zm5.757,9.33-2.213-1.56,2.213-1.477ZM783.25,106.8l-.059-1.684h1l.8.541V106.8Zm-.081-2.388.443.3h-.432v-.227Zm2.176,1.481,1.313.9h-1.313Zm0-.772h1.811v1.25Zm0-.4v-.673h1.811v.661Zm-.369,0h-.24l-.959-.673h1.21Zm-1.708,3.383H788.2l-2.733,1.811-2.195-1.54Zm1.626,2.189-1.626,1.079v-2.217Zm3.356,4.379v1.716L787,115.529Zm-2.372.856-2.611,1.8v-3.582Zm3.386-8.757-.369-1.684h.417v1.684Zm-1.243,0h-.236l-.277-.191v-1.493h.166Zm-.513-2.078v-.346l.074.346Zm-1.169-3.487-3.367-2.325-.125-3.988,3.072,1.954.933,4.379Zm-3.53-7.113-.129-3.873,2.139,1.493.9,4.231Zm-17.05,9.951h1.811v.661h-1.811Zm2.172,0h1.818v.661h-1.807Zm2.176,0h1.814v.661h-1.8Zm2.176,0H774.1v.661h-1.8Zm2.176,0h1.815v.661h-1.8Zm2.176,0h1.818v.661h-1.807ZM765.761,105.1h1.811v1.684h-1.811Zm2.172,0h1.818v1.684h-1.807Zm2.176,0h1.815v1.684h-1.8Zm2.176,0H774.1v1.684h-1.8Zm2.176,0h1.814v1.684h-1.8Zm2.176,0h1.818v1.684h-1.807Zm2.172,0h1.815v1.684h-1.8Zm0-.4v-.653h1.815v.661Zm2.176-.661h.136v.661h-.136Zm1.106,0h.457l.022.661h-.479Zm.494,1.055.055,1.684h-.55v-1.684Zm.085,3.614v3.041l-.579.4v-3.829Zm0,4.605v4.41l-.579.4v-5.187Zm0,6.639v4.41l-.579.4v-5.191Zm.6,11.408,3.175-2.181,2.818,1.939v.346H783.28Zm0-.772V127l2.611,1.791Zm5.993-.247-2.257-1.548,2.257-1.548Zm0-6.639-2.253-1.544,2.253-1.548Zm0,.772v1.99l-2.818,1.935-3.175-2.177v-1.477l3.175-2.177Zm-6.594,1.341-.5-.338.5-.342Zm.6-1.867v-3.582l2.611,1.8Zm-.6,2.643V131l-.579.4v-5.187Zm0,6.639v4.406l-.579.4v-5.183Zm.609,11.416,3.176-2.177,2.818,1.931v.35H783.28Zm0-.772v-3.582l2.611,1.791Zm5.993-.247-2.257-1.548,2.257-1.548Zm0-6.639-2.257-1.548,2.257-1.548Zm0,.8v1.99l-2.818,1.935-3.176-2.177v-1.509l3.172-2.181Zm-6.594,1.337-.5-.342.5-.342Zm.6-1.871v-3.582l2.608,1.791Zm-.6,2.647v4.41l-.579.4v-5.214Zm0,6.64v4.4l-.579.4v-5.207Zm.6,11.4,3.176-2.177,2.818,1.935v.346H783.28Zm0-.772v-3.582l2.611,1.8Zm5.993-.243-2.257-1.548,2.257-1.548Zm0-6.639-2.257-1.548,2.257-1.548Zm0,.8v1.99L786.455,155l-3.176-2.181v-1.521l3.172-2.177Zm-6.594,1.333-.5-.342.5-.338Zm.6-1.867v-3.582l2.608,1.791Zm-.6,2.639v4.41l-.579.4v-5.23Zm6.594-6.767-2.822,1.938-3.172-2.177v-.1h5.993Zm0-13.275-2.822,1.935L783.28,132.9v-.1h5.993Zm0-13.275-2.818,1.935-3.176-2.181v-.1h5.993Zm54.5-47.03-.959-.354.612-.35Zm.214-1.023.62-.354-.273,1.059Zm.059,1.843-.863,3.383-3.076-1.13.561-2.2,1.376-.8Zm-4.426,1.532-.306-.7.609-.346Zm-.55.346-.981-.362.631-.358Zm.254.8-.859,3.375-3.083-1.13.561-2.193,1.379-.8Zm-4.426,1.509-.336-.681.594-.342Zm-.539.366-.948-.342.634-.366Zm.24.8-.819,3.411-3.072-1.13.557-2.193,1.379-.8Zm-4.363,1.552-.332-.677.59-.338Zm-.531.4-1-.4.642-.366Zm.229.8-.863,3.383L826,84.007l.557-2.2,1.376-.8Zm-4.4,1.489-.324-.669.579-.33Zm-.516.4L824,83.267l.653-.374Zm.21.8-.859,3.379-3.08-1.13.557-2.2,1.379-.8Zm-4.4,1.469-.321-.653.572-.326Zm-.509.426-1.033-.4.664-.4Zm.2.8-.859,3.383-3.076-1.13.561-2.2,1.376-.8Zm-4.389,1.457-.314-.645.561-.322Zm-.5.446-1.047-.4.671-.4Zm.184.8-.859,3.383-3.083-1.134.561-2.193,1.379-.8Zm-4.385,1.433-.31-.629.55-.314Zm-.483.446-1.07-.4.682-.4Zm.162.8-.859,3.379-3.076-1.13.561-2.2,1.376-.8Zm-4.378,1.421-.306-.621.542-.311Zm-.479.49-1.077-.4.69-.4Zm.155.8-.859,3.379-3.08-1.134.557-2.193,1.379-.8Zm-4.378,1.4-.3-.605.531-.3Zm-.461.517-1.107-.4.7-.4Zm.133.772-1.106,4.279-7.576,4.331,4.706-8.224,1.962-1.122Zm.513.549,1.077,2.2-1.914,1.095Zm.66-.119,2.5.923-.059.235-1.475.836Zm3.271.482.771-3.029,1.069,2.181-1.623.927Zm1.416-3.184,2.519.927-.063.239-1.475.84Zm3.282.486.771-3.017,1.066,2.173-1.615.924Zm1.409-3.184,2.534.931-.059.231-1.475.852Zm3.319.49.763-3,1.059,2.157-1.608.92Zm1.387-3.184,2.548.935-.059.239-1.494.856Zm3.319.5.738-2.981,1.059,2.149-1.6.912Zm1.372-3.184,2.582.943-.059.235-1.508.864Zm3.319.5.738-2.962,1.051,2.138-1.579.9Zm1.357-3.184,2.582.947-.059.235-1.516.864Zm3.341.509.738-2.954,1.044,2.13-1.578.9Zm1.343-3.212,2.582.955-.063.243-1.52.868Zm3.363.514.738-2.934,1.04,2.126-1.564.892Zm1.328-3.184,2.611.959-.063.239-1.527.824Zm3.378.517.738-2.914,1.029,2.11-1.542.832Zm1.313-3.208,2.619.963-.059.239-1.542.88Zm3.386.521.738-2.9,1.029,2.1L844,77.4Zm1.3-3.22,2.855,1.051L846.1,76.193Zm-.273-.82.509-1.99,5.842,2.03-2.456,1.4ZM789.7,106.8v-1.684h1.811V106.8Zm1.811-2.739v.661H789.7v-.673Zm-2.172,0v.661h-.5l-.14-.661Zm-6.856-20.141-.133-3.857.823,3.857ZM780.3,73.061l.24-.486a1.665,1.665,0,0,0,.118.211l-.181.275Zm.125-.828a1.868,1.868,0,0,0,.052.2l-.313.633h-.155Zm-1.077,2.134h.166l-15.767,31.641a1.222,1.222,0,0,0-.339-.088ZM762.4,148.981V108.129a.917.917,0,0,0,.107.1v40.748Zm.225,0V108.324a1.39,1.39,0,0,0,.225.123v40.534ZM781,106.788V105.1h.136v1.684ZM782.1,159.4l.579.4v4.41l-.579.4v-5.2Zm1.18,204.9v-.8l3.175-2.177,2.818,1.934v1.051Zm5.993-151.12-2.818,1.935-3.175-2.177v-1.5l3.175-2.181,2.818,1.935v1.99Zm6.753-99.115h-2.751V109.1h2.751ZM849.876,92.9h-.535a.816.816,0,0,0-.258.044l1.578-18.589,1.564-.9L854.571,92.9Zm1.387,28.027V103.133a1.752,1.752,0,0,0,.664.147v17.646Z" transform="translate(-473.448 -42.347)" fill="#05213a"/>
          <path id="Path_4127" data-name="Path 4127" d="M426.543,329.167h3.4V326.58h-3.4V308.091h3.4V305.5h-3.4V286.775h3.4v-2.587h-3.4v-18.47h3.4v-2.587h-3.4V244.645h3.4v-2.587h-3.4v-6.4h-1.73v6.4H410.157V223.573H429.94v-2.587H410.157V200h-3.662v21h-6.841V200.816h-3.88v20.169H384.506V202.11h-1.737v18.876h-16.6V200h-1.94v21H348.72v2.587h15.523v18.485H350.66v-6.341h-1.94V341.121H342.9v91.193H441V341.121H426.543Zm-1.73-2.587h-1.94V308.091h1.94Zm-25.164-13.6v10.107h-3.876v-10.11Zm-8.619,0v13.2h-5.661v-13.2Zm4.739-19.166h3.88v8.61h-3.876ZM384.5,284.208v-18.49h11.267V284.2Zm-1.726,0h-3.4v-18.49h3.389Zm2.582,21.3V292.32h5.665V305.5Zm14.284-21.3v-18.49h6.841V284.2Zm0-21.073V244.645h6.841v18.485Zm-3.88,0H384.506V244.645h11.267Zm-12.993,0h-3.4V244.645h3.4Zm-7.277,0h-9.32V244.645H375.5Zm0,2.587v18.486h-9.32v-18.49Zm-13.2,26.6h3.88v10.1H362.3Zm0,20.659h3.88v10.107H362.3Zm62.521-7.479h-1.94V286.775h1.94Zm0-21.3H410.157V265.718h14.657Zm0-39.558v18.485H410.157V244.645Zm-18.323-21.073v18.485h-6.838V223.573Zm-10.721,0v18.485H384.506V223.573Zm-29.59,0h16.6v18.485h-3.4v-7.877H375.5v7.877h-9.331Zm-15.523,21.073H364.24v18.485H350.66Zm0,21.073H364.24V284.2H350.66Zm0,21.073H354.1V305.5h-3.448Zm0,21.3H354.1V326.58h-3.448Zm0,33.038V329.187H354.1v11.941Zm15.516,85.27H362.3V416.293h3.869Zm0-20.663H362.3V395.63h3.869Zm0-20.643H362.3V374.967h3.869Zm0-20.7H362.3V354.3h3.869Zm0-20.663H362.3V333.642h3.869Zm24.851,85.732h-5.654V416.293h5.665Zm0-20.663h-5.654V395.63h5.665Zm0-20.663h-5.654V374.967h5.665Zm0-20.663h-5.654V354.3h5.665Zm0-20.663h-5.654V333.642h5.665Zm8.619,79.57h-3.869V416.293h3.88Zm0-20.663h-3.869V395.63h3.88Zm0-20.663h-3.869V374.967h3.88Zm0-20.663h-3.869V354.3h3.88Zm0-20.663h-3.869V333.642h3.88Zm23.235-14.581h1.936v11.941h-1.94Zm6.513,28.094h3.884V362.3H429.39Zm0,20.663h3.884v5.055H429.39Zm0,20.663h3.884v5.051H429.39Zm0,20.663h3.884V424.3H429.39Z" transform="translate(-216.434 -120.39)" fill="#05213a"/>
          <path id="Path_4128" data-name="Path 4128" d="M357.98,544.245,371.5,536.5l10.187-.155V538.6H607.308v72.262H357.98Z" transform="translate(-216.519 -294.847)" fill="#031321"/>
          <rect id="Rectangle_2318" data-name="Rectangle 2318" width="138.039" height="173.391" transform="translate(390.483 419.724) rotate(180)" fill="#05182d"/>
          <rect id="Rectangle_2319" data-name="Rectangle 2319" width="9.095" height="104.616" transform="translate(379.334 270.428) rotate(180)" fill="#05182d"/>
          <rect id="Rectangle_2320" data-name="Rectangle 2320" width="2.81" height="152.796" transform="translate(360.997 295.206) rotate(180)" fill="#05182d"/>
          <rect id="Rectangle_2321" data-name="Rectangle 2321" width="6.543" height="152.796" transform="translate(351.954 294.518) rotate(180)" fill="#05182d"/>
          <rect id="Rectangle_2322" data-name="Rectangle 2322" width="4.23" height="66.944" transform="translate(303.274 295.206) rotate(180)" fill="#05182d"/>
          <rect id="Rectangle_2323" data-name="Rectangle 2323" width="9.589" height="83.348" transform="translate(285.239 303.908) rotate(180)" fill="#05182d"/>
          <rect id="Rectangle_2324" data-name="Rectangle 2324" width="3.755" height="75.65" transform="translate(265.707 307.928) rotate(180)" fill="#05182d"/>
          <rect id="Rectangle_2325" data-name="Rectangle 2325" width="133.831" height="173.419" transform="translate(280.445 419.724) rotate(180)" fill="#05182d"/>
          <rect id="Rectangle_2326" data-name="Rectangle 2326" width="41.801" height="178.076" transform="translate(154.986 419.724) rotate(180)" fill="#05182d"/>
          <rect id="Rectangle_2327" data-name="Rectangle 2327" width="116.814" height="128.535" transform="translate(126.248 419.725) rotate(180)" fill="#05182d"/>
          <rect id="Rectangle_2328" data-name="Rectangle 2328" width="14.557" height="161.835" transform="translate(79.969 310.977) rotate(180)" fill="#05182d"/>
          <rect id="Rectangle_2329" data-name="Rectangle 2329" width="8.582" height="123.563" transform="translate(49.365 317.043) rotate(180)" fill="#05182d"/>
          <rect id="Rectangle_2330" data-name="Rectangle 2330" width="5.971" height="165.255" transform="translate(25.481 330.689) rotate(180)" fill="#05182d"/>
        </g>
        <path id="Path_4129" data-name="Path 4129" d="M181.457,118.012H72.06a29.464,29.464,0,0,1,29.08-4.154c17.08,6.463,23.078-12,41.542-4.619S170.84,104.148,181.457,118.012Z" transform="translate(-43.417 -64.749)" fill="#13365b"/>
        <path id="Path_4130" data-name="Path 4130" d="M1000.248,257.526H940.7s3.232-7.846,17.541-4.615S979.936,240.446,1000.248,257.526Z" transform="translate(-598.234 -150.137)" fill="#13365b"/>
        <path id="Path_4131" data-name="Path 4131" d="M639.86,276.707l9.679-13.817,4.965.58-9.6,17.537Z" transform="translate(-395.101 -130.261)" fill="#ffc09e"/>
        <path id="Path_4132" data-name="Path 4132" d="M648.153,281.407,647.08,282.9l6.865-.211,1.737-2.727Z" transform="translate(-399.383 -140.522)" fill="#e7886b"/>
        <rect id="Rectangle_2332" data-name="Rectangle 2332" width="184.622" height="5.879" rx="2.26" transform="matrix(0.992, -0.129, 0.129, 0.992, 146.246, 147.882)" fill="#02111e"/>
        <rect id="Rectangle_2333" data-name="Rectangle 2333" width="187.11" height="5.879" rx="2.66" transform="matrix(0.992, -0.129, 0.129, 0.992, 145.205, 149.081)" fill="#7ea3bf"/>
        <path id="Path_4133" data-name="Path 4133" d="M689.93,338.737a.851.851,0,0,0,1.117.8l.866-.5s1.033.747,1.7.457l.795-.25s.576.342,1.073-.592Z" transform="translate(-435.731 -203.851)" fill="#05182d"/>
        <path id="Path_4134" data-name="Path 4134" d="M662.24,341.09l-1.157,1.928a1.2,1.2,0,0,1-.5,1.876l-.664.056-1.324,2.7-2.039.33,3.255-6.507Z" transform="translate(-414.661 -205.325)" fill="#05182d"/>
        <path id="Path_4135" data-name="Path 4135" d="M646.674,325.542l.028-.052h0a6.889,6.889,0,1,0-13.32-1.483h0l.139,5.032-1.471,4.217,7.6,2.675.962-2.782c.334.2-.187,0,.207.032a2.7,2.7,0,0,0,2.731-1.459l1.049-2.083a1.018,1.018,0,0,0,.632-.024.989.989,0,0,0,.628-.831.978.978,0,0,0-.4-.878l.5-.986A7.1,7.1,0,0,0,646.674,325.542Z" transform="translate(-399.591 -190.399)" fill="#ffc09e"/>
        <path id="Path_4136" data-name="Path 4136" d="M644.567,330.466a.576.576,0,0,0-.843.032.588.588,0,0,0-.091.6.574.574,0,0,0,.087.147.521.521,0,0,1,.115.362.488.488,0,0,0,0,.076.326.326,0,0,0,.258.262.334.334,0,0,0,.4-.326v-.04a.513.513,0,0,1,.111-.358.6.6,0,0,0,.1-.254A.576.576,0,0,0,644.567,330.466Z" transform="translate(-406.273 -198.824)" fill="#e7886b"/>
        <path id="Path_4137" data-name="Path 4137" d="M656.14,328.74s.552,1.157,1.379,1.435a38.381,38.381,0,0,1,3.86,2.2,5.206,5.206,0,0,0,.334-2.095Z" transform="translate(-414.393 -197.888)" fill="#e7886b"/>
        <path id="Path_4138" data-name="Path 4138" d="M644.611,352.8l-4.273-1.94a2.425,2.425,0,0,1-1.145-1.085l-.513-.986,1.28,5.43,3.693,1.371Z" transform="translate(-403.38 -209.96)" fill="#e7886b"/>
        <path id="Path_4139" data-name="Path 4139" d="M634.558,324.537l.207,1.284a2.417,2.417,0,0,0,2.27-1.86l.207-2.488a1.765,1.765,0,0,1,1.892-1.638h.044a1.24,1.24,0,0,1,1.037,1.479l-.342,1.681.552-.1a.827.827,0,0,0,.592-.433l.318-.58a2.719,2.719,0,0,1,2.011-1.391l.541-.076a3.322,3.322,0,0,0,1.773-.831h0a.8.8,0,0,1,1.01-.064l1.7,1.192a7.779,7.779,0,0,0-2.385-4.6c-1.817-1.59-8.5-2.707-10.879,3.3a9.728,9.728,0,0,0-.549,5.124Z" transform="translate(-401.047 -189.533)" fill="#001e49"/>
        <g id="Group_3070" data-name="Group 3070" transform="translate(235.213 131.227)">
          <path id="Path_4140" data-name="Path 4140" d="M642.738,330.853l-.946,2.941a3.209,3.209,0,0,1-.771,1.268l-1.924,1.932a.664.664,0,0,0-.147.712,3.179,3.179,0,0,0,1.093,1.491l4.337,2.067s2.19.4,2.922-.719l1.427-2.806a12.921,12.921,0,0,0-3.029-.668,12.09,12.09,0,0,1-1.53-.044,1.006,1.006,0,0,1-.922-1.117l.453-3.9.123-2.309Z" transform="translate(-638.904 -329.7)" fill="#b78f7d"/>
        </g>
        <path id="Path_4141" data-name="Path 4141" d="M654.927,351.43s-.568,1.192.763,1.232Z" transform="translate(-413.344 -211.544)" fill="#fff"/>
        <path id="Path_4142" data-name="Path 4142" d="M645.011,322.887l-.831-.028a1.539,1.539,0,0,1-.552-.08l-1.789-.572a1.367,1.367,0,0,0-.747.028l-1.387.433a1.014,1.014,0,0,1-.795,0l-2.719-.978a.3.3,0,0,1-.246-.346h0a4.185,4.185,0,0,1,.29-1.558l5.791-.477Z" transform="translate(-401.785 -192.211)" fill="#ffe8df"/>
        <path id="Path_4143" data-name="Path 4143" d="M659.581,309.08l.342-.672a.552.552,0,0,0-.151-.652,23.936,23.936,0,0,0-2.783-2.182,7.71,7.71,0,0,0-3.2-.886,2.111,2.111,0,0,0-1.053.119l-.863.191Z" transform="translate(-411.807 -183.398)" fill="#e44901"/>
        <path id="Path_4144" data-name="Path 4144" d="M652.508,318.182a.294.294,0,0,1,.04.417.3.3,0,0,1-.163.1,1.873,1.873,0,0,1-.827-.028c-.537-.191-5.672-3.021-6.865-3.665l-.4-.4-.727-1.049a1.348,1.348,0,0,0-.8-.608l-1.793-.664a1.59,1.59,0,0,0-1.077-.02l-.89.235a1,1,0,0,1-.8,0l-2.528-1.085.858-.795s1.626-4.094,5.533-5.267a4,4,0,0,1,3.009.4l2.15,1.192a6.358,6.358,0,0,1,2.385,2.186,8.293,8.293,0,0,1,1.292,2.782c.131,1.121-.032,4.77-.032,4.77Z" transform="translate(-401.976 -183.743)" fill="#ec6625"/>
        <path id="Path_4145" data-name="Path 4145" d="M665.049,330.234s.676,1.562-5.859-2.484C659.19,327.73,666.1,332.46,665.049,330.234Z" transform="translate(-416.335 -197.291)" fill="#e44901"/>
        <path id="Path_4146" data-name="Path 4146" d="M655.2,366.34l6.388.7a3,3,0,0,1,2.671,3.025h0a3,3,0,0,1-3.1,2.957l-6.618-.227Z" transform="translate(-413.566 -220.525)" fill="#ffc09e"/>
        <path id="Path_4147" data-name="Path 4147" d="M658.778,366.61l.6.111a7.853,7.853,0,0,1,.882,6.4l-1.765-.163Z" transform="translate(-415.73 -220.687)" fill="#e7886b"/>
        <path id="Path_4148" data-name="Path 4148" d="M666.27,367.72a1.284,1.284,0,0,1,.882,1.324Z" transform="translate(-420.581 -221.35)" fill="#e7886b"/>
        <path id="Path_4149" data-name="Path 4149" d="M643.52,362.17l6.7,1.658s2.234,3.72.163,6.948Z" transform="translate(-406.516 -218.016)" fill="#ffe8df"/>
        <path id="Path_4150" data-name="Path 4150" d="M651,363.84l1.324,3.641,3.311,5.291A14.448,14.448,0,0,0,651,363.84Z" transform="translate(-411.104 -219.022)" fill="#ec6625"/>
        <path id="Path_4151" data-name="Path 4151" d="M560.228,587.19h0a.768.768,0,0,0-.4.231h0A.768.768,0,0,1,560.228,587.19Z" transform="translate(-353.373 -353.459)" fill="#fff3ec"/>
        <path id="Path_4152" data-name="Path 4152" d="M573.544,595.583a.737.737,0,0,0,0-.091l-.143-.477a.23.23,0,0,0-.1-.171h0a4.616,4.616,0,0,0-1.34.564,7.441,7.441,0,0,0-1.153.994l-.795.286a1.07,1.07,0,0,1-.521.1l-1.745-.083-1.371-.366a1.691,1.691,0,0,1-.795-.489l-3.076-3.387a2.473,2.473,0,0,1-.453-.668,6.38,6.38,0,0,0-.529-1.22l-2.385-3.148-.068-.246h-.187a.766.766,0,0,0-.4.23l-.751.8a.481.481,0,0,0,0,.648l3.414,3.645a.7.7,0,0,0,.373.175.306.306,0,0,1,.346.143c.485.533,2.119,2.385,3.494,3.9a1.455,1.455,0,0,0,.8.449l1.4.278c1.228.06,2.23.1,2.484.072a11.5,11.5,0,0,0,3.18-1.447A.477.477,0,0,0,573.544,595.583Z" transform="translate(-352.566 -353.469)" fill="#fff3ec"/>
        <path id="Path_4153" data-name="Path 4153" d="M575.05,586.527c-.155-.795-1.157-.668-1.157-.668l-2.433-.175a.867.867,0,0,1-.4-.139h0a.835.835,0,0,1-.378-.692l-.06-4.579a1.283,1.283,0,0,1,.346-.938l1.109-1.193-4.07-4.464-3.577,3.073a9.1,9.1,0,0,0-2.107.954,10.381,10.381,0,0,0-1.141,1.149.564.564,0,0,1-.425.195h.183l.068.246,2.385,3.148a6.389,6.389,0,0,1,.529,1.22,2.477,2.477,0,0,0,.453.668l3.74,4.118,1.363.119,1.888.087a1.068,1.068,0,0,0,.521-.1l.795-.286a7.423,7.423,0,0,1,1.153-.994,4.622,4.622,0,0,1,1.34-.564C575.1,586.67,575.1,586.626,575.05,586.527Z" transform="translate(-354.495 -345.35)" fill="#00050a"/>
        <path id="Path_4154" data-name="Path 4154" d="M636.891,444.08s-3.816,21.953-7.8,34.609a6.67,6.67,0,0,1-9.421,3.911h0a6.682,6.682,0,0,1-3.577-6.722L619.02,451.2l.827-7.445Z" transform="translate(-389.727 -267.172)" fill="#ec6625"/>
        <path id="Path_4155" data-name="Path 4155" d="M622.447,452.993l-1.49,2.317-1.157,7.278,11.925,13.566s6.948-28.949,7.445-34.741l-14.556-.994Z" transform="translate(-392.037 -265.161)" fill="#e44901"/>
        <path id="Path_4156" data-name="Path 4156" d="M589.887,522.83,572.35,544.338s1.821,3.8,3.307,4.961,5.625,3.808,5.625,3.808l20.343-24.644Z" transform="translate(-362.442 -314.766)" fill="#ec6625"/>
        <path id="Path_4157" data-name="Path 4157" d="M633.38,351.56l-.58,1.284s7.155,4.257,7.552,4.921l1.491,2.15-1.093-2.782a1.59,1.59,0,0,0-1.141-.974h0a4.292,4.292,0,0,1-1.761-.847Z" transform="translate(-399.8 -211.629)" fill="#ffe8df"/>
        <path id="Path_4158" data-name="Path 4158" d="M616.356,441.735l-.246,3.228s-2.234,4.714.246,11.165a33.122,33.122,0,0,0,7.2,10.919l5.2,7.878a7.326,7.326,0,0,0,8.184,2.993h0a7.326,7.326,0,0,0,4.826-9.508l-9.778-27.18Z" transform="translate(-389.464 -265.65)" fill="#ec6625"/>
        <path id="Path_4159" data-name="Path 4159" d="M617.59,442.043l-.08,2.385a22.8,22.8,0,0,0,9.015,1.24c4.3-.5,9.1-1.324,9.1-1.324l2.647-3.975Z" transform="translate(-390.65 -265.087)" fill="#e44901"/>
        <path id="Path_4160" data-name="Path 4160" d="M621.068,353.6l6.042,3.788s3.311,3.363,3.975,5.346,3.641,14.393,3.641,18.861v4.468a6.442,6.442,0,0,1,.33,2.15,4.31,4.31,0,0,1-1.093,1.129,3.085,3.085,0,0,1-1.936.7l-16.551.143a2.409,2.409,0,0,1-2.421-1.987,1.464,1.464,0,0,1,0-.473c.072-.35.171-.795.262-1.192a1.459,1.459,0,0,0-.29-1.24,7.583,7.583,0,0,1-.962-2.047c-.739-2.083-.747-11.813-.7-16.695a13.55,13.55,0,0,1,1.192-5.489c.565-1.248,1.868-3.844,2.7-5.493a6.979,6.979,0,0,1,2.337-2.647,7.146,7.146,0,0,1,2.842-1.348h0a1.61,1.61,0,0,0,.628,2.027Z" transform="translate(-386.886 -211.671)" fill="#ec6625"/>
        <path id="Path_4161" data-name="Path 4161" d="M612,416.4l2.512.755a4.681,4.681,0,0,0,1.626.191l7-.4,6.1-.656a4.678,4.678,0,0,0,1.987-.688l3.18-1.964a31.779,31.779,0,0,1,.552,4.3l-1.836,1.542a4.392,4.392,0,0,1-2.111.966c-2.17.354-6.67,1.073-8.073,1.24-1.514.179-5.676.211-7.234.219a4.157,4.157,0,0,1-1.169-.155l-1.856-.5a5.638,5.638,0,0,1-.66-2.425Z" transform="translate(-387.263 -248.999)" fill="#f58a02"/>
        <path id="Path_4162" data-name="Path 4162" d="M624.188,402.857l-.557,6.01a6.049,6.049,0,0,0,.227,2.278l2.313,7.815,4.853.334-4.19-10.7.9-9.373Z" transform="translate(-393.923 -240.333)" fill="#e44901"/>
        <path id="Path_4163" data-name="Path 4163" d="M626.531,371.68a2.508,2.508,0,0,0-2.969.735c-1.359,1.7-3.236,4.8-2.584,8.427a7.524,7.524,0,0,0,4.205,5.692,5.139,5.139,0,0,0,2.993.449c1.765-.266,4.865-.942,5.485-2.5C634.488,382.412,634.445,375.21,626.531,371.68Z" transform="translate(-392.424 -223.622)" fill="#ffe8df"/>
        <path id="Path_4164" data-name="Path 4164" d="M644.035,388.4s.938,5.4.167,8.049l-1.932.537Z" transform="translate(-405.488 -233.806)" fill="#f9c4aa"/>
        <path id="Path_4165" data-name="Path 4165" d="M623.809,393.07l-.731,11.066a3.9,3.9,0,0,0,3.868,4.158h0a3.9,3.9,0,0,0,3.927-3.665l.624-10.374Z" transform="translate(-393.626 -236.625)" fill="#ffc09e"/>
        <path id="Path_4166" data-name="Path 4166" d="M598.071,339.82l-.111,1.435h7.831l.278-1.435Z" transform="translate(-368.33 -176.553)" fill="#e7886b"/>
        <path id="Path_4167" data-name="Path 4167" d="M605.99,349.95l5.847,19.3-5.517,1.435-7.389-18.42Z" transform="translate(-369.15 -182.674)" fill="#ffc09e"/>
        <path id="Path_4168" data-name="Path 4168" d="M637.28,422.436a1.463,1.463,0,0,1,1.765-.608A7.728,7.728,0,0,0,637.28,422.436Z" transform="translate(-402.318 -253.863)" fill="#e7886b"/>
        <path id="Path_4169" data-name="Path 4169" d="M621.764,379.526,621.18,390l9.707.552.556-10.41a4.309,4.309,0,0,0-2.182-3.975,4.958,4.958,0,0,0-5.994.334A4.25,4.25,0,0,0,621.764,379.526Z" transform="translate(-392.511 -225.936)" fill="#ffe8df"/>
        <path id="Path_4170" data-name="Path 4170" d="M685.395,331.209a.879.879,0,0,0,.7.592l1.614-.246-.06.159a.7.7,0,0,0,.33.867h0a.688.688,0,0,0,.652,0l.064-.032.58.155a1.193,1.193,0,0,0,.894-.119h0l.616.163a.759.759,0,0,0,.859-.374h0l.143.028a.97.97,0,0,0,.926-.322l.584-.688a.8.8,0,0,0-.211-1.224,1.366,1.366,0,0,0-.4-.147c-.771-.179-.246-.847-1.4-1.232s-1.021-1.264-2.075-.982-1.336-.457-2.035.4l-1.642,2.25A.891.891,0,0,0,685.395,331.209Z" transform="translate(-432.968 -197.294)" fill="#ffe8df"/>
        <path id="Path_4171" data-name="Path 4171" d="M687.47,333.619s1.228-.107,1.59.56C689.052,334.179,688.945,333.019,687.47,333.619Z" transform="translate(-433.995 -200.719)" fill="#f9c4aa"/>
        <path id="Path_4172" data-name="Path 4172" d="M691.27,333.6l.795-2.456A8.389,8.389,0,0,0,691.27,333.6Z" transform="translate(-436.358 -199.332)" fill="#f9c4aa"/>
        <path id="Path_4173" data-name="Path 4173" d="M694.36,335.9l.8-1.757S694.817,335.794,694.36,335.9Z" transform="translate(-438.308 -201.137)" fill="#f9c4aa"/>
        <path id="Path_4174" data-name="Path 4174" d="M697.81,337.174l.7-1.264S698.283,336.963,697.81,337.174Z" transform="translate(-440.482 -202.202)" fill="#f9c4aa"/>
        <path id="Path_4175" data-name="Path 4175" d="M701.43,337.108l.668-1.018S701.995,336.933,701.43,337.108Z" transform="translate(-442.765 -202.31)" fill="#f9c4aa"/>
        <path id="Path_4176" data-name="Path 4176" d="M671.9,587.6l.088,1.614a1.268,1.268,0,0,0,.445.894l4.249,3.935a1.84,1.84,0,0,0,1.256.545l3.029.135s1-.143,1.193.636c.048.084.052.127.139.167h0a.211.211,0,0,1,.1.171l.155.469a.477.477,0,0,1-.27.584,11.755,11.755,0,0,1-3.156,1.534c-.7.08-6.968-.135-8.2-.151a.306.306,0,0,0-.342.147h0a.688.688,0,0,1-.4.155l-4.992-.02a.477.477,0,0,1-.461-.457l-.064-1.089a.764.764,0,0,1,.107-.445h0a.572.572,0,0,0,.151-.445,10,10,0,0,1-.048-1.618,8.646,8.646,0,0,1,.755-2.186l.219-4.7Z" transform="translate(-420.352 -353.651)" fill="#00050a"/>
        <path id="Path_4177" data-name="Path 4177" d="M664.9,608.451l.227.119,3.919.437a6.37,6.37,0,0,1,1.252.457,2.582,2.582,0,0,0,.8.131l7.453.151a1.1,1.1,0,0,0,.517-.115l.771-.306a7.437,7.437,0,0,1,1.125-1.026,4.572,4.572,0,0,1,1.336-.6h0a.207.207,0,0,1,.1.167l.155.473a.477.477,0,0,1-.27.584,11.757,11.757,0,0,1-3.156,1.534c-.7.079-6.968-.135-8.2-.155a.314.314,0,0,0-.342.151.687.687,0,0,1-.4.155L665.2,610.6a.477.477,0,0,1-.461-.457l-.064-1.089a.764.764,0,0,1,.107-.445Z" transform="translate(-420.351 -365.809)" fill="#fff3ec"/>
        <path id="Path_4178" data-name="Path 4178" d="M648.1,517l6.284,32.924s4.8,1.654,7.779.33l3.975-1.487-4.3-32.594Z" transform="translate(-409.875 -310.765)" fill="#ec6625"/>
        <path id="Path_4179" data-name="Path 4179" d="M646.074,463.17l-5.9,1.713.195.433a1.519,1.519,0,0,1,.071,1.049,3.18,3.18,0,0,0-.155,1.272c.111.771.608,3.8.608,3.8l-.167,1.435-.847,1.61a.712.712,0,0,0,.6,1.042h.139s.441.938,1.272.608c0,0,.493.99,1.375.6l.994-.6a.867.867,0,0,0,1.105.219,4.865,4.865,0,0,0,1.045-.938l.616-.521a1.491,1.491,0,0,0,.521-1.057l.3-6.141a5.91,5.91,0,0,0-.99-2.6,1.668,1.668,0,0,1-.4-.68Z" transform="translate(-404.176 -278.822)" fill="#ffe8df"/>
        <path id="Path_4180" data-name="Path 4180" d="M648.879,467.566l-4.309,1.157S647.726,467.26,648.879,467.566Z" transform="translate(-407.029 -281.427)" fill="#f9c4aa"/>
        <path id="Path_4181" data-name="Path 4181" d="M642.69,490.716l1.487-1.876A6.441,6.441,0,0,1,642.69,490.716Z" transform="translate(-405.721 -294.259)" fill="#f9c4aa"/>
        <path id="Path_4182" data-name="Path 4182" d="M645.88,492.327l1.654-1.816A5.184,5.184,0,0,1,645.88,492.327Z" transform="translate(-407.742 -295.265)" fill="#f9c4aa"/>
        <path id="Path_4183" data-name="Path 4183" d="M651,492.852l1.821-1.932A4.809,4.809,0,0,1,651,492.852Z" transform="translate(-410.982 -295.511)" fill="#f9c4aa"/>
      </g>
    </g>
  </g>
</svg>
