<svg xmlns="http://www.w3.org/2000/svg" xmlns:xlink="http://www.w3.org/1999/xlink" width="435" height="231.54" viewBox="0 0 435 231.54">
  <defs>
    <clipPath id="clip-path">
      <path id="Path_4125" data-name="Path 4125" d="M350.9,11.87H283.56a89.886,89.886,0,0,1-36.013-7.43A53.072,53.072,0,0,0,226.224,0H72.168A53.34,53.34,0,0,0,20.775,39.074v.005A20.774,20.774,0,0,0,0,59.857V159.912a20.774,20.774,0,0,0,20.774,20.774h6.634c-.066,1.024-.1,2.057-.1,3.094h0a47.756,47.756,0,0,0,47.769,47.76H322.7a47.761,47.761,0,0,0,47.765-47.765v-.147a7.615,7.615,0,0,1,5.374-7.312A84.133,84.133,0,0,0,435,95.97h0a84.1,84.1,0,0,0-84.1-84.1Z" transform="translate(0 0)" fill="none"/>
    </clipPath>
  </defs>
  <g id="Layer_2" data-name="Layer 2" transform="translate(21.3)">
    <g id="Layer_1" data-name="Layer 1" transform="translate(-21.3 0)">
      <path id="Path_4075" data-name="Path 4075" d="M393.765,176.317a7.608,7.608,0,0,0-5.329,7.312c0,.052,0,.1,0,.152h0a47.562,47.562,0,0,1-47.343,47.76H95.53a47.558,47.558,0,0,1-47.362-47.765v0A47.562,47.562,0,0,1,95.53,136.02h0a6.779,6.779,0,0,0,5.62-2.973,6.9,6.9,0,0,0,.733-6.357,83.834,83.834,0,0,1-4.474-16.054,4.828,4.828,0,0,0-4.755-4.018h0c-29.194,0-52.863-23.86-52.874-53.3h0C39.78,23.871,63.452,0,92.654,0H245.439a52.252,52.252,0,0,1,20.713,4.265,91.576,91.576,0,0,0,36.131,7.62h66.774c46.061,0,83.4,37.647,83.4,84.091v0a84.056,84.056,0,0,1-58.693,80.346Z" transform="translate(-17.461 0)" fill="#fff2eb"/>
      <g id="Group_3068" data-name="Group 3068" clip-path="url(#clip-path)">
        <rect id="Rectangle_2291" data-name="Rectangle 2291" width="332.064" height="18.376" transform="translate(21.57 136.092)" fill="#001e49"/>
        <rect id="Rectangle_2292" data-name="Rectangle 2292" width="11.415" height="55.133" transform="translate(88.682 83.602)" fill="#fff"/>
        <rect id="Rectangle_2293" data-name="Rectangle 2293" width="245.064" height="105.044" rx="3.85" transform="translate(102.111 29.545)" fill="#f26522"/>
        <rect id="Rectangle_2294" data-name="Rectangle 2294" width="2.023" height="90.037" transform="translate(335.225 38.657)" fill="#d84c07"/>
        <rect id="Rectangle_2295" data-name="Rectangle 2295" width="2.023" height="90.037" transform="translate(321.251 38.657)" fill="#d84c07"/>
        <rect id="Rectangle_2296" data-name="Rectangle 2296" width="2.023" height="90.037" transform="translate(307.272 38.657)" fill="#d84c07"/>
        <rect id="Rectangle_2297" data-name="Rectangle 2297" width="2.023" height="90.037" transform="translate(293.402 38.657)" fill="#d84c07"/>
        <rect id="Rectangle_2298" data-name="Rectangle 2298" width="2.023" height="90.037" transform="translate(279.428 38.657)" fill="#d84c07"/>
        <rect id="Rectangle_2299" data-name="Rectangle 2299" width="2.023" height="90.037" transform="translate(265.45 38.657)" fill="#d84c07"/>
        <rect id="Rectangle_2300" data-name="Rectangle 2300" width="2.023" height="90.037" transform="translate(251.475 38.657)" fill="#d84c07"/>
        <rect id="Rectangle_2301" data-name="Rectangle 2301" width="2.023" height="90.037" transform="translate(237.606 38.657)" fill="#d84c07"/>
        <rect id="Rectangle_2302" data-name="Rectangle 2302" width="2.023" height="90.037" transform="translate(223.627 38.657)" fill="#d84c07"/>
        <rect id="Rectangle_2303" data-name="Rectangle 2303" width="2.023" height="90.037" transform="translate(209.653 38.657)" fill="#d84c07"/>
        <rect id="Rectangle_2304" data-name="Rectangle 2304" width="2.023" height="90.037" transform="translate(195.679 38.657)" fill="#d84c07"/>
        <rect id="Rectangle_2305" data-name="Rectangle 2305" width="2.023" height="90.037" transform="translate(181.804 38.657)" fill="#d84c07"/>
        <rect id="Rectangle_2306" data-name="Rectangle 2306" width="2.023" height="90.037" transform="translate(167.83 38.657)" fill="#d84c07"/>
        <rect id="Rectangle_2307" data-name="Rectangle 2307" width="2.023" height="90.037" transform="translate(153.856 38.657)" fill="#d84c07"/>
        <rect id="Rectangle_2308" data-name="Rectangle 2308" width="2.023" height="90.037" transform="translate(139.982 38.657)" fill="#d84c07"/>
        <rect id="Rectangle_2309" data-name="Rectangle 2309" width="2.023" height="90.037" transform="translate(126.008 38.657)" fill="#d84c07"/>
        <rect id="Rectangle_2310" data-name="Rectangle 2310" width="2.023" height="90.037" transform="translate(112.034 38.657)" fill="#d84c07"/>
        <path id="Path_4076" data-name="Path 4076" d="M159.914,291.369h264V284.38H146.75Z" transform="translate(-67.118 -149.625)" fill="#03152b"/>
        <path id="Path_4077" data-name="Path 4077" d="M444.22,291.01H580.425l13.164,13.164h-3.142l-4.658-4.658H544.071l-12.154-4.658h-87.7Z" transform="translate(-223.63 -153.113)" fill="#00305b"/>
        <rect id="Rectangle_2311" data-name="Rectangle 2311" width="87.493" height="15.486" rx="2.78" transform="translate(165.603 141.745)" fill="#03152b"/>
        <circle id="Ellipse_366" data-name="Ellipse 366" cx="20.153" cy="20.153" r="20.153" transform="translate(232.483 144.341)" fill="#03152b"/>
        <path id="Path_4078" data-name="Path 4078" d="M521.922,325.769A10.022,10.022,0,0,0,512,335.9v.1a10.126,10.126,0,1,0,10.022-10.226Zm1.621,12.557a.832.832,0,0,1,0-.109.9.9,0,0,1,.915-.905h4.459a.95.95,0,0,1,.251.047,1.014,1.014,0,0,1,.659,1.27,8.411,8.411,0,0,1-4.961,5.061.989.989,0,0,1-.355.047,1.009,1.009,0,0,1-.948-1.057Zm0-9.316a.949.949,0,0,1,.09-.507.919.919,0,0,1,1.227-.408,8.018,8.018,0,0,1,4.961,4.966,1.113,1.113,0,0,1,.047.251,1.014,1.014,0,0,1-.948,1.061h-4.563a.91.91,0,0,1-.806-1Zm-3.014,4.355a.782.782,0,0,1,0,.1.91.91,0,0,1-.919.905h-4.454a1.114,1.114,0,0,1-.251-.043,1.014,1.014,0,0,1-.659-1.27,8,8,0,0,1,4.961-4.966.947.947,0,0,1,.507-.09.91.91,0,0,1,.81,1Zm-6.35,5.013a1.014,1.014,0,0,1,.948-1.066h4.563a.91.91,0,0,1,.806,1.009v4.355a.984.984,0,0,1-.047.351,1,1,0,0,1-1.27.659,8.387,8.387,0,0,1-4.961-5.061.9.9,0,0,1-.038-.246Z" transform="translate(-269.385 -171.401)" fill="#fff"/>
        <circle id="Ellipse_367" data-name="Ellipse 367" cx="20.153" cy="20.153" r="20.153" transform="translate(102.58 144.341)" fill="#03152b"/>
        <path id="Path_4079" data-name="Path 4079" d="M247.782,325.769a10.027,10.027,0,0,0-9.923,10.126v.1a10.126,10.126,0,1,0,10.017-10.226Zm1.621,12.557a.832.832,0,0,1,0-.109.905.905,0,0,1,.915-.905h4.459a.949.949,0,0,1,.251.047,1.009,1.009,0,0,1,.659,1.27,8.4,8.4,0,0,1-4.966,5.061.98.98,0,0,1-.351.047,1.014,1.014,0,0,1-.948-1.057Zm0-9.316a.9.9,0,0,1,.095-.507.915.915,0,0,1,1.223-.408,8,8,0,0,1,4.961,4.966,1.12,1.12,0,0,1,.047.251,1.009,1.009,0,0,1-.948,1.061h-4.563a.91.91,0,0,1-.806-1Zm-3.037,4.355a.761.761,0,0,1,0,.1.91.91,0,0,1-.915.905h-4.459a1.113,1.113,0,0,1-.251-.043,1.014,1.014,0,0,1-.659-1.27,8,8,0,0,1,4.952-4.966.948.948,0,0,1,.507-.09.91.91,0,0,1,.81,1Zm-6.326,5.013a1.014,1.014,0,0,1,.948-1.066h4.563a.91.91,0,0,1,.806,1.009v4.355a.981.981,0,0,1-.047.351,1,1,0,0,1-1.27.659,8.4,8.4,0,0,1-4.961-5.061,1.117,1.117,0,0,1-.038-.246Z" transform="translate(-125.148 -171.401)" fill="#fff"/>
        <circle id="Ellipse_368" data-name="Ellipse 368" cx="20.153" cy="20.153" r="20.153" transform="translate(299.733 144.341)" fill="#03152b"/>
        <path id="Path_4080" data-name="Path 4080" d="M663.809,325.769a10.032,10.032,0,0,0-9.951,10.126.7.7,0,0,0,0,.1,10.126,10.126,0,1,0,10.022-10.226Zm1.621,12.557a.832.832,0,0,1,0-.109.914.914,0,0,1,.919-.905H670.8a.908.908,0,0,1,.251.047,1.014,1.014,0,0,1,.663,1.27,8.406,8.406,0,0,1-4.966,5.061.947.947,0,0,1-.351.047,1,1,0,0,1-.948-1.057Zm0-9.316a.89.89,0,0,1,.09-.507.919.919,0,0,1,1.227-.408,8.027,8.027,0,0,1,4.961,4.966,1.116,1.116,0,0,1,.043.251,1.009,1.009,0,0,1-.948,1.061h-4.559a.91.91,0,0,1-.8-1Zm-3.037,4.355v.1a.915.915,0,0,1-.919.905h-4.454a1.115,1.115,0,0,1-.251-.043,1.009,1.009,0,0,1-.659-1.27,8,8,0,0,1,4.961-4.966.947.947,0,0,1,.507-.09.91.91,0,0,1,.81,1Zm-6.326,5.013a1.014,1.014,0,0,1,.948-1.066h4.563a.919.919,0,0,1,.806,1.009v4.355a1.1,1.1,0,0,1-.047.351,1.009,1.009,0,0,1-1.27.659,8.387,8.387,0,0,1-4.961-5.061.906.906,0,0,1-.038-.246Z" transform="translate(-344.022 -171.401)" fill="#fff"/>
        <path id="Path_4081" data-name="Path 4081" d="M478.649,309.3a25.081,25.081,0,0,1,44.438-4.061,8.714,8.714,0,0,0,7.354,4.056h10.122a8.723,8.723,0,0,0,7.359-4.056A25.081,25.081,0,0,1,592.36,309.3h4.634a29.436,29.436,0,0,0-27.9-20.049H501.91A29.436,29.436,0,0,0,474,309.3Z" transform="translate(-249.392 -152.187)" fill="#004a80"/>
        <path id="Path_4082" data-name="Path 4082" d="M478.054,122.1c-8.492,1.289-17.381-4.293-20.812-6.752a1.971,1.971,0,0,0-2.289,0c-3.431,2.459-12.32,8.056-20.817,6.752l-1.966,4.587,6.279,26.413a14.031,14.031,0,0,0,7.857,9.543l9.795,4.454,9.8-4.454a14.045,14.045,0,0,0,7.852-9.539l6.274-26.413Z" transform="translate(-227.384 -60.495)" fill="#d84c07"/>
        <path id="Path_4083" data-name="Path 4083" d="M480.9,121.646c-8.492,1.284-17.386-4.293-20.817-6.752a1.971,1.971,0,0,0-2.289,0c-3.431,2.459-12.32,8.056-20.816,6.752L435,126.233l6.288,26.427a14.031,14.031,0,0,0,7.852,9.539l9.8,4.454,9.795-4.454a14.031,14.031,0,0,0,7.852-9.539l6.274-26.427Z" transform="translate(-228.873 -60.258)" fill="#fff2eb"/>
        <path id="Path_4084" data-name="Path 4084" d="M215.13,81.58h229.9l-2.293,1.971H216.263Z" transform="translate(-103.096 -42.923)" fill="#d84c07"/>
        <path id="Path_4085" data-name="Path 4085" d="M100.552,184.955l-10.9,14.13a2.843,2.843,0,0,0-.583,1.72v.843H117.8a1.578,1.578,0,0,0,1.578-1.583V185.216a1.265,1.265,0,0,0-1.265-1.27c-3.364,0-12.491-.028-15.751.076A2.369,2.369,0,0,0,100.552,184.955Z" transform="translate(-46.864 -96.78)" fill="#fff2eb"/>
        <path id="Path_4086" data-name="Path 4086" d="M43.3,106.753C27.25,130.147,24.07,163.194,24.07,163.194v49.674H49.7a3.559,3.559,0,0,0,3.44-2.568,24.091,24.091,0,0,1,46.627.886,2.17,2.17,0,0,0,2.1,1.682h4.009a2.147,2.147,0,0,0,2.147-2.147V107.379a3.653,3.653,0,0,0-3.653-3.649H49.075a7,7,0,0,0-5.776,3.023Z" transform="translate(-12.664 -54.577)" fill="#004a80"/>
        <path id="Path_4087" data-name="Path 4087" d="M70.059,121.44l-7.506,41.936a4.739,4.739,0,0,0,4.639,5.544H77.551a4.738,4.738,0,0,0,3.085-1.147l4.317-3.715a4.706,4.706,0,0,1,3.08-1.147h22.049a4.71,4.71,0,0,0,4.715-4.71V122.019a4.739,4.739,0,0,0-4.739-4.739l-35.383.256A4.739,4.739,0,0,0,70.059,121.44Z" transform="translate(-32.876 -61.706)" fill="#fff2eb"/>
        <path id="Path_4088" data-name="Path 4088" d="M76.84,168.877H66.481a5.35,5.35,0,0,1-5.265-6.293l7.506-41.936a5.355,5.355,0,0,1,5.212-4.4l35.383-.256h.043a5.345,5.345,0,0,1,5.345,5.35v36.169a5.35,5.35,0,0,1-5.35,5.345H87.322a4.08,4.08,0,0,0-2.668,1l-4.317,3.724a5.354,5.354,0,0,1-3.5,1.3Zm-6.866-48-7.482,41.936a4.075,4.075,0,0,0,4.014,4.8H76.84a4.075,4.075,0,0,0,2.668-.99l4.307-3.71a5.355,5.355,0,0,1,3.5-1.3h22.049a4.08,4.08,0,0,0,4.08-4.075V121.34a4.075,4.075,0,0,0-4.075-4.08h-.033l-35.383.256A4.08,4.08,0,0,0,69.974,120.875Z" transform="translate(-32.165 -61.027)" fill="#001e49"/>
        <rect id="Rectangle_2312" data-name="Rectangle 2312" width="7.065" height="4.208" rx="2.104" transform="translate(29.166 116.521)" fill="#f26522"/>
        <rect id="Rectangle_2313" data-name="Rectangle 2313" width="6.013" height="17.135" rx="3.007" transform="translate(10.093 115.858)" fill="#fff2eb"/>
        <rect id="Rectangle_2314" data-name="Rectangle 2314" width="13.33" height="20.063" rx="4.98" transform="translate(10.093 140.489)" fill="#001e49"/>
        <rect id="Rectangle_2315" data-name="Rectangle 2315" width="14.258" height="4.26" rx="2.13" transform="translate(60.232 109.456)" fill="#001e49"/>
        <circle id="Ellipse_369" data-name="Ellipse 369" cx="20.153" cy="20.153" r="20.153" transform="translate(44.253 144.341)" fill="#03152b"/>
        <path id="Path_4089" data-name="Path 4089" d="M124.692,325.769a10.027,10.027,0,0,0-9.923,10.126v.1A10.126,10.126,0,1,0,124.8,325.769Zm1.621,12.557v-.109a.91.91,0,0,1,.919-.905h4.454a.9.9,0,0,1,.251.047,1,1,0,0,1,.659,1.27,8.387,8.387,0,0,1-4.961,5.061.982.982,0,0,1-.351.047,1.014,1.014,0,0,1-.948-1.057Zm0-9.316a.9.9,0,0,1,.095-.507.915.915,0,0,1,1.223-.408,8,8,0,0,1,4.961,4.966.9.9,0,0,1,.047.251,1.009,1.009,0,0,1-.948,1.061h-4.563a.915.915,0,0,1-.806-1Zm-3.037,4.355a.767.767,0,0,1,0,.1.905.905,0,0,1-.915.905h-4.454a1.113,1.113,0,0,1-.251-.043,1.014,1.014,0,0,1-.663-1.27,8.018,8.018,0,0,1,4.961-4.966.948.948,0,0,1,.512-.09.91.91,0,0,1,.806,1Zm-6.321,5.013a1.009,1.009,0,0,1,.948-1.066h4.558a.91.91,0,0,1,.806,1.009v4.355a1.1,1.1,0,0,1-.043.351,1.014,1.014,0,0,1-1.275.659,8.411,8.411,0,0,1-4.961-5.061A1.113,1.113,0,0,1,116.954,338.379Z" transform="translate(-60.385 -171.401)" fill="#fff"/>
        <path id="Path_4090" data-name="Path 4090" d="M356.9,291.51h-.133a1.744,1.744,0,0,0-1.583,1.019H308.655a1.744,1.744,0,0,0-1.573-1.009h-.118a1.748,1.748,0,0,0-1.744,1.749v20.745a1.744,1.744,0,0,0,1.744,1.744h.118a1.739,1.739,0,0,0,1.573-1H355.2a1.734,1.734,0,0,0,1.564,1.014h.114a1.744,1.744,0,0,0,1.782-1.753V293.258a1.748,1.748,0,0,0-1.763-1.749Z" transform="translate(-160.59 -153.376)" fill="#00305b"/>
        <rect id="Rectangle_2316" data-name="Rectangle 2316" width="37.691" height="0.981" transform="translate(148.398 157.965)" fill="#001e49"/>
        <path id="Path_4091" data-name="Path 4091" d="M460.583,96.1a46.22,46.22,0,0,0-31.507,3.232,38.312,38.312,0,0,0-12.794,9.951c-12.657,15.41-56.36,2.222-73.026,17.608s-8.416,18.694-29.853,26.4-20.911,11.553-28.062,18.708-13.206,52.276-63.833,41.823-44.576,20.911-70.988,12.107-11.553,6.051-47.859,9.9H493.321l.554-131.514Z" transform="translate(-54.014 -49.819)" fill="#ffdbcf"/>
        <path id="Path_4092" data-name="Path 4092" d="M494.139,349.07,476.81,385.8a14.111,14.111,0,0,0,6.658,18.741h0a14.111,14.111,0,0,0,18.817-6.591l17.973-37.221Z" transform="translate(-250.16 -183.661)" fill="#ffba97"/>
        <path id="Path_4093" data-name="Path 4093" d="M505,368.19s4.559,10.828,23.939,16.528l3.421-6.269Z" transform="translate(-265.703 -193.721)" fill="#e57f63"/>
        <path id="Path_4094" data-name="Path 4094" d="M725,334.366l10.856,31.777a14.216,14.216,0,0,0,18.679,8.6h0a14.216,14.216,0,0,0,8.212-17.7l-10.216-30.45Z" transform="translate(-381.454 -171.833)" fill="#ffba97"/>
        <path id="Path_4095" data-name="Path 4095" d="M732.75,353.791l2.014,6.08s25.209-9,24.7-17.481Z" transform="translate(-385.532 -180.146)" fill="#e57f63"/>
        <path id="Path_4096" data-name="Path 4096" d="M721.359,393.68l-3.549,48.58,24.726,2.341,7.042-45.841Z" transform="translate(-367.578 -207.132)" fill="#ffba97"/>
        <path id="Path_4097" data-name="Path 4097" d="M545.966,232.028,528.7,241.747s-9.629,3.791-11.657,12.666L503.11,292.165s18.007,14.438,28.123,13.173l2.279,47.386H611.8l-2.53-63.084,2.151,5.449s21.409-3.042,30.531-17.608l-22.8-35.985a26.84,26.84,0,0,0-15.457-9.122l-13.865-4.592a54.494,54.494,0,0,0-43.865,4.246Z" transform="translate(-264.708 -118.393)" fill="#004a80"/>
        <rect id="Rectangle_2317" data-name="Rectangle 2317" width="22.56" height="3.852" transform="translate(307.424 150.236)" fill="#fff2eb"/>
        <path id="Path_4098" data-name="Path 4098" d="M605.75,253.672l-2.469-17.542-10.2,7.79-5,2.028-.881-.37-.071-.076,0,.047-14.126-5.876-1.777,2.853,2.976,11.524,13.055-5.942.881,17.6V247.683l4.369-2.241Z" transform="translate(-290.456 -124.238)" fill="#e2441a"/>
        <path id="Path_4099" data-name="Path 4099" d="M450.9,352.954,420.5,287.59l-21.03,5.573,27.616,73.727Z" transform="translate(-200.085 -151.314)" fill="#ffba97"/>
        <path id="Path_4100" data-name="Path 4100" d="M505.25,374.74s8.885,9.88,8.364,18.746Z" transform="translate(-265.834 -197.167)" fill="#e57f63"/>
        <path id="Path_4101" data-name="Path 4101" d="M614.5,219.287l-15.2,1.137s-3.611.384-5.686,2.663l-1.27,2.161a9.4,9.4,0,0,0-.976,7.108l3.374,12.794,12.922-8.529,1.327,1.142,5.321-2.843,11.97,9.88,9.477-14.126a5.09,5.09,0,0,0,.839-2.232,10.528,10.528,0,0,0-1.753-7.539,4.411,4.411,0,0,0-3.6-1.734Z" transform="translate(-310.982 -115.314)" fill="#ec6625"/>
        <path id="Path_4102" data-name="Path 4102" d="M604.675,158.98v22.044s-2.09,5.686,9.885,12.922l1.327,1.137,5.321-2.843,14.249-11.591s2.284-1.142,2.473-4.739V139.22Z" transform="translate(-318.072 -73.25)" fill="#ffba97"/>
        <path id="Path_4103" data-name="Path 4103" d="M626.485,171.322l2.843-21.262-24.612,14.623v22.044s-1.365,3.734,4.464,9l5.767-4.473A30.161,30.161,0,0,0,626.485,171.322Z" transform="translate(-318.094 -78.953)" fill="#e57f63"/>
        <path id="Path_4104" data-name="Path 4104" d="M640.017,363.51s-15.836,35.724-35.847,41.932C604.17,405.442,622.916,392.771,640.017,363.51Z" transform="translate(-317.88 -191.259)" fill="#001e49"/>
        <path id="Path_4105" data-name="Path 4105" d="M561.335,355.28V319.94S559.056,342.107,561.335,355.28Z" transform="translate(-294.81 -168.334)" fill="#001e49"/>
        <path id="Path_4106" data-name="Path 4106" d="M556.5,321.81a18.48,18.48,0,0,0,1.265,10.9Z" transform="translate(-292.63 -169.318)" fill="#001e49"/>
        <path id="Path_4107" data-name="Path 4107" d="M718.824,338.532,711.1,317S714.772,332.7,718.824,338.532Z" transform="translate(-374.141 -166.788)" fill="#001e49"/>
        <path id="Path_4108" data-name="Path 4108" d="M632.8,265.83a1.777,1.777,0,1,0,1.777,1.777A1.777,1.777,0,0,0,632.8,265.83Zm0,2.455a.246.246,0,1,1,.246-.242.242.242,0,0,1-.246.237Zm0-.867a.3.3,0,1,1,.232-.246A.246.246,0,0,1,632.8,267.417Z" transform="translate(-332.007 -139.865)" fill="#fff2eb"/>
        <path id="Path_4109" data-name="Path 4109" d="M573.348,136.2l-14.633-.19s-.379,3.137,6.08,6.16a80.855,80.855,0,0,0,13.585,4.739Z" transform="translate(-293.962 -71.561)" fill="#ffdbcf"/>
        <path id="Path_4110" data-name="Path 4110" d="M632.808,283.48a1.772,1.772,0,1,0,1.256.517,1.772,1.772,0,0,0-1.256-.517Zm0,2.455a.246.246,0,1,1,.246-.246.242.242,0,0,1-.246.246Zm0-.872a.242.242,0,0,1-.242-.246.246.246,0,1,1,.242.246Z" transform="translate(-332.018 -149.151)" fill="#fff2eb"/>
        <path id="Path_4111" data-name="Path 4111" d="M748.52,403.94s4.942-.886,5.956,1.27Z" transform="translate(-393.829 -212.435)" fill="#e57f63"/>
        <path id="Path_4112" data-name="Path 4112" d="M596.142,122.192s-4.942,3.232-4.942,8.553v19.693a14.818,14.818,0,0,0,2.844,8.729l2.705,3.71a8.757,8.757,0,0,0,7.075,3.6h3.469a8.743,8.743,0,0,0,4.663-1.346l7.108-4.492a11.3,11.3,0,0,0,5.212-8.3l2.843-25.588S617.8,107.375,596.142,122.192Z" transform="translate(-311.056 -61.354)" fill="#ffba97"/>
        <path id="Path_4113" data-name="Path 4113" d="M643.228,130.106c.346-1.786.677-4.625-.185-6.35L628.984,112l-20.144,8.169,5.89,1.521A64.023,64.023,0,0,0,624.8,132.9l.346.289a7.458,7.458,0,0,0,6.075,1.474,3.608,3.608,0,0,1,3.54,5.663,2.582,2.582,0,0,0,.644,3.791h.033s.19,3.421,2.09,3.042a2.066,2.066,0,0,0,3.232.569,12.571,12.571,0,0,0,1.36-6.582,7.425,7.425,0,0,1,.393-3.056,10.344,10.344,0,0,0,.706-5.3A6.7,6.7,0,0,1,643.228,130.106Z" transform="translate(-320.337 -58.928)" fill="#00305b"/>
        <path id="Path_4114" data-name="Path 4114" d="M590.928,139.49,590.8,145.7l21.66-.753h.2a24.905,24.905,0,0,1-3.066-5.212Z" transform="translate(-310.846 -73.392)" fill="#e57f63"/>
        <path id="Path_4115" data-name="Path 4115" d="M655.131,140.239l-24.641-.289a24.9,24.9,0,0,0,3.066,5.212l21.082.128S655.514,141.632,655.131,140.239Z" transform="translate(-331.728 -73.634)" fill="#001e49"/>
        <path id="Path_4116" data-name="Path 4116" d="M558.72,109.895s4.369,5.511,14.059,4.942h44.832s5.146-21.584-15.329-27.687a18.528,18.528,0,0,0-4.938-.758c-6.923-.137-25.313,1.369-26.086,21.248C571.258,107.62,561.762,107.81,558.72,109.895Z" transform="translate(-293.967 -45.45)" fill="#fff2eb"/>
        <ellipse id="Ellipse_370" data-name="Ellipse 370" cx="3.232" cy="3.672" rx="3.232" ry="3.672" transform="translate(284.892 52.797)" fill="#ffdbcf"/>
        <path id="Path_4117" data-name="Path 4117" d="M654.894,166.572a1.521,1.521,0,1,0-2.82-.829,1.479,1.479,0,0,1-.474.948,1.209,1.209,0,0,0-.265.474,1.166,1.166,0,0,0,.28,1.147,1.189,1.189,0,0,0,1.9-.2,1.373,1.373,0,0,0,.085-.166,1.606,1.606,0,0,1,.72-.839,1.516,1.516,0,0,0,.578-.531Z" transform="translate(-342.67 -86.424)" fill="#e57f63"/>
        <path id="Path_4118" data-name="Path 4118" d="M609.249,180.8a2.843,2.843,0,0,1,1.009-2.767,2.132,2.132,0,0,0-.573.033,2.161,2.161,0,0,0,.445,4.265A2.815,2.815,0,0,1,609.249,180.8Z" transform="translate(-319.903 -93.668)" fill="#e57f63"/>
        <path id="Path_4119" data-name="Path 4119" d="M606.92,197.578l7.861-.948S611.057,203.98,606.92,197.578Z" transform="translate(-319.327 -103.456)" fill="#fff2eb"/>
        <path id="Path_4120" data-name="Path 4120" d="M432.933,281.551s-3.611,2.564-6.558,2.658a21.942,21.942,0,0,1-6.326-1.422,5.473,5.473,0,0,1-3.62-4.236l-2.075-11.88a5.454,5.454,0,0,1,4.265-6.307,14.656,14.656,0,0,1,3.085-.289l10.543-2.09a9.477,9.477,0,0,0-.379-3.516c-.531-1.687,0-5.283,2.649-6.212a2.743,2.743,0,0,1,1.019-.133h.384a1.9,1.9,0,0,1,1.777,1.6l1.393,9.577,2.014,14.348Z" transform="translate(-217.964 -130.547)" fill="#ffba97"/>
        <path id="Path_4121" data-name="Path 4121" d="M431.86,295a2.63,2.63,0,0,0-1.545-1.938,3.213,3.213,0,0,0-.37-5.018,3.44,3.44,0,0,0-1.924-6.065,3.246,3.246,0,0,0-2.592-5.748l1.317,21.409C430.543,298.78,432.126,296.435,431.86,295Z" transform="translate(-223.837 -145.308)" fill="#e57f63"/>
        <path id="Path_4122" data-name="Path 4122" d="M423.114,293.4a2.63,2.63,0,0,0-1.545-1.938,3.213,3.213,0,0,0-.37-5.018,3.44,3.44,0,0,0-1.924-6.065,3.246,3.246,0,0,0-2.592-5.748l-4.506.839a3.246,3.246,0,0,0,.081,6.392,3.44,3.44,0,0,0,.313,5.857,3.217,3.217,0,0,0,2.061,5.426,2.6,2.6,0,0,0-.374,1.9,2.635,2.635,0,0,0,3.08,2.113l3.668-.682a2.639,2.639,0,0,0,2.109-3.071Z" transform="translate(-215.475 -144.466)" fill="#ffba97"/>
        <path id="Path_4123" data-name="Path 4123" d="M448.589,269.94s-5.411,8.458-2.369,15.107C446.215,285.047,445.153,276.688,448.589,269.94Z" transform="translate(-234.287 -142.027)" fill="#e57f63"/>
        <path id="Path_4124" data-name="Path 4124" d="M428.2,320.87a13.151,13.151,0,0,0,10.543.284S433.232,324.86,428.2,320.87Z" transform="translate(-225.295 -168.824)" fill="#e57f63"/>
      </g>
    </g>
  </g>
</svg>
