<svg xmlns="http://www.w3.org/2000/svg" xmlns:xlink="http://www.w3.org/1999/xlink" width="439.699" height="244.647" viewBox="0 0 439.699 244.647">
  <defs>
    <clipPath id="clip-path">
      <path id="Path_4226" data-name="Path 4226" d="M377.166,58.351a8.054,8.054,0,0,1-5.675-7.728v-.158h0A50.462,50.462,0,0,0,321.021,0H59.4A50.461,50.461,0,0,0,8.94,50.466h0A50.461,50.461,0,0,0,59.4,100.926h0a7.244,7.244,0,0,1,6.77,9.862A88.406,88.406,0,0,0,61.4,127.751a5.14,5.14,0,0,1-5.094,4.228h0A56.334,56.334,0,0,0,0,188.313H0a56.334,56.334,0,0,0,56.334,56.334H219.126a56.13,56.13,0,0,0,22.067-4.488,98.247,98.247,0,0,1,38.5-8.054h71.147A88.859,88.859,0,0,0,439.7,143.247h0a88.894,88.894,0,0,0-62.533-84.9Z" transform="translate(0 0)" fill="none"/>
    </clipPath>
  </defs>
  <g id="Layer_2" data-name="Layer 2" transform="translate(-26.76)">
    <g id="Layer_1" data-name="Layer 1" transform="translate(26.76 0)">
      <path id="Path_4224" data-name="Path 4224" d="M377.166,58.351a8.054,8.054,0,0,1-5.675-7.728v-.158h0A50.462,50.462,0,0,0,321.021,0H59.4A50.461,50.461,0,0,0,8.94,50.466h0A50.461,50.461,0,0,0,59.4,100.926h0a7.244,7.244,0,0,1,6.77,9.862A88.406,88.406,0,0,0,61.4,127.751a5.14,5.14,0,0,1-5.094,4.228h0A56.334,56.334,0,0,0,0,188.313H0a56.334,56.334,0,0,0,56.334,56.334H219.126a56.13,56.13,0,0,0,22.067-4.488,98.247,98.247,0,0,1,38.5-8.054h71.147A88.859,88.859,0,0,0,439.7,143.247h0a88.894,88.894,0,0,0-62.533-84.9Z" transform="translate(0 0)" fill="#fef6f2"/>
      <g id="Group_3075" data-name="Group 3075" clip-path="url(#clip-path)">
        <path id="Path_4225" data-name="Path 4225" d="M.728,178.563H38.673V120.92h3.647v57.643h21.16l12.765-12.771h90.84V16.58h3.647v19.7h18.241V14.39h2.919V150.1l19.7,19.7H418.086V106.326h3.647v60.562h8.023v-40.13h4.381v39.4h8.757V143.537h23.346V255.176H0Z" transform="translate(-13.631 -7.06)" fill="#c6c3ac"/>
      </g>
      <path id="Path_4227" data-name="Path 4227" d="M243.122,355.48s10.59,42.545,8.364,62.854h-86.8l4.411-47.027Z" transform="translate(-80.798 -174.4)" fill="#1a2846"/>
      <path id="Path_4228" data-name="Path 4228" d="M294.058,398.152,291.71,400.1s1.864,1.375,5.914,1.7,11.757-5.919,11.757-5.919Z" transform="translate(-143.114 -194.221)" fill="#060e1e"/>
      <path id="Path_4229" data-name="Path 4229" d="M245.8,383.9a30.409,30.409,0,0,1-18.934,13.183c-13.254,3.046-55.31-2.109-55.31-2.109l.7-11.074Z" transform="translate(-84.168 -188.343)" fill="#060e1e"/>
      <path id="Path_4230" data-name="Path 4230" d="M124.121,220.17l-9.826,31.5a11.176,11.176,0,0,0,7.666,14.426h0a11.176,11.176,0,0,0,13.621-7.641l9.816-35.179Z" transform="translate(-55.776 -108.017)" fill="#f7b897"/>
      <path id="Path_4231" data-name="Path 4231" d="M130.823,227c-.163.509-.973,3.408-.973,3.408s8.593,9.887,19.78,9.566Z" transform="translate(-63.705 -111.367)" fill="#e58064"/>
      <path id="Path_4232" data-name="Path 4232" d="M333.966,234.42l6.245,28.108a9.867,9.867,0,0,1-7.1,11.68h0a9.872,9.872,0,0,1-12.159-7.284L314.68,240.2Z" transform="translate(-154.384 -115.008)" fill="#f7b897"/>
      <path id="Path_4233" data-name="Path 4233" d="M319.4,248.386v.953s9.5.26,13.27-1.681a57.332,57.332,0,0,0,5.288-2.98l-.79-4.2Z" transform="translate(-156.699 -117.981)" fill="#e58064"/>
      <path id="Path_4234" data-name="Path 4234" d="M237.21,198.324c3.759-1.386,11.069-6.327,11.069-6.327l-11.945-29.036a16.978,16.978,0,0,0-9.072-9.169l-21.736-9.169a47.527,47.527,0,0,0-38.357.586l-3.377,1.528h0L155,150.777a14.4,14.4,0,0,0-2.277,1.365l-4.89,2.374a20.7,20.7,0,0,0-8.048,6.938L129.6,185.905s4.763,8.476,21.435,12.653l.759,23.172-1.788,49.2,6.77,1.706s17.4,4.35,31.623,3.754,23.325-3.566,27.675-6.918,14.625-6.225,14.625-6.225l-3.566-43.777-.861-19.011S233.455,199.71,237.21,198.324Z" transform="translate(-63.582 -69.111)" fill="#fff"/>
      <path id="Path_4235" data-name="Path 4235" d="M173.025,369.565l-2.435,1.625h0a10.539,10.539,0,0,0,6.362,4.773c7.957,2.094,25.1,6.286,31.735,5.445a2.781,2.781,0,0,0,1.864-1.105l.331-.443,1.528,1.151a2.853,2.853,0,0,0,1.885.571l16.2-1s.407,3.056.326,3.158,9.729-3.24,9.729-3.24l2.674-12.811Z" transform="translate(-83.692 -180.391)" fill="#ffdbcf"/>
      <path id="Path_4236" data-name="Path 4236" d="M281.765,152.885h0a25.872,25.872,0,0,1-21.445,4.9l-1.34-.29,5.787-9.775Z" transform="translate(-127.057 -72.472)" fill="#ffdbcf"/>
      <path id="Path_4237" data-name="Path 4237" d="M171.59,156.295c1.151,8.757,5.094,51.714,5.094,51.714s0,12.159-6.322,12.648L167.77,265.57s23.753,5.919,34.211,6.648l4.5.188a3.056,3.056,0,0,0,2.287-.9l1.019-.993,1.11.973a3.057,3.057,0,0,0,1.951.754c5.466.1,29.321.214,35.123-5.374l-2.19-47.185s-6.082.484-5.838-12.4l1.849-51.016a2.155,2.155,0,0,0-1.38-2.094L229.8,150.1a2.165,2.165,0,0,0-2.7,1.019l-18.817,36.952-22.6-37.746a2.155,2.155,0,0,0-2.741-.856l-10.1,4.585a2.15,2.15,0,0,0-1.248,2.246Z" transform="translate(-82.309 -73.233)" fill="#eb660c"/>
      <path id="Path_4238" data-name="Path 4238" d="M173.793,326.17l-.973,15.567s33.809,4.376,37.456,4.376,16.3.245,16.3.245l21.9-3.892-1.217-15.078s-20.916,2.674-23.835,2.674-21.644-.728-21.644-.728Z" transform="translate(-84.786 -160.021)" fill="#f58220"/>
      <path id="Path_4239" data-name="Path 4239" d="M177.72,154.936,184,180.472q.958,3.851,1.528,7.784l4.05,27.691-.728,32.831,19.454.973-.973-42.789-4.972-19.194a82.716,82.716,0,0,0-4.885-13.713L186.93,151.07Z" transform="translate(-87.19 -74.116)" fill="#f58220"/>
      <path id="Path_4240" data-name="Path 4240" d="M284.36,155.3l-4.89,26.58a53.557,53.557,0,0,0-.846,7.707l-.937,25.363c-.046,1.253-.056,2.511-.031,3.764l.688,30.951-19.454.973.861-37.96a63.48,63.48,0,0,1,.953-9.617l2.827-15.964a57.618,57.618,0,0,1,2.664-9.847l9.169-24.869Z" transform="translate(-127.013 -74.758)" fill="#f58220"/>
      <path id="Path_4241" data-name="Path 4241" d="M246.824,228.3l1.462,80.994S245.143,240.215,246.824,228.3Z" transform="translate(-120.85 -112.005)" fill="#d64d14"/>
      <path id="Path_4242" data-name="Path 4242" d="M236.33,98l4.167,21.517s0,11.079-15.613,10.881-15.419-10.881-15.419-10.881L205.71,90.08Z" transform="translate(-100.922 -44.194)" fill="#f7b897"/>
      <g id="Group_3076" data-name="Group 3076" transform="translate(114.054 48.286)" opacity="0.84">
        <path id="Path_4243" data-name="Path 4243" d="M227.517,106.944,223.9,94.79l21.354,5.522,4.167,21.517s0,6.877-7.641,9.678c-2.236-3.123-4.7-6.546-6.78-9.439a50.71,50.71,0,0,1-7.483-15.124Z" transform="translate(-223.9 -94.79)" fill="#e58064"/>
      </g>
      <path id="Path_4244" data-name="Path 4244" d="M238.878,51.446a16.937,16.937,0,0,1,8.853,13.372l1.07,11.36a3.311,3.311,0,0,1,.571,6.031l.739,7.865a8.5,8.5,0,0,1-1.477,5.756,8.308,8.308,0,0,1-7.4,3.469l-14.925-1.146A6.663,6.663,0,0,1,220.3,92.87l-5.7-27.339S219.572,41.146,238.878,51.446Z" transform="translate(-105.284 -23.995)" fill="#f7b897"/>
      <path id="Path_4245" data-name="Path 4245" d="M239.809,73l-.509,6.811s2.1.163,5.023.326,15.893-.326,15.893-.326l-1.136-5.675Z" transform="translate(-117.402 -35.814)" fill="#e58064"/>
      <path id="Path_4246" data-name="Path 4246" d="M232.6,55.912S222.462,41.68,213.966,43.794c-2.939.723-5.71,1.6-6.826,2.511,0,0-10.376-.188-13.193,6.536S190.539,71.4,192.021,75.2s9.388,14.166,9.388,14.166l3.51-7.264s-3.265-6.021-1.783-9.042,5.211-2.246,6.388,2.139l1.62,4.381,2.369.153s-1.049-8.079,1.543-13.015a8.41,8.41,0,0,0-.764-8.96l-2.43-3.24s-2.817-2.771.6-4.35S227.414,47.018,232.6,55.912Z" transform="translate(-93.82 -21.38)" fill="#282828"/>
      <path id="Path_4247" data-name="Path 4247" d="M255.274,109.637a1.472,1.472,0,0,0-1.457-1.3c-2.267,0-6.79.092-7.8.9-.632.509-1.742,1.284-2.741,1.961a7.687,7.687,0,0,1-4.844,1.324c-1.5-.1-3.153-.3-3.637-.713-.947-.815-4.192-9.607-4.192-9.607l-4.294.545s2.669,13.794,2.669,14.2c0,.107-.031.7-.071,1.5a13,13,0,0,0,4.8,10.865,3.876,3.876,0,0,0,.953.616c.9.3,5.685,1.335,8.15,1.854a10.009,10.009,0,0,0,3.968.061,8.9,8.9,0,0,0,5.018-2.465,9.361,9.361,0,0,1,.846-.79,9.368,9.368,0,0,0,3.245-5.395C256.431,120.171,255.631,112.653,255.274,109.637Z" transform="translate(-111.029 -50.14)" fill="#282828"/>
      <path id="Path_4248" data-name="Path 4248" d="M301.32,298.23l-13.076,37.328-5.344,1.457a8.039,8.039,0,0,0-3.805,2.313l-4.075,4.411a1.386,1.386,0,0,0,.83,2.308,4.482,4.482,0,0,0,3.489-1.1,3.871,3.871,0,0,1,3.413-.657h0l.586,7.9s7.442,2.6,17.671-4.218l18.45-47.022Z" transform="translate(-134.748 -146.313)" fill="#f7b897"/>
      <path id="Path_4249" data-name="Path 4249" d="M327,296.791s4.5-3.362,8,0C335.013,296.791,332.038,295.492,327,296.791Z" transform="translate(-160.428 -144.874)" fill="#e58064"/>
      <path id="Path_4250" data-name="Path 4250" d="M334.866,299.488s-3.005-1.569-5.226,0Z" transform="translate(-161.723 -146.588)" fill="#e58064"/>
      <path id="Path_4251" data-name="Path 4251" d="M159.12,259.739l46.61-8.619,6.755,16.2L162.762,281.49Z" transform="translate(-91.696 -123.201)" fill="#f7b897"/>
      <path id="Path_4252" data-name="Path 4252" d="M152.306,261.2,138.44,265.1S145.979,260.714,152.306,261.2Z" transform="translate(-67.919 -128.129)" fill="#e58064"/>
      <path id="Path_4253" data-name="Path 4253" d="M244.937,217.466l-6.148,21.9a2.252,2.252,0,0,0,2.185,2.863l12.928-7.641,4.911-17.625a1.192,1.192,0,0,0-1.2-1.569l-10.6.433A2.246,2.246,0,0,0,244.937,217.466Z" transform="translate(-117.109 -105.674)" fill="#fff2eb"/>
      <path id="Path_4254" data-name="Path 4254" d="M208.13,251l5.262-4.717a13.122,13.122,0,0,1,6.113-3.082l7.361-2.267-1.284,4.641,13.372-4.554h0a1.36,1.36,0,0,1,2.292,1.248l-.749,3.382-6.179,10.891a11.859,11.859,0,0,1-10.02,6.006l-7.554.509Z" transform="translate(-102.11 -118.052)" fill="#f7b897"/>
      <path id="Path_4255" data-name="Path 4255" d="M254.613,220.3l-1.019,3.438a.611.611,0,0,0,.6.79l2.751-.071a.606.606,0,0,0,.565-.423l1.1-3.438a.611.611,0,0,0-.6-.8l-2.807.071a.606.606,0,0,0-.591.433Z" transform="translate(-124.402 -107.835)" fill="#ffc7b6"/>
      <path id="Path_4256" data-name="Path 4256" d="M254.9,220.824l-1.019,3.438a.611.611,0,0,0,.6.79l2.751-.071a.606.606,0,0,0,.565-.423l1.1-3.444a.606.606,0,0,0-.6-.795l-2.807.071A.606.606,0,0,0,254.9,220.824Z" transform="translate(-124.544 -108.09)" fill="#ffe8df"/>
      <circle id="Ellipse_373" data-name="Ellipse 373" cx="0.698" cy="0.698" r="0.698" transform="translate(131.658 112.918)" fill="#fff2eb"/>
      <circle id="Ellipse_374" data-name="Ellipse 374" cx="0.698" cy="0.698" r="0.698" transform="translate(131.016 115.032)" fill="#fff2eb"/>
      <path id="Path_4257" data-name="Path 4257" d="M261.616,216.93l-11.054.509a.891.891,0,0,0-.82.662l-4.452,16.112,4.309-16.3a.9.9,0,0,1,.846-.672Z" transform="translate(-120.34 -106.427)" fill="#ffc7b6"/>
      <path id="Path_4258" data-name="Path 4258" d="M248.7,228.138a.194.194,0,0,0-.255.127l-.728,2.5a.188.188,0,0,0,.188.245h.025a.2.2,0,0,0,.178-.138l.713-2.5A.194.194,0,0,0,248.7,228.138Z" transform="translate(-121.529 -111.919)" fill="#ffc7b6"/>
      <path id="Path_4259" data-name="Path 4259" d="M250.569,222.144a.183.183,0,0,0-.255.122l-.611,2.1a.2.2,0,0,0,.138.245h0a.194.194,0,0,0,.234-.138l.6-2.1a.183.183,0,0,0-.107-.224Z" transform="translate(-122.502 -108.977)" fill="#ffc7b6"/>
      <path id="Path_4260" data-name="Path 4260" d="M256.387,254.754a4.285,4.285,0,0,0,3.688-2.1l-4.325,6.576A5.792,5.792,0,0,0,256.387,254.754Z" transform="translate(-125.472 -123.951)" fill="#e58064"/>
      <path id="Path_4261" data-name="Path 4261" d="M169.18,235.26s1.421-15.165,5.186-16.81Z" transform="translate(-83.001 -107.173)" fill="#ffdbcf"/>
      <path id="Path_4262" data-name="Path 4262" d="M313.19,219.763V208.24l2.919,24.329-2.038-6.785A21.1,21.1,0,0,1,313.19,219.763Z" transform="translate(-153.653 -102.164)" fill="#ffdbcf"/>
      <path id="Path_4263" data-name="Path 4263" d="M231.91,408.69v11.1a8.191,8.191,0,0,0,3.647,6.811l2.939,1.956-2.583-2.741a8.15,8.15,0,0,1-2.15-6.734l1.442-10.392Z" transform="translate(-113.776 -200.505)" fill="#060e1e"/>
      <path id="Path_4264" data-name="Path 4264" d="M246.909,448.22l-1.019-28.46S247.984,438.73,246.909,448.22Z" transform="translate(-120.635 -205.936)" fill="#060e1e"/>
      <path id="Path_4265" data-name="Path 4265" d="M267.28,122.75l7.162,1.88S269.175,132.148,267.28,122.75Z" transform="translate(-131.129 -60.222)" fill="#fff"/>
      <path id="Path_4266" data-name="Path 4266" d="M226.31,66.09s5.16,7.086.861,13.56C227.171,79.65,230.136,74.011,226.31,66.09Z" transform="translate(-111.029 -32.424)" fill="#001a2d"/>
      <path id="Path_4267" data-name="Path 4267" d="M224.516,73s2.72,5.537-.616,9.261A10.876,10.876,0,0,0,224.516,73Z" transform="translate(-109.846 -35.814)" fill="#001a2d"/>
      <path id="Path_4268" data-name="Path 4268" d="M220.189,76.63s1.61,4.839-1.88,6.851C218.284,83.481,220.434,82.137,220.189,76.63Z" transform="translate(-107.104 -37.595)" fill="#cc8071"/>
      <path id="Path_4269" data-name="Path 4269" d="M271.282,134.59s.978,5.308-1.462,8.186A28.791,28.791,0,0,0,271.282,134.59Z" transform="translate(-132.375 -66.031)" fill="#001a2d"/>
      <path id="Path_4270" data-name="Path 4270" d="M274.262,134.59s2.909,2.588,1.6,5.094a4.4,4.4,0,0,0-1.452-3.133s-.3,3.28-1.34,4.309Z" transform="translate(-133.97 -66.031)" fill="#001a2d"/>
      <path id="Path_4271" data-name="Path 4271" d="M219.141,104.07h0a.993.993,0,0,0-1.931.331.973.973,0,0,0,.158.54,1.829,1.829,0,0,1,.351,1.207,1.525,1.525,0,0,0,0,.219,1.411,1.411,0,1,0,2.8,0,1.656,1.656,0,0,0-.647-1.345,1.961,1.961,0,0,1-.734-.953Z" transform="translate(-106.564 -50.731)" fill="#e58064"/>
      <path id="Path_4272" data-name="Path 4272" d="M215.445,77.722l-2.119,1.33a4.62,4.62,0,0,1-1.528.739l-5.43,1.6a3.973,3.973,0,0,0-1.813,1.335l-2.72,3.418a3.021,3.021,0,0,1-1.971,1.33l-8.441,2.17a.9.9,0,0,1-1.192-.448h0a12.679,12.679,0,0,1-1.91-4.376L201.962,73.83Z" transform="translate(-92.391 -36.221)" fill="#fff"/>
      <path id="Path_4273" data-name="Path 4273" d="M224.168,36.344l-.28-2.257a1.656,1.656,0,0,0-1.487-1.37A72.583,72.583,0,0,0,211.754,32a23.432,23.432,0,0,0-9.5,3.209,6.449,6.449,0,0,0-2.43,2.083L198,39.237Z" transform="translate(-97.14 -15.698)" fill="#00305b"/>
      <path id="Path_4274" data-name="Path 4274" d="M240.134,55.94a.9.9,0,0,1,.82.978.856.856,0,0,1-.234.509,5.7,5.7,0,0,1-2.119,1.335c-1.656.433-19.26,2.038-23.32,2.465l-1.65-.316-3.6-1.391a4.04,4.04,0,0,0-3.005-.178l-5.573,1.294a4.834,4.834,0,0,0-2.725,1.778L196.907,64.5a3.005,3.005,0,0,1-1.966,1.335L186.79,67.4l.79-3.449s-2.863-12.934,4.921-22.475a12.006,12.006,0,0,1,8.15-4.126l7.371-.677a19.107,19.107,0,0,1,9.607,1.452,24.706,24.706,0,0,1,7.916,4.737c2.231,2.578,8,11.955,8,11.955Z" transform="translate(-91.64 -17.939)" fill="#00305b"/>
      <path id="Path_4275" data-name="Path 4275" d="M260.4,72.4s4.33,2.751-18.848,3.719C241.57,76.119,266.821,76.226,260.4,72.4Z" transform="translate(-118.506 -35.52)" fill="#282828"/>
      <rect id="Rectangle_2335" data-name="Rectangle 2335" width="179.536" height="132.361" rx="33.04" transform="matrix(0.005, -1, 1, 0.005, 222.692, 192.462)" fill="#00305b"/>
      <rect id="Rectangle_2336" data-name="Rectangle 2336" width="42.489" height="115.908" transform="translate(231.412 72.36) rotate(-89.64)" fill="#ec6608"/>
      <rect id="Rectangle_2337" data-name="Rectangle 2337" width="105.71" height="115.908" transform="translate(231.814 178.389) rotate(-89.427)" fill="#fff2eb"/>
      <circle id="Ellipse_375" data-name="Ellipse 375" cx="2.185" cy="2.185" r="2.185" transform="translate(284.823 15.46)" fill="#fff8f5"/>
      <rect id="Rectangle_2338" data-name="Rectangle 2338" width="15.226" height="52.437" rx="7.613" transform="translate(263.227 165.389) rotate(-89.83)" fill="#ec6608"/>
      <rect id="Rectangle_2339" data-name="Rectangle 2339" width="10.361" height="1.752" transform="matrix(1, -0.002, 0.002, 1, 238.427, 84.124)" fill="#ffdbcf"/>
      <rect id="Rectangle_2340" data-name="Rectangle 2340" width="65.717" height="1.752" transform="matrix(1, -0.002, 0.002, 1, 275.266, 84.066)" fill="#ffdbcf"/>
      <rect id="Rectangle_2341" data-name="Rectangle 2341" width="11.176" height="1.752" transform="matrix(1, -0.002, 0.002, 1, 260.637, 84.089)" fill="#ffdbcf"/>
      <rect id="Rectangle_2342" data-name="Rectangle 2342" width="24.268" height="1.752" transform="matrix(1, -0.002, 0.002, 1, 316.702, 78.571)" fill="#ffdbcf"/>
      <rect id="Rectangle_2343" data-name="Rectangle 2343" width="66.777" height="1.752" transform="matrix(1, -0.002, 0.002, 1, 238.413, 78.694)" fill="#ffdbcf"/>
      <rect id="Rectangle_2344" data-name="Rectangle 2344" width="19.714" height="1.752" transform="matrix(1, -0.002, 0.002, 1, 321.273, 89.424)" fill="#ffdbcf"/>
      <rect id="Rectangle_2345" data-name="Rectangle 2345" width="50.079" height="1.752" transform="matrix(1, -0.002, 0.002, 1, 238.435, 89.554)" fill="#ffdbcf"/>
      <rect id="Rectangle_2346" data-name="Rectangle 2346" width="21.013" height="1.752" transform="matrix(1, -0.002, 0.002, 1, 238.439, 94.984)" fill="#ffdbcf"/>
      <rect id="Rectangle_2347" data-name="Rectangle 2347" width="70.322" height="1.752" transform="matrix(1, -0.002, 0.002, 1, 270.673, 94.934)" fill="#ffdbcf"/>
      <path id="Path_4276" data-name="Path 4276" d="M494.6,126.237V121.77h2.017a2.28,2.28,0,0,1,.331.061,2.351,2.351,0,0,1,.28.1.9.9,0,0,1,.239.163,1.139,1.139,0,0,1,.173.224,1.05,1.05,0,0,1,.112.3,1.887,1.887,0,0,1,.036.4,1.448,1.448,0,0,1-.117.606.881.881,0,0,1-.346.387,1.59,1.59,0,0,1-.54.2,3.5,3.5,0,0,1-.734.061h-.683V126.2Zm.79-2.593h.667a2.711,2.711,0,0,0,.382,0,1.019,1.019,0,0,0,.285-.087.4.4,0,0,0,.194-.183.6.6,0,0,0,.066-.3.966.966,0,0,0,0-.178.871.871,0,0,0-.041-.138.26.26,0,0,0-.076-.107l-.1-.076a.306.306,0,0,0-.127-.046l-.143-.036h-1.1Z" transform="translate(-242.653 -59.741)" fill="#fff2eb"/>
      <path id="Path_4277" data-name="Path 4277" d="M504.171,126.257a2.155,2.155,0,0,1-1.645-.637,2.634,2.634,0,0,1,0-3.362,2.206,2.206,0,0,1,1.661-.621,2.134,2.134,0,0,1,1.615.632,2.3,2.3,0,0,1,.591,1.671,2.359,2.359,0,0,1-.6,1.7A2.129,2.129,0,0,1,504.171,126.257Zm0-.667a1.238,1.238,0,0,0,1.019-.428,2.246,2.246,0,0,0,0-2.43,1.472,1.472,0,0,0-2.068,0,1.824,1.824,0,0,0-.372,1.2,1.91,1.91,0,0,0,.351,1.233,1.268,1.268,0,0,0,1.054.423Z" transform="translate(-246.244 -59.674)" fill="#fff2eb"/>
      <path id="Path_4278" data-name="Path 4278" d="M512.49,126.287V121.82h.779v3.795h2.068v.667Z" transform="translate(-251.43 -59.765)" fill="#fff2eb"/>
      <path id="Path_4279" data-name="Path 4279" d="M519.38,126.307V121.84h.779v4.467Z" transform="translate(-254.81 -59.775)" fill="#fff2eb"/>
      <path id="Path_4280" data-name="Path 4280" d="M524.836,126.32a2.323,2.323,0,0,1-.841-.153,2.226,2.226,0,0,1-.713-.438,1.981,1.981,0,0,1-.509-.728,2.476,2.476,0,0,1-.183-.988,2.584,2.584,0,0,1,.127-.835,1.971,1.971,0,0,1,.336-.652,2.11,2.11,0,0,1,.509-.458,2.039,2.039,0,0,1,.591-.28,2.4,2.4,0,0,1,.632-.087,2.349,2.349,0,0,1,1.493.509l-.306.54a1.941,1.941,0,0,0-1.121-.357,1.325,1.325,0,0,0-.545.112,1.442,1.442,0,0,0-.769.835,1.99,1.99,0,0,0-.117.688,1.676,1.676,0,0,0,.413,1.187,1.386,1.386,0,0,0,1.055.453,1.941,1.941,0,0,0,1.238-.448l.26.616A2.465,2.465,0,0,1,524.836,126.32Z" transform="translate(-256.385 -59.706)" fill="#fff2eb"/>
      <path id="Path_4281" data-name="Path 4281" d="M532.114,126.352v-1.727l-1.584-2.746h.886l1.1,2.038,1.105-2.038h.912l-1.64,2.73v1.732Z" transform="translate(-260.281 -59.795)" fill="#fff2eb"/>
      <path id="Path_4282" data-name="Path 4282" d="M543.07,126.382V121.91h.825c1.416,2.038,2.165,3.163,2.257,3.3v-3.291h.744v4.467h-.8l-2.277-3.3v3.3Z" transform="translate(-266.433 -59.81)" fill="#fff2eb"/>
      <path id="Path_4283" data-name="Path 4283" d="M554.644,126.413a2.19,2.19,0,0,1-1.65-.637,2.379,2.379,0,0,1-.6-1.7,2.282,2.282,0,0,1,.611-1.666,2.206,2.206,0,0,1,1.656-.627,2.134,2.134,0,0,1,1.6.616,2.3,2.3,0,0,1,.6,1.666,2.384,2.384,0,0,1-.6,1.7A2.15,2.15,0,0,1,554.644,126.413Zm0-.667a1.279,1.279,0,0,0,1.019-.428,1.9,1.9,0,0,0,.362-1.228,1.849,1.849,0,0,0-.351-1.2,1.268,1.268,0,0,0-1.019-.433,1.3,1.3,0,0,0-1.044.428,1.772,1.772,0,0,0-.367,1.2,1.9,1.9,0,0,0,.352,1.233,1.268,1.268,0,0,0,1.034.433Z" transform="translate(-271.007 -59.748)" fill="#fff2eb"/>
      <path id="Path_4284" data-name="Path 4284" d="M562.48,129.945v-.835h.891v.83Z" transform="translate(-275.956 -63.342)" fill="#fff2eb"/>
      <path id="Path_4285" data-name="Path 4285" d="M569,127.441v-.581h1.941v.581Z" transform="translate(-279.154 -62.238)" fill="#fff2eb"/>
      <path id="Path_4286" data-name="Path 4286" d="M576.9,126.487l1.65-2.252-1.528-2.216H578l1.019,1.528,1.11-1.528h.9L579.5,124.2l1.584,2.3h-.973l-1.121-1.635-1.161,1.625Z" transform="translate(-283.03 -59.864)" fill="#fff2eb"/>
      <path id="Path_4287" data-name="Path 4287" d="M585.38,126.512l1.645-2.257L585.5,122.04h.973l1.019,1.528,1.105-1.528h.907l-1.564,2.17,1.579,2.3h-.968l-1.11-1.635-1.156,1.63Z" transform="translate(-287.19 -59.873)" fill="#fff2eb"/>
      <path id="Path_4288" data-name="Path 4288" d="M593.85,126.537l1.65-2.252-1.528-2.216h.973l1.019,1.528,1.105-1.528H598l-1.569,2.175,1.584,2.3h-.968l-1.085-1.63-1.161,1.63Z" transform="translate(-291.346 -59.888)" fill="#fff2eb"/>
      <path id="Path_4289" data-name="Path 4289" d="M602.33,126.567l1.65-2.257-1.528-2.211h.968l1.019,1.528,1.11-1.528h.9l-1.564,2.17,1.584,2.3H605.5l-1.105-1.64-1.161,1.63Z" transform="translate(-295.506 -59.903)" fill="#fff2eb"/>
      <path id="Path_4290" data-name="Path 4290" d="M613.061,126.629a1.941,1.941,0,0,1-1.411-.616l.407-.581a1.626,1.626,0,0,0,.474.392,1.116,1.116,0,0,0,.509.138.8.8,0,0,0,.586-.219.836.836,0,0,0,.239-.637.983.983,0,0,0-.158-.565.509.509,0,0,0-.428-.234.586.586,0,0,0-.509.2l-.779-.107V122.09h2.481v.667h-1.8l-.036,1.141a.942.942,0,0,1,.795-.285,1.111,1.111,0,0,1,.871.438,1.732,1.732,0,0,1,.27,1.615,1.346,1.346,0,0,1-.245.428,1.484,1.484,0,0,1-.367.3,1.432,1.432,0,0,1-.438.183,1.829,1.829,0,0,1-.464.056Z" transform="translate(-300.079 -59.898)" fill="#fff2eb"/>
      <path id="Path_4291" data-name="Path 4291" d="M620.375,126.624a2.674,2.674,0,0,1-1.156-.316l.285-.632a1.432,1.432,0,0,0,.81.265.881.881,0,0,0,.382-.071.983.983,0,0,0,.321-.229,1.064,1.064,0,0,0,.229-.413,2.038,2.038,0,0,0,.087-.611v-.071a1.019,1.019,0,0,1-.9.418,1.4,1.4,0,0,1-1.044-.4,1.457,1.457,0,0,1-.392-1.034,1.488,1.488,0,0,1,.423-1.085,1.528,1.528,0,0,1,1.105-.443,1.365,1.365,0,0,1,1.161.56,2.725,2.725,0,0,1,.4,1.63,3.6,3.6,0,0,1-.2,1.268,1.874,1.874,0,0,1-.6.861,1.452,1.452,0,0,1-.917.306Zm.138-2.313a.769.769,0,0,0,.581-.224.887.887,0,0,0,.224-.657.769.769,0,0,0-.2-.545.708.708,0,0,0-.545-.224.739.739,0,0,0-.565.229.856.856,0,0,0-.219.6.927.927,0,0,0,.183.6.662.662,0,0,0,.555.229Z" transform="translate(-303.684 -59.853)" fill="#fff2eb"/>
      <path id="Path_4292" data-name="Path 4292" d="M628.373,126.642a2,2,0,0,1-.784-.148,1.273,1.273,0,0,1-.545-.448,1.171,1.171,0,0,1-.2-.693,1.2,1.2,0,0,1,.2-.662,1.456,1.456,0,0,1,.56-.469,1.146,1.146,0,0,1-.667-1.019,1.044,1.044,0,0,1,.4-.861,1.854,1.854,0,0,1,2.078,0,1.1,1.1,0,0,1,.382.886,1.049,1.049,0,0,1-.662,1.019,1.431,1.431,0,0,1,.54.479,1.2,1.2,0,0,1,.209.672,1.1,1.1,0,0,1-.219.683,1.3,1.3,0,0,1-.555.433A1.945,1.945,0,0,1,628.373,126.642Zm0-.683a.83.83,0,0,0,.54-.158.621.621,0,0,0,.194-.509.728.728,0,0,0-.2-.509.6.6,0,0,0-1.019,0,.723.723,0,0,0-.214.509.6.6,0,0,0,.194.479.8.8,0,0,0,.5.188Zm0-2.038a.978.978,0,0,0,.474-.27.637.637,0,0,0,.173-.453.438.438,0,0,0-.183-.372.861.861,0,0,0-.932,0,.51.51,0,0,0-.173.4.6.6,0,0,0,.173.433.973.973,0,0,0,.458.275Z" transform="translate(-307.53 -59.866)" fill="#fff2eb"/>
      <path id="Path_4293" data-name="Path 4293" d="M636.259,126.65a1.447,1.447,0,0,1-.907-.28,1.609,1.609,0,0,1-.525-.795,3.314,3.314,0,0,1-.178-1.161,3.619,3.619,0,0,1,.122-.932,2.619,2.619,0,0,1,.341-.764,1.686,1.686,0,0,1,.571-.509,1.762,1.762,0,0,1,1.915.214l-.26.581a1.381,1.381,0,0,0-.871-.316.825.825,0,0,0-.7.4,1.879,1.879,0,0,0-.3,1.019,1.019,1.019,0,0,1,.891-.464,1.406,1.406,0,0,1,1.06.408,1.483,1.483,0,0,1,.392,1.09,1.528,1.528,0,0,1-.423,1.1A1.431,1.431,0,0,1,636.259,126.65Zm0-.662a.672.672,0,0,0,.54-.244.917.917,0,0,0,.209-.611,1.019,1.019,0,0,0-.183-.621.6.6,0,0,0-.509-.245.734.734,0,0,0-.586.244,1.019,1.019,0,0,0-.153.983.733.733,0,0,0,.178.27.831.831,0,0,0,.24.163.626.626,0,0,0,.245.061Z" transform="translate(-311.361 -59.863)" fill="#fff2eb"/>
      <path id="Path_4294" data-name="Path 4294" d="M643.659,126.676a1.319,1.319,0,0,1-1.156-.642,3.056,3.056,0,0,1-.407-1.712,2.918,2.918,0,0,1,.413-1.676,1.421,1.421,0,0,1,2.328,0,2.985,2.985,0,0,1,.4,1.666,4.025,4.025,0,0,1-.178,1.228,1.778,1.778,0,0,1-.509.82A1.314,1.314,0,0,1,643.659,126.676Zm0-.667c.509,0,.764-.555.769-1.676a4.4,4.4,0,0,0-.041-.6,2.546,2.546,0,0,0-.122-.509.881.881,0,0,0-.234-.372.535.535,0,0,0-.362-.132.586.586,0,0,0-.377.132.831.831,0,0,0-.245.367,2.265,2.265,0,0,0-.127.509,4.448,4.448,0,0,0-.046.606,5.17,5.17,0,0,0,.041.672,2.262,2.262,0,0,0,.127.509.831.831,0,0,0,.239.357.6.6,0,0,0,.392.138Z" transform="translate(-315.013 -59.874)" fill="#fff2eb"/>
      <path id="Path_4295" data-name="Path 4295" d="M512.51,106.1l.036-6.653h1.839l-.036,6.653Z" transform="translate(-251.44 -48.791)" fill="#fff2eb"/>
      <path id="Path_4296" data-name="Path 4296" d="M519.24,106.138l.036-6.648H521.9l2.078,4.737L524,99.5h1.579l-.036,6.622H523l-2.129-4.89-.031,4.88Z" transform="translate(-254.742 -48.81)" fill="#fff2eb"/>
      <path id="Path_4297" data-name="Path 4297" d="M536.088,104.017v.046a.9.9,0,0,0,.973.973,1.406,1.406,0,0,0,.81-.178.611.611,0,0,0,.28-.509c0-.341-.387-.606-1.161-.8l-.413-.107a4.233,4.233,0,0,1-1.773-.8,1.62,1.62,0,0,1-.453-1.238,1.686,1.686,0,0,1,.769-1.421,3.357,3.357,0,0,1,2.038-.54,3.423,3.423,0,0,1,2.038.509,1.665,1.665,0,0,1,.672,1.457v.112h-1.849v-.031a.835.835,0,0,0-.209-.627.846.846,0,0,0-.622-.214,1.019,1.019,0,0,0-.647.183.6.6,0,0,0-.245.509q0,.509,1.452.856l.6.153a2.766,2.766,0,0,1,1.34.7,1.692,1.692,0,0,1,.423,1.2,1.783,1.783,0,0,1-.795,1.528,3.963,3.963,0,0,1-2.277.509,3.179,3.179,0,0,1-2.038-.591,2.038,2.038,0,0,1-.7-1.681Z" transform="translate(-262.13 -48.778)" fill="#fff2eb"/>
      <path id="Path_4298" data-name="Path 4298" d="M548.338,99.65H550.2v3.963a1.594,1.594,0,0,0,.321,1.1,1.217,1.217,0,0,0,.963.377,1.279,1.279,0,0,0,.988-.382,1.529,1.529,0,0,0,.357-1.08V99.665h1.788v4.126a2.374,2.374,0,0,1-.841,1.951,3.744,3.744,0,0,1-2.414.667,3.347,3.347,0,0,1-2.272-.7,2.608,2.608,0,0,1-.749-2.038Z" transform="translate(-269.016 -48.889)" fill="#fff2eb"/>
      <path id="Path_4299" data-name="Path 4299" d="M562.89,106.4l.036-6.622h3a3.291,3.291,0,0,1,1.859.443,1.452,1.452,0,0,1,.616,1.279,1.564,1.564,0,0,1-.413,1.116,1.926,1.926,0,0,1-1.167.509v.036a1.436,1.436,0,0,1,.866.229,1.315,1.315,0,0,1,.453.754c.031.1.081.413.153.927a9.91,9.91,0,0,0,.275,1.365h-1.992c-.056-.321-.107-.693-.148-1.105s-.082-.672-.1-.769a.84.84,0,0,0-.275-.509,1.049,1.049,0,0,0-.627-.163h-.708v2.547Zm1.839-3.775h.728a1.528,1.528,0,0,0,.876-.183.759.759,0,0,0,.255-.642.688.688,0,0,0-.25-.6,1.4,1.4,0,0,0-.835-.188h-.764Z" transform="translate(-276.157 -48.947)" fill="#fff2eb"/>
      <path id="Path_4300" data-name="Path 4300" d="M576.94,106.482l2.608-6.622h2.241l2.588,6.663H582.34l-.453-1.309h-2.613l-.469,1.3Zm4.478-2.547-.825-2.776-.942,2.766Z" transform="translate(-283.05 -48.992)" fill="#fff2eb"/>
      <path id="Path_4301" data-name="Path 4301" d="M593.64,106.622l.036-6.622H596.3l2.078,4.737.031-4.737h1.574l-.046,6.622h-2.547l-2.134-4.9-.005,4.9Z" transform="translate(-291.243 -49.06)" fill="#fff2eb"/>
      <path id="Path_4302" data-name="Path 4302" d="M614.364,104.42v.056a1.849,1.849,0,0,1-.82,1.594,3.764,3.764,0,0,1-2.246.571,3.24,3.24,0,0,1-2.4-.876,3.332,3.332,0,0,1-.841-2.445,3.713,3.713,0,0,1,.881-2.639,3.321,3.321,0,0,1,2.547-.891,3.453,3.453,0,0,1,2.109.571,2.037,2.037,0,0,1,.779,1.63h-1.885a.9.9,0,0,0-.326-.657,1.238,1.238,0,0,0-.79-.239,1.105,1.105,0,0,0-1.019.55,3.132,3.132,0,0,0-.357,1.656,2.685,2.685,0,0,0,.341,1.528,1.151,1.151,0,0,0,1.019.509,1.212,1.212,0,0,0,.795-.245.953.953,0,0,0,.331-.693Z" transform="translate(-298.31 -48.952)" fill="#fff2eb"/>
      <path id="Path_4303" data-name="Path 4303" d="M622.42,106.732l.036-6.622h4.906v1.273h-3.107v1.355h2.965v1.268h-2.96v1.421h3.2v1.33Z" transform="translate(-305.362 -49.114)" fill="#fff2eb"/>
      <text id="Plans" transform="translate(276.449 160)" fill="#fff2eb" font-size="9" font-family="Muli" font-weight="600"><tspan x="0" y="0">Plans</tspan></text>
      <rect id="Rectangle_2348" data-name="Rectangle 2348" width="42.198" height="39.448" rx="19.724" transform="translate(208.261 103.198)" fill="#ffdbcf"/>
      <rect id="Rectangle_2349" data-name="Rectangle 2349" width="42.198" height="39.448" rx="19.724" transform="translate(269.725 103.198)" fill="#00305b"/>
      <rect id="Rectangle_2350" data-name="Rectangle 2350" width="42.198" height="39.448" rx="19.724" transform="translate(331.183 103.198)" fill="#ffdbcf"/>
      <path id="Path_4304" data-name="Path 4304" d="M382.709,241.958a1.136,1.136,0,0,1-.81-.336l-4.7-4.7a1.146,1.146,0,0,1,0-1.62l4.7-4.7a1.146,1.146,0,1,1,1.62,1.62l-3.892,3.892L383.519,240a1.146,1.146,0,0,1-.81,1.956Z" transform="translate(-184.89 -112.954)" fill="#ffdbcf"/>
      <path id="Path_4305" data-name="Path 4305" d="M746.557,230.29a1.146,1.146,0,0,1,.81.336l4.7,4.7a1.146,1.146,0,0,1,0,1.62l-4.7,4.7a1.146,1.146,0,0,1-1.62-1.62l3.892-3.892-3.892-3.892a1.146,1.146,0,0,1,.81-1.956Z" transform="translate(-365.703 -112.981)" fill="#00305b"/>
    </g>
  </g>
</svg>
