<svg id="Layer_2" data-name="Layer 2" xmlns="http://www.w3.org/2000/svg" width="466.158" height="268.365" viewBox="0 0 466.158 268.365">
  <g id="Layer_1" data-name="Layer 1">
    <path id="Path_4184" data-name="Path 4184" d="M399.858,98.056a8.111,8.111,0,0,1-6.016-7.725v-.159h0c0-27.861-23.945-50.456-53.487-50.462H62.994c-29.549,0-53.5,22.6-53.5,50.476h0c0,27.863,23.938,50.458,53.477,50.472h.005a7.824,7.824,0,0,1,6.35,3.144,6.9,6.9,0,0,1,.832,6.72A83.9,83.9,0,0,0,65.1,167.491a5.371,5.371,0,0,1-5.373,4.223h0C26.74,171.714,0,196.941,0,228.06H0c0,31.119,26.74,56.346,59.725,56.346H232.315a62.6,62.6,0,0,0,23.4-4.477,109.452,109.452,0,0,1,40.812-8.054h75.4c52.045.014,94.241-39.789,94.236-88.89h0c0-38.966-26.876-73.385-66.311-84.933Z" transform="translate(0 -16.042)" fill="#fff2eb"/>
    <path id="Path_4185" data-name="Path 4185" d="M473.57,222.248v-83.1H463.527v-67.2h-8.189v67.2h-8.344v-86.7H444.46v86.7h-5.579v-87.3h-5.895v87.3H395.021V124.067H391.2v15.085H378.773v-21.51h-8.636v21.486H361.2V127.422h-3.373v11.706H324.113V117.785H311.1v-9.977h3.064V105.65H311.1V90.219h3.064V88.061H311.1V72.446h3.064V70.282H311.1V54.833h3.064V52.7H311.1V37.275h3.064V35.111H311.1V29.8h-1.556v5.334h-13.2V19.669h17.815V17.523H296.35V0h-3.3V17.523H286.9V.691H283.4V17.523H273.273V1.788h-1.556V17.523H256.739V0h-1.746V17.523H241v2.146h13.983V35.111h-12.23V29.837H241v87.948h-5.239v17.457H223.809v41.346h-29.89V58.04H180.807V176.588H166.33V95.047h-7.748v81.541H144.813V71.641h-5.364V176.588H130.36v45.661Zm-159.9-90.994h3.5v4.22h-3.5Zm-4.124-13.47H307.8v-9.977h1.746Zm0-12.135H307.8V90.219h1.746Zm0-17.588H307.8V72.446h1.746Zm-13.2-50.787h13.2V52.7h-13.2Zm0,17.582h13.2V70.282h-13.2ZM286.9,19.669h6.163V35.111H286.9Zm0,17.588h6.163V52.7H286.9Zm0,17.577h6.163V70.258H286.9ZM283.4,78.281H286.9v7.188H283.4Zm0,16H286.9v8.434H283.4Zm0,17.243H286.9v8.457H283.4Zm0,17.243H286.9V137.2H283.4Zm-4.256,10.365h-5.1V128.787h5.1Zm0-16.581h-5.1v-11h5.1Zm0-17.243h-5.1v-11h5.1Zm0-17.243h-5.1v-11h5.1Zm-5.907-68.393h10.132V35.111H273.243Zm0,17.588h10.132V52.7H273.243Zm0,17.582h10.132V70.264H273.243Zm-16.5,80.4h-3.493v-6.455h3.493Zm0-15.264h-3.493v-8.434h3.493Zm0-17.243h-3.493V94.3h3.493Zm14.948-32.453H268.63V54.833h3.058Zm0-17.582H268.63V37.275h3.058ZM256.739,19.669h14.948V35.111H268.63V28.555h-3.493v6.556h-8.4Zm0,17.588h8.4V52.7h-8.4Zm0,17.582h8.4V70.264h-8.4Zm0,22.2v8.434h-3.493V77.059ZM242.757,37.275h12.236V52.7H242.757Zm0,17.582h12.236V70.282H242.757Zm0,17.588h3.111V88.061h-3.111Zm0,17.773h3.111V105.65h-3.111Zm0,17.588h3.111v9.977h-3.111Z" transform="translate(-52.663)" fill="#c7c1bf"/>
    <rect id="Rectangle_2334" data-name="Rectangle 2334" width="462.844" height="3.415" transform="translate(2.903 185.708)" fill="#ffdbcf"/>
    <path id="Path_4186" data-name="Path 4186" d="M309,422.276s17.916,19.9,45.238,22.172,179.848-22.762,179.848-22.762l58.052,1.192-59.19-58.117Z" transform="translate(-185.599 -195.841)" fill="#ffdbcf"/>
    <path id="Path_4187" data-name="Path 4187" d="M85.52,344.348s4.95,20.163,24.88,20.265l167.563-33.591,140.554,5.233,6.77-57.974-320.57,29.694-3.6,14.686C101.532,323.273,85.52,344.348,85.52,344.348Z" transform="translate(-34.549 -147.305)" fill="#ffdbcf"/>
    <path id="Path_4188" data-name="Path 4188" d="M440.172,251.856c-1.843-13.267-8.966-22.935-15.9-21.6a6.681,6.681,0,0,0-1.306.387L97.8,293.315l6.683,47.908,327.209-63.07v-.042C438.178,276.1,441.954,264.623,440.172,251.856Z" transform="translate(-39.51 -125.29)" fill="#fff8f5"/>
    <ellipse id="Ellipse_371" data-name="Ellipse 371" cx="14.99" cy="24.341" rx="14.99" ry="24.341" transform="translate(43.637 166.276) rotate(-9.3)" fill="#ffe6dc"/>
    <path id="Path_4189" data-name="Path 4189" d="M99.461,346.227a1.735,1.735,0,0,0-.381.077c5.96-.632,11.92,6.437,13.5,16.063s-1.848,18.238-7.671,19.531l.387-.048c6.056-1,9.661-9.769,8.052-19.609S105.523,345.232,99.461,346.227Z" transform="translate(-40.027 -175.418)" fill="#ffdbcf"/>
    <path id="Path_4190" data-name="Path 4190" d="M85.429,365.951c-1.573-9.632,1.848-18.238,7.671-19.531a1.082,1.082,0,0,0-.387.048c-6.056.989-9.661,9.769-8.052,19.609s7.826,17,13.887,16.015a1.734,1.734,0,0,0,.381-.077C92.993,382.646,87,375.577,85.429,365.951Z" transform="translate(-34.047 -175.562)" fill="#ffdbcf"/>
    <path id="Path_4191" data-name="Path 4191" d="M102.1,354.886a1.4,1.4,0,0,0-.274.054c4.172-.447,8.4,4.536,9.536,11.324s-1.3,12.856-5.406,13.768a.711.711,0,0,0,.274-.036c4.273-.7,6.812-6.884,5.68-13.816S106.372,354.182,102.1,354.886Z" transform="translate(-41.138 -178.499)" fill="#ffdbcf"/>
    <path id="Path_4192" data-name="Path 4192" d="M88.341,367.58c-1.323-8.112,1.556-15.359,6.461-16.45l-.328.042c-5.1.834-8.136,8.225-6.783,16.51s6.6,14.3,11.7,13.494l.322-.072C94.719,381.64,89.676,375.686,88.341,367.58Z" transform="translate(-35.296 -177.238)" fill="#ffdbcf"/>
    <path id="Path_4193" data-name="Path 4193" d="M97.653,371.374c-.7-4.279.817-8.106,3.409-8.684h-.173c-2.694.441-4.3,4.345-3.576,8.714s3.481,7.563,6.175,7.122l.167-.036C101,378.794,98.338,375.653,97.653,371.374Z" transform="translate(-39.243 -181.344)" fill="#ffdbcf"/>
    <path id="Path_4194" data-name="Path 4194" d="M119.2,314.394s3.231,32.966-12.489,36.536l327.731-63.345s11.47-10.621,8.017-31.815Z" transform="translate(-43.109 -136.666)" fill="#ffe6dc"/>
    <path id="Path_4195" data-name="Path 4195" d="M123.765,315.577s3.236,32.966-12.515,36.53l328.261-63.339s13.37-8.136,11.716-31.619Z" transform="translate(-44.943 -137.373)" fill="#fff8f5"/>
    <path id="Path_4196" data-name="Path 4196" d="M450.282,276.664c4.381,8.606,11.652,26.785,8.773,48.319-.054.405.721.441.84.042,2.086-7.152,1.091-33.109-8.773-48.677C450.884,275.961,450.1,276.265,450.282,276.664Z" transform="translate(-213.476 -141.378)" fill="#ec6608"/>
    <path id="Path_4197" data-name="Path 4197" d="M454.207,275.995c4.256,8.016,12.427,26.922,9.405,49.535-.054.405.721.441.84.042,2.14-7.331,1.526-34.736-9.423-49.91C454.773,275.3,454,275.614,454.207,275.995Z" transform="translate(-215.378 -141.171)" fill="#ec6608"/>
    <path id="Path_4198" data-name="Path 4198" d="M162.666,321.91l-35.236,8.255,178.733,17.72,47-12.552Z" transform="translate(-51.48 -162.027)" fill="#ffe6dc"/>
    <path id="Path_4199" data-name="Path 4199" d="M439.1,282.553l12.129-8.034,11.92-1.758L639.469,285.2s-4.655,7.748-10.728,10.174Z" transform="translate(-238.157 -136.978)" fill="#ffe6dc"/>
    <path id="Path_4200" data-name="Path 4200" d="M462.12,304.574c.78-13.41-4.276-24.741-11.3-25.307a6.726,6.726,0,0,0-1.343.03L120.507,252.81l-2.817,48.432L448.744,327.9v-.048C455.463,327.646,461.355,317.508,462.12,304.574Z" transform="translate(-47.545 -132.349)" fill="#fffef6"/>
    <ellipse id="Ellipse_372" data-name="Ellipse 372" cx="24.341" cy="14.99" rx="24.341" ry="14.99" transform="translate(55.349 170.877) rotate(-86.08)" fill="#fffef6"/>
    <path id="Path_4201" data-name="Path 4201" d="M120.877,263.13h-.387c5.918.739,10.132,8.988,9.471,18.721s-5.96,17.332-11.92,17.284c.125,0,.256.036.387.042,6.127.423,11.64-7.3,12.32-17.249S127,263.553,120.877,263.13Z" transform="translate(-47.686 -133.38)" fill="#fff2eb"/>
    <path id="Path_4202" data-name="Path 4202" d="M101.551,280.326c.668-9.739,5.96-17.338,11.92-17.284-.131,0-.256-.036-.387-.042-6.115-.4-11.61,7.325-12.314,17.279s3.737,18.345,9.858,18.763h.393C105.1,298.308,100.878,290.059,101.551,280.326Z" transform="translate(-40.68 -133.306)" fill="#fff2eb"/>
    <path id="Path_4203" data-name="Path 4203" d="M121.959,272.13h-.274c4.172.519,7.152,6.336,6.675,13.2s-4.172,12.218-8.41,12.165l.274.03c4.315.3,8.207-5.15,8.684-12.159S126.28,272.428,121.959,272.13Z" transform="translate(-48.458 -136.918)" fill="#fff2eb"/>
    <path id="Path_4204" data-name="Path 4204" d="M104.516,282.383c.56-8.2,5.024-14.6,10.049-14.537-.107,0-.215-.03-.328-.036-5.156-.352-9.8,6.151-10.377,14.525s3.147,15.455,8.3,15.806h.328C107.5,297.528,103.92,290.567,104.516,282.383Z" transform="translate(-41.935 -135.196)" fill="#fff2eb"/>
    <path id="Path_4205" data-name="Path 4205" d="M113.745,287.686c.3-4.327,2.652-7.706,5.3-7.671h-.173c-2.724-.185-5.173,3.248-5.477,7.671s1.663,8.154,4.381,8.344h.179C115.336,295.678,113.465,292.013,113.745,287.686Z" transform="translate(-45.799 -140.016)" fill="#fff2eb"/>
    <path id="Path_4206" data-name="Path 4206" d="M133.128,278s-3.251,32.96-19.318,32.185l332.855,26.821s13.283-7.242,14.028-28.805Z" transform="translate(-45.977 -143.464)" fill="#ffdbcf"/>
    <path id="Path_4207" data-name="Path 4207" d="M137.263,280.08s-3.257,32.96-19.353,32.185l333.471,26.773s14.663-4.321,17.62-27.625Z" transform="translate(-47.634 -144.531)" fill="#fffef6"/>
    <path id="Path_4208" data-name="Path 4208" d="M270.067,262.169c2.289,9.375,5.215,28.734-2.509,49.04-.143.381.6.6.811.232,3.665-6.485,8.624-31.982,2.581-49.392C270.794,261.627,269.96,261.74,270.067,262.169Z" transform="translate(-126.692 -134.089)" fill="#ec6608"/>
    <path id="Path_4209" data-name="Path 4209" d="M274.261,262.428c2.313,8.773,5.96,29.05-2.164,50.375-.143.375.6.6.811.232,3.755-6.652,9.423-33.472,2.235-50.751C274.97,261.88,274.154,262.017,274.261,262.428Z" transform="translate(-128.852 -134.363)" fill="#ec6608"/>
    <path id="Path_4210" data-name="Path 4210" d="M649.161,288.9c2.295,9.381,5.221,28.74-2.5,49.046-.143.381.6.6.811.232,3.666-6.491,8.624-31.988,2.581-49.4C649.906,288.366,649.06,288.479,649.161,288.9Z" transform="translate(-306.212 -147.784)" fill="#ec6608"/>
    <path id="Path_4211" data-name="Path 4211" d="M653.361,289.159c2.313,8.779,5.96,29.056-2.163,50.375-.143.381.6.6.811.232,3.755-6.646,9.423-33.466,2.235-50.745C654.053,288.617,653.254,288.742,653.361,289.159Z" transform="translate(-308.386 -148.07)" fill="#ec6608"/>
    <path id="Path_4212" data-name="Path 4212" d="M656,425.548l38.145,7.409L732.29,441.1s-9.262-29.264-21.856-31.118S656,425.548,656,425.548Z" transform="translate(-325.781 -214.056)" fill="#fff2eb"/>
    <path id="Path_4213" data-name="Path 4213" d="M385.68,431.036s40,11.116,54.833,10.371,98.533-20.741,98.533-20.741L518.3,385.84Z" transform="translate(-193.202 -204.357)" fill="#00305b"/>
    <path id="Path_4214" data-name="Path 4214" d="M686.431,395.79l11.581,7.808a10.335,10.335,0,0,1,4.548,8.177l.912,23.65-23.71-17.04s-4.446-2.593-12.594-.37-55.936,11.116-55.936,11.116-12.963,1.848-26.672-11.855Z" transform="translate(-296.92 -208.376)" fill="#fff"/>
    <path id="Path_4215" data-name="Path 4215" d="M326.411,406.4c-1.484,0-25.688,9.882-25.688,9.882s-.489,4.935,4.941,7.409,26.672,8.887,40.994,10.371,41.983-2.467,47.419-3.952,89.891-20.747,98.784-21.731,75.569-11.36,89.891-17.284c0,0,9.381-3.952,12.349-7.9l4.44-9.876s-1.478-5.96-10.371-4.941Z" transform="translate(-182.25 -197.252)" fill="#0f3057"/>
    <path id="Path_4216" data-name="Path 4216" d="M359.93,369.7s-46.43,25.188-50.381,28.15-9.876,6.419-8.893,13.339c0,0,27.661,21.731,86.422,10.371s105.7-26.672,132.369-30.623,70.628-13.828,77.047-24.7c0,0-6.914-12.344-34.569-10.371Z" transform="translate(-182.184 -192.161)" fill="#004a80"/>
    <path id="Path_4217" data-name="Path 4217" d="M394.756,377.14,367.84,401.1s7.653,19.013,31.362,19.752S561.456,394.18,561.456,394.18Z" transform="translate(-188.572 -192.261)" fill="#ec6625"/>
    <path id="Path_4218" data-name="Path 4218" d="M383.851,271.51l-.65,1.234a24,24,0,0,0-2.569,8.082l-1.544,11.67a37.042,37.042,0,0,1-7.8,18.3l-3.427,4.285s18.769,17.779,85.94,11.36,131.874-3.952,163.487-33.591l-2.3-16.092a38.358,38.358,0,0,0-5.537-15.055l-3.826-6.055a37.876,37.876,0,0,1-4.768-11.211c-3.034-12.349-13.112-42.991-41.34-62.725-36.053-25.194-83.967-18.274-107.176-9.387,0,0-58.731,18.947-65.806,90.225A24.437,24.437,0,0,1,383.851,271.51Z" transform="translate(-209.377 -97.314)" fill="#004a80"/>
    <path id="Path_4219" data-name="Path 4219" d="M595.467,273.1c22.815,0,43.205,11.026,56.687,28.323a69.746,69.746,0,0,0-59.762-34.074c-38.664,0-70,31.857-70,71.146q0,1.788.083,3.516C526.705,303.236,557.781,273.1,595.467,273.1Z" transform="translate(-258.676 -139.905)" fill="#0f3057"/>
    <path id="Path_4220" data-name="Path 4220" d="M404,344.6s3.928-.435,7.581,5.579a12.624,12.624,0,0,1,1.74,5.483l2.628,31.058.524-30.474a12.582,12.582,0,0,0-2.384-7.748A9.758,9.758,0,0,0,404,344.6Z" transform="translate(-191.652 -175.389)" fill="#0f3057"/>
    <path id="Path_4221" data-name="Path 4221" d="M762.11,316.07s7.969,20.491,6.258,33.013C768.368,349.083,771.783,330.333,762.11,316.07Z" transform="translate(-368.648 -159.866)" fill="#0f3057"/>
    <path id="Path_4222" data-name="Path 4222" d="M484.7,239.7s27.166-51.365,79.52-54.333,77.053,45.44,77.053,45.44-17.284-57.814-79.52-50.87S484.7,239.7,484.7,239.7Z" transform="translate(-252.212 -92.664)" fill="#0f3057"/>
    <path id="Path_4223" data-name="Path 4223" d="M504.59,190.316s38.527-35.064,92.114-15.556C596.7,174.76,551.759,151.3,504.59,190.316Z" transform="translate(-245.877 -84.248)" fill="#0f3057"/>
  </g>
</svg>
