<?xml version="1.0" encoding="UTF-8"?><svg id="Layer_2" xmlns="http://www.w3.org/2000/svg" xmlns:xlink="http://www.w3.org/1999/xlink" viewBox="0 0 622.85 464.48"><defs><style>.cls-1{fill:none;}.cls-2{clip-path:url(#clippath);}.cls-3{fill:#011428;}.cls-4{fill:#004a80;}.cls-5{fill:#010e1e;}.cls-6{fill:#00305b;}.cls-7,.cls-8{fill:#001e49;}.cls-9{fill:#021528;}.cls-10{fill:#00131e;}.cls-11{fill:#000407;}.cls-12{fill:#ec6625;}.cls-13{fill:#e57f63;}.cls-14{fill:#fff;}.cls-15{fill:#ffdbcf;}.cls-16{fill:#fff8f5;}.cls-17{fill:#ffc09e;}.cls-18{fill:#ffba97;}.cls-19{fill:#e7886b;}.cls-20{fill:#d84c07;}.cls-21{fill:#183357;}.cls-22{fill:#084c80;}.cls-8{opacity:.49;}</style><clipPath id="clippath"><rect class="cls-1" x="233.39" y="198.41" width="85.77" height="98.7"/></clipPath></defs><g id="Layer_1-2"><g><g><g><g><path class="cls-6" d="M281.79,289.99c2.2-2.92,5.67-4.62,9.33-4.62h28.76c3.35,0,5.47,3.6,3.84,6.53-2.57,4.61-6.07,11.12-9.2,17.79-5.84,12.42-5.64,34.55-5.64,34.55h-40.94s-1.53-17.26,4.8-37.05c2.36-7.37,6.17-13.37,9.05-17.19Z"/><rect class="cls-4" x="276.69" y="357.31" width="4.74" height="53.85"/><path class="cls-6" d="M250.96,344.23h57.91v1.21c0,6.55-5.31,11.87-11.87,11.87h-59.13c0-7.22,5.86-13.08,13.08-13.08Z"/><path class="cls-5" d="M287.27,289.99c2.2-2.92,5.67-4.62,9.33-4.62h28.76c3.35,0,5.47,3.6,3.84,6.53-2.57,4.61-6.07,11.12-9.2,17.79-5.84,12.42-5.64,34.55-5.64,34.55h-40.94s-1.53-17.26,4.8-37.05c2.36-7.37,6.17-13.37,9.05-17.19Z"/><path class="cls-5" d="M256.44,344.23h57.91v1.21c0,6.55-5.31,11.87-11.87,11.87h-59.13c0-7.22,5.86-13.08,13.08-13.08Z"/><path class="cls-14" d="M257.5,350.81c0,1.1-.89,1.98-1.98,1.98s-1.98-.89-1.98-1.98v-14.3h3.97v14.3Z"/><path class="cls-6" d="M264.49,331.5c0,2.77-2.24,5.01-5.01,5.01h-13.25c-2.77,0-5.01-2.24-5.01-5.01v-1.46h23.27v1.46Z"/><polygon class="cls-7" points="289 411.16 283.88 411.16 268.14 357.31 273.27 357.31 289 411.16"/><polygon class="cls-7" points="315.74 411.16 310.61 411.16 294.88 357.31 300.01 357.31 315.74 411.16"/><rect class="cls-4" x="237.88" y="357.31" width="4.74" height="53.85"/></g><polygon class="cls-18" points="228.26 398.76 220.78 410.17 206.18 410.17 215.26 394.59 228.26 398.76"/><path class="cls-18" d="M264.49,403.86c.12,.21,4.08,7.3,4.08,7.3h15.31l-6.01-11.51-13.37,4.21Z"/><path class="cls-11" d="M267.48,403.86l-15.14,3.13c-1.73,.22-3.24,1.29-4.01,2.85l-.77,1.56h36.12l.2-6.05c.03-.96-.87-1.68-1.8-1.43-2.52,.68-7.53,1.48-14.6-.06Z"/><g><path class="cls-10" d="M284.44,328.38c-.26-.05-29.29,9.78-46.14,15.5-6.18,2.1-9.01,9.22-5.97,14.99h0c2.25,4.25,7.07,6.46,11.76,5.38l47.46-10.95-7.12-24.93Z"/><polygon class="cls-10" points="252.86 347.27 232.34 358.87 264.49 405.63 281.27 400.73 252.86 347.27"/></g><path d="M247.05,380.27l13.8-17.95-7.32-11.51-10.91-7.58s-7.91,.1-11.02,7.54c0,0-3.28,5.91,4.62,13.75l10.83,15.74Z"/><path class="cls-3" d="M305.31,329.22s4.55,17.86-16.3,22.07l-27.61,3.55-35.07,48.44-19.08-.57,31.55-54.81c4.66-8.27,13.08-13.74,22.54-14.61l43.98-4.07Z"/><g><g><path class="cls-12" d="M471.28,208.95l-17.26,4.53c-1.4,.27-2.73,.8-4,1.53l3.33,41.37-1.27,9.59s-3.13,6.2-3.6,11.73c-.47,5.53,.8,30.38,.8,30.38h45.57l-4.2-34.31-.87-6.8,3.66-3s4.2-3.6,1.93-9.39l-3.66-27.98s-.27-4.73-3.86-7.6l-13.26-10.06h-3.33Z"/><path class="cls-20" d="M477.21,212.62s1.07,1.47,.53,2.8c0,0,2.2,.33,2.86,3.53,.67,3.2,1.67,7.2,6,8.13,0,0-2.86-15.92-9.39-14.46Z"/><path class="cls-20" d="M452.22,213.68l2.33,1c1.87,1.07,3.26,2.8,3.86,4.86,1,3.4,2.6,8.66,8.99,9.39l-1.53-2c1.87,1.8,4.26,2.86,6.86,3l3,.07,1.47-4.46-22.32-13.66-2.66,1.8Z"/><path class="cls-20" d="M487.53,226.41l1.33,16.46s-2.07-10.26-1.33-16.46Z"/><path class="cls-20" d="M453.89,263.45s-2.2,3.93-2.93,5.66l9.86-.27,9.19-2.33,3.33,2.47s3.33,3.66,5.66,4.06l10.06-3.8,.8-1-.2-6-35.78,1.2Z"/><path class="cls-20" d="M458.09,226.94s1.93,3.66,1.73,7.26,.6,18.32,.6,18.32l12.93,.73-4.06,6.26-18.45,1.33,7.26-33.91Z"/><path class="cls-9" d="M469.35,173.84s3.2-2.07,7-1c3.8,1.07,8.13,6.13,8.73,9.86s1.67,30.38,1.67,30.38c0,0-.2,3.8,1.53,4.93,0,0,3.46,1.93,1.73,4.46-1.73,2.53-1.53,3.46-.67,4.53-.8-.07-1.4-.67-1.53-1.47,0,0,1,4.53,.2,5.53s-2.73,.6-2.73,.6c0,0,2.07-.27,1.73-2.8-.27-2.53-4.06-3.2-4.73-7.06-.67-3.86-1-7.2-5.8-8.66l.73-19.79c.13-3.46-.73-6.93-2.4-9.93l-5.46-9.59Z"/><path class="cls-11" d="M477.74,178.11s5.26,1.6,5.53,12.66c.27,11.06-.13,20.79-.13,20.79,0,0,2.33,3.8-.13,7.26,0,0-.87,2.2-.6,3.46,0,0,0-7-4.8-8.46l-3.46-1.73,3.6-33.98Z"/><path class="cls-17" d="M478.94,195.1l-2.13,16.99s3.86,6.2-4.2,8.73l-5.33,.47-3.26-7.26-1-22.19,15.92,3.26Z"/><path class="cls-19" d="M472.28,210.75l5.46,4.6c0-1.2-.33-2.33-.93-3.33l2.13-16.99-13.26-2.73,1.27,8.86c.6,3.8,2.47,7.2,5.33,9.59Z"/><path class="cls-17" d="M460.09,184.3l2.33,11.33c.33,1.73,1.4,3.26,2.86,4.26l4,2.66c1.13,.73,2.47,1.13,3.86,1l1.73-.13c1.8-.13,3.4-1.13,4.4-2.6l1-1.53c1.07-1.6,1.6-3.46,1.53-5.4l-.47-10.66s-1.33-7.26-11.33-8.53l-9.93,9.59Z"/><path class="cls-9" d="M472.88,175.64s-1.33-2.07-3.46-2.4c-2.13-.4-5.06,.2-7.6,3s-4.66,8.13-5.13,10.59c-.47,2.4-1.93,4.53-1.87,7.86,.07,3.33,2.8,7.2,2.73,8.93-.07,1.07-.2,2.13-.47,3.2,0,0-3.13,.27-3.13,3.46,0,0-2.07,1.73-2.13,3.66l2.2-.47s4.66,1.73,5.93,5.26c1.27,3.46,2.33,9.86,7.46,10.19,0,0-4.06-1.33-4.06-5.8,0,0,1.67,6.13,10.19,6.33l2.53,.2s1.87-2.8,1.13-4.86c-.67-2.07-3.86-5.06-3.86-5.06,0,0,.27-2.53-3.4-5.33,0,0,.47-3.46-.6-5.46-1.07-1.93-5.33-6.8-5.6-10.66,0,0,.6-.2-.27-3-.87-2.8-2.4-5.26-2.4-7l5.86-8.66c.93-1.4,2.27-2.47,3.8-3.06l2.13-.93Z"/><path class="cls-12" d="M450.09,215.02s-4,2.07-5.26,6.53c-.93,3.33,0,27.52,.47,39.31,.13,3.6,3.06,6.4,6.66,6.4h0c3.66,0,6.66-2.93,6.8-6.6l.73-34.11-9.39-11.53Z"/><path class="cls-17" d="M490.53,256.52s4.4,2.73,3,7.46l-3.66,4.33c-.53,.6-1.2,1.07-2,1.27l-7.86,2.27c-.93,.27-1.93,0-2.66-.6l-3.13-2.8-.8-1.27-.93-.53c-.4-.2-.73-.6-.93-1l-1.53-2.93,1.13-.47,1.33,.87,8.06-1.87,7,.2,3-4.93Z"/><path class="cls-19" d="M488.33,263.58s3.06-1.13,3.2-3.06l.67-2.53c-.47-.6-1.07-1.07-1.67-1.53l-2.93,4.86-7-.2-8.06,1.87-1.33-.87-1.13,.47,1.4,2.66,9.46-1,7.4-.67Z"/><polygon class="cls-14" points="467.35 255.92 478.81 233.2 495.93 240.73 488.2 257.19 467.35 255.92"/><path class="cls-15" d="M479.61,234l-10.66,20.85c-.2,.4-.07,.93,.4,1.13,.13,.07,.27,.07,.33,.07l19.12,.53c.33,0,.67-.2,.8-.47l6.93-14.72c.2-.4,0-.93-.4-1.13h0l-15.46-6.73c-.4-.13-.87,.07-1.07,.47Z"/><circle class="cls-6" cx="481.27" cy="234.87" r=".53"/><circle class="cls-6" cx="482.87" cy="235.6" r=".53"/><path class="cls-5" d="M481.27,235.14c-.13,0-.2,0-.33-.07s-.2-.13-.27-.2l.13-.13c.07,.07,.13,.13,.2,.13,.4,.2,.93-.13,1.2-.73s.13-1.2-.27-1.4-.93,.13-1.2,.73l-.2-.07c.33-.67,.93-1.07,1.47-.8s.67,.93,.33,1.6c-.07,.53-.53,.87-1.07,.93Z"/><path class="cls-5" d="M482.8,235.8c-.2,0-.47-.07-.6-.27l.13-.13c.07,.07,.13,.13,.2,.13,.4,.2,.93-.13,1.2-.73s.13-1.2-.27-1.4c-.4-.2-.93,.13-1.2,.73l-.2-.07c.33-.67,.93-1.07,1.47-.8,.47,.27,.67,.93,.33,1.6-.13,.6-.67,.93-1.07,.93Z"/><circle class="cls-6" cx="485.34" cy="236.67" r=".53"/><circle class="cls-6" cx="486.87" cy="237.4" r=".53"/><path class="cls-5" d="M485.34,236.94c-.2,0-.47-.07-.6-.27l.13-.13c.07,.07,.13,.13,.2,.13,.2,.07,.47,.07,.67-.07,.53-.33,.8-.93,.67-1.53,0-.2-.2-.4-.4-.53-.4-.2-.93,.13-1.2,.73l-.2-.07c.33-.67,.93-1.07,1.47-.8,.27,.13,.47,.4,.47,.67,.13,.67-.2,1.33-.8,1.73-.07,.07-.27,.13-.4,.13Z"/><path class="cls-5" d="M486.87,237.6c-.2,0-.47-.13-.6-.27l.13-.13c.07,.07,.13,.13,.2,.13,.2,.07,.47,.07,.67-.07,.53-.33,.8-.93,.67-1.53,0-.33-.33-.6-.67-.6-.13,0-.27,.07-.33,.13-.27,.13-.47,.4-.53,.67l-.2-.07c.13-.33,.33-.53,.67-.73,.4-.27,.87-.2,1.13,.2,.07,.13,.13,.27,.13,.4,.07,.33,0,.67-.13,1s-.33,.6-.67,.73c-.13,.07-.33,.13-.47,.13Z"/><circle class="cls-6" cx="489.53" cy="238.53" r=".53"/><path class="cls-6" d="M491.13,238.73c.29,0,.53,.24,.53,.53s-.24,.53-.53,.53-.53-.24-.53-.53,.24-.53,.53-.53Z"/><path class="cls-5" d="M489.53,238.8c-.2,0-.47-.07-.6-.27l.13-.13c.07,.07,.13,.13,.2,.13,.4,.2,.93-.13,1.2-.73,.13-.27,.2-.6,.13-.87,0-.2-.13-.4-.4-.53-.4-.2-.93,.13-1.2,.73l-.2-.07c.33-.67,.93-1.07,1.47-.8,.27,.13,.47,.4,.47,.67,.07,.33,0,.67-.13,1-.2,.53-.67,.87-1.07,.87Z"/><path class="cls-5" d="M491.07,239.47c-.13,0-.2,0-.33-.07s-.2-.13-.27-.2l.13-.13c.07,.07,.13,.13,.2,.13,.4,.2,.93-.13,1.2-.73,.13-.27,.2-.6,.13-.87,0-.2-.13-.4-.4-.53-.4-.2-.93,.13-1.2,.73l-.2-.07c.33-.67,.93-1.07,1.47-.8,.27,.13,.4,.4,.47,.67,.07,.33,0,.67-.13,1-.2,.53-.67,.87-1.07,.87Z"/><circle class="cls-6" cx="493.66" cy="240.47" r=".53"/><circle class="cls-6" cx="495.26" cy="241.2" r=".53"/><path class="cls-5" d="M493.66,240.73c-.13,0-.2,0-.33-.07s-.2-.13-.27-.2l.13-.13c.07,.07,.13,.13,.2,.13,.4,.2,.93-.13,1.2-.73,.13-.27,.2-.6,.13-.87,0-.2-.13-.4-.4-.53-.4-.2-.93,.13-1.2,.73l-.2-.07c.33-.67,.93-1.07,1.47-.8,.27,.13,.47,.4,.47,.67,.07,.33,0,.67-.13,1-.07,.47-.53,.8-1.07,.87Z"/><path class="cls-5" d="M495.2,241.4c-.2,0-.47-.07-.6-.27l.13-.13c.07,.07,.13,.13,.2,.13,.4,.2,.93-.13,1.2-.73,.13-.27,.2-.6,.13-.87,0-.2-.2-.4-.4-.53-.4-.2-.93,.13-1.2,.73l-.2-.07c.33-.67,.93-1.07,1.47-.8,.27,.13,.47,.4,.47,.67,.07,.33,0,.67-.13,1-.13,.47-.53,.8-1.07,.87Z"/><path class="cls-17" d="M460.62,255.26l19.99-1.53,2.07-1c1.13-.53,2.4-.87,3.66-1l3.46-.33c.53-.07,1.07,.27,1.2,.8h0l.6,1.07c.27,.47,.33,1.13,.07,1.6l-.47,.93,.2,.73c.13,.53,0,1.07-.33,1.47l-.47,.6,.07,1.33c0,.6-.27,1.2-.8,1.53l-.6,.33h0c-.27,1.07-1.27,1.73-2.4,1.53l-6.53-1.07-20.25,4.2,.53-11.19Z"/><path class="cls-12" d="M451.69,253.66l12.13,.6s1.27,5.33-.4,8.26c-.8,1.53-1.73,2.93-2.73,4.4l-8.73,.4-.27-13.66Z"/><path class="cls-14" d="M471.34,196.49l5.86-.67s-2.53,5.33-5.86,.67Z"/><path class="cls-19" d="M473.88,190.63h-.27c.8,.67,.87,1.8,.2,2.6l-.33,.33c.13,.07,.27,.07,.4,.07,.8,0,1.47-.67,1.47-1.47s-.6-1.6-1.47-1.53h0Z"/><path class="cls-11" d="M459.09,191.03s-.6,4.26,4.66,7.2c0,.07-6.66-2.66-4.66-7.2Z"/><path class="cls-11" d="M469.95,214.35s-7.2-2.07-7.2-8.06c0,0,.73,4.33,7.2,8.06Z"/><path class="cls-11" d="M473.34,219.68s-7-.53-9.33-5.73c2.66,2.66,5.8,4.6,9.33,5.73Z"/><path class="cls-20" d="M459.09,253.99s-7.46-.47-8.53,2.6c0,.07,1.47-1.6,8.53-2.6Z"/><path class="cls-20" d="M449.49,256.46c.6-1.53,2-2.6,3.6-2.93-1.33,.8-2.53,1.8-3.6,2.93Z"/><path class="cls-20" d="M459.22,227.34s2.53,4.46,1.07,7c0,0,.13-3.86-1.07-7Z"/><path class="cls-20" d="M461.48,242.2s2.6,4.73,8.73,3.86c0,0-6.46,2.13-8.73-3.86Z"/></g><g><g class="cls-2"><g><g><path class="cls-7" d="M253.41,304.2l.12,4.75s-2.37,11.75-2.5,12.81-.12,9.25-.12,9.25l-1.19,18.24h22.43l.81-13.31,.94,12.93h26.24v-15.68l.25-1.19c.25-1.12,.25-2.31,.06-3.44l-3-16.06-1.06-7.5-42.99-.81Z"/><path class="cls-5" d="M254.22,307.89l-.69,1.69s10.06,4.75,20.31,4.75c0,0,16.12,0,22.06-3.81l-.12-1.87-41.55-.75Z"/><path class="cls-4" d="M270.59,318.32v11.25c0,1.25,.37,2.5,1.12,3.5l1.5,2-1.44-3.06c-.31-.69-.56-1.44-.56-2.25l-.62-11.43Z"/><path class="cls-6" d="M253.16,308.83s8.19,3.62,18.93,4.31,21.99-1.44,24.99-4.06l-.25-3.81-43.67-.94v4.5Z"/><path class="cls-16" d="M270.28,308.45l-.06,4.44c0,.25,.19,.44,.37,.44,1.19,.12,4.81,.44,7.25,.25,.25,0,.37-.19,.44-.44l.06-4.37-8.06-.31Z"/><path class="cls-7" d="M258.35,306.7c-.62,1.94-.75,4-.37,6l1.5,.5s-.06-5.12,.69-6.25l-1.81-.25Z"/><path class="cls-7" d="M288.71,307.76c.62,1.94,.75,4,.37,6l-1.5,.5s.06-5.12-.69-6.25l1.81-.25Z"/><path class="cls-12" d="M269.16,241.1l-12.62,6.12s-6.06,1.06-8.06,7c-1.5,4.37-7.19,26.49-10.06,37.68-.94,3.62,1.12,7.31,4.75,8.43h0c3.69,1.12,7.62-.94,8.75-4.62,.06-.12,.06-.25,.12-.37l1.81-7.25v11.43c0,.69-.19,1.31-.56,1.87h0c-.75,1.06-.75,2.44-.12,3.56l.44,.75c.69,.5,20.37,5.19,37.11,2.44,0,0,5.75-1.06,6.31-3.25l.19-4.94v-4.25l-.56-20.24,2.62,17.68c.62,4.12,4.5,7,8.62,6.37h.19c4-.69,6.75-4.44,6.25-8.5l-4.19-31.37s-1.37-10.31-9.12-13.25c-3.94-1.5-9.93-3.87-14.87-5.87-5.56-2.25-11.68-2-16.99,.56Z"/><path class="cls-20" d="M293.4,271.15l-12.31,.44s7,.87,12.31-.44Z"/><path class="cls-18" d="M285.65,277.34l23.06,8.62c3.5,1.31,5.31,5.19,4.12,8.68h0c-1.37,4-6.06,5.81-9.81,3.81l-22.06-12.06,4.69-9.06Z"/><path class="cls-20" d="M274.16,305.89l-.5-.19,2.06-6.19,.37-12.93-1-4c-.06-.37-.12-.75-.06-1.12l1.56-14.68v-17.12h.56v17.18l-1.56,14.75c-.06,.31,0,.62,.06,.94l1,4.12v.06l-.37,13.12-2.12,6.06Z"/><path class="cls-20" d="M294.09,283.65s-12.43,17.74-27.43,18.37c0,0,14.87-2.94,27.43-18.37Z"/><path class="cls-20" d="M274.34,309.45l-1.37-8.12s2.12,6.31,1.37,8.12Z"/><path class="cls-18" d="M266.47,232.16l3.06,12.87s4.25,3.62,7.25,4.56c0,0,6.69-3.25,8.62-8.12l-1.06-15.31-17.87,6Z"/><path class="cls-13" d="M280.22,235.91l1.12-8.81-14.87,5,3.06,12.87c1.56,1.31,3.25,2.5,5.06,3.56l3.31-5.75c1.19-2.06,2-4.44,2.31-6.87Z"/><g><circle class="cls-20" cx="278.65" cy="257.03" r=".75"/><circle class="cls-20" cx="276.72" cy="304.02" r=".75"/><circle class="cls-20" cx="278.65" cy="264.9" r=".75"/><path class="cls-20" d="M277.03,249.59l-2,1.5c-.62,.5-1.12,1.06-1.5,1.81l-1.5,2.94-4.75-8.25c-.25-.44-.44-.94-.5-1.44l-.25-1.56c-.12-.87,.06-1.75,.56-2.5l1.31-1.81,.75,3.12c.25,1.06,.87,2,1.75,2.69,1.5,1.12,3.94,2.87,6.12,3.5Z"/><path class="cls-20" d="M276.72,249.59l1.81,1.37c.75,.56,1.37,1.31,1.81,2.12l1.37,2.75,4.5-7.81c.44-.69,.69-1.5,.81-2.31l.31-2c.12-.87-.12-1.75-.69-2.44l-1.44-1.75-1,3c-.44,1.19-1.12,2.25-2.06,3.06-1.37,1.19-3.44,2.81-5.44,4Z"/></g><path class="cls-18" d="M283.65,221.42c-.12-.69-.44-1.31-.94-1.81-.75-.87-1.06-2-1-3.12h0c-.06-4.56-4.62-4.75-4.62-4.75,0,0-8.56,.19-11.56,2.37s-2.19,4.69-2.19,4.69l.37,8.19c-1.06,.37-1.81,1.37-1.75,2.5,0,1.44,1.06,2.56,2.37,2.56,.31,0,.56-.06,.81-.19l.19,.56c.5,1.75,1.56,3.31,3.06,4.44l2.44,1.81c1.44,1.12,3.31,1.56,5.12,1.25l1-.19c1.75-.31,3.25-1.31,4.25-2.75l1.75-2.56c.87-1.31,1.37-2.87,1.44-4.5l.06-1.87h.12c1.31,0,2.37-1.12,2.37-2.56s-1-2.5-2.31-2.56h0c-.06,.19-.19,.31-.37,.25-.12,0-.25-.12-.25-.25-.19-.44-.25-.94-.37-1.5Z"/><path class="cls-11" d="M282.9,213.48c-.94-1.5-2.75-5.62-12.12-3.87,0,0-5.62,1.31-7.62,5.06-2.06,3.75-.62,8.19-.62,8.19l1.25,4.19-.37-8.19s-.81-2.5,2.19-4.69,11.56-2.37,11.56-2.37c0,0,4.56,.19,4.62,4.75l-.06,1.12c0,.56,.19,1.12,.62,1.5,.69,.62,1.19,1.44,1.37,2.31,.12,.69,.25,1.31,.31,1.87,0,.12,.12,.25,.25,.25s.25-.12,.25-.25l.06-.37c0-1.06-.06-2.06-.19-3.06-.31-2.19-.87-5.5-1.5-6.44Z"/><path class="cls-20" d="M254.1,287.58l3.19-16.62c-.06,0-.56,10.43-3.19,16.62Z"/><path class="cls-20" d="M258.54,268.09s1.12,5.94-1.37,9l1.37-9Z"/><path class="cls-20" d="M296.65,275.84l-.87-11.37s-.75,6.06,.87,11.37Z"/><path class="cls-20" d="M294.9,262.78s-1.31,3.94,.12,6.87l-.12-6.87Z"/><path class="cls-14" d="M271.66,232.47l6.44-1.44c0,.06-2.12,6.31-6.44,1.44Z"/><path class="cls-13" d="M272.53,227.04c0-.25,.06-.44,.12-.62-.69,.44-.81,1.37-.37,2,.37,.56,1.19,.81,1.81,.5-.94-.12-1.56-.94-1.56-1.87Z"/><g><path class="cls-18" d="M284.65,274.09l-.62-2.31c-.19-.75,.19-1.56,1-1.81h0c.87-.31,1.81,.31,1.94,1.25l.5,4-2.81-1.12Z"/><path class="cls-18" d="M287.4,274.46v-3.37c0-.81,.69-1.5,1.5-1.5h0c.94,0,1.62,.87,1.44,1.81l-.81,4.12-2.12-1.06Z"/><path class="cls-18" d="M289.78,276.59v-3.37c0-.81,.69-1.5,1.5-1.5h0c.94,0,1.62,.87,1.44,1.81l-.81,4.12-2.12-1.06Z"/></g><path class="cls-18" d="M284.84,275.27l-.12-1c-.12-.69-.62-1.31-1.31-1.56l-1.56-.56c-.69-.25-1.5-.12-2.12,.31-.75,.56-1.56,1.56-1.19,3.19l6.31-.37Z"/><g><g><path class="cls-14" d="M269.66,274.71v16.93c0,.81,.62,1.44,1.44,1.37l22.99-.56c.75,0,1.37-.62,1.37-1.37v-16.93c0-.81-.62-1.44-1.44-1.37l-22.99,.56c-.75,0-1.37,.62-1.37,1.37Z"/><path class="cls-15" d="M270.03,275.21v16.93c0,.81,.62,1.44,1.44,1.37l22.99-.56c.75,0,1.37-.62,1.37-1.37v-16.93c0-.81-.62-1.44-1.44-1.37l-22.99,.56c-.81,0-1.37,.62-1.37,1.37Z"/><g><path class="cls-14" d="M273.47,278.21h-1.12c-.56,0-1-.44-1-1v-.94c0-.56,.44-1,1-1h1.12c.56,0,1,.44,1,1v.94c0,.5-.44,1-1,1Z"/><circle class="cls-15" cx="272.34" cy="276.09" r=".56"/><circle class="cls-15" cx="273.72" cy="276.96" r=".06"/><circle class="cls-15" cx="273.72" cy="276.52" r=".19"/><circle class="cls-15" cx="272.34" cy="277.34" r=".56"/></g></g><path class="cls-15" d="M273.28,272.96l-1.06,.06c-.31,0-.56,.25-.56,.56h0l2.19-.06h0c0-.31-.25-.56-.56-.56Z"/></g><path class="cls-18" d="M257.04,285.46l4.25-.87c.5-.12,.94-.31,1.37-.62l5.12-4.12c.25-.19,.56-.37,.87-.5l.94-.37,.25,.94,1.87-.25c.62-.06,1.25-.06,1.94,.06l3.37,.62c.5,.06,.87,.56,.75,1.06v.06h0c-.12,.37-.5,.69-.87,.69h-3.5c-.62,0-1.25,.12-1.81,.37l-1.75,.75,7.19,.25,2.25,.31c.62,.12,1.06,.69,.94,1.31h0c-.06,.56-.56,.94-1.06,1l-2.31,.06-7.25,.75,6.44,.25c.56,0,1.06,.12,1.62,.25l1.5,.37c.56,.12,.94,.69,.81,1.31h0c-.12,.56-.62,.94-1.12,.87l-2.37-.12h-.62l-6.19,.19,5.06,1.69,1.5,.94c.44,.25,.56,.81,.31,1.25,0,0,0,.06-.06,.06h0c-.25,.31-.62,.44-1,.37l-1.56-.44c-.62-.19-1.31-.25-1.94-.25l-3.44,.12c-.37,0-.81,0-1.19-.12l-2.37-.62c-.56-.12-2.75-.62-3.31-.5,0,0-7.19-4.44-4.62-7.12Z"/><path class="cls-5" d="M272.72,335.26l-.56,14s-3.81-.25-3.81,.12,4.37-14.12,4.37-14.12Z"/><path class="cls-13" d="M286.03,225.41c.12-.37-.06-.81-.44-.94-.37-.12-.81,.06-.94,.44-.06,.12-.06,.25-.06,.37,0,.19,0,.31-.06,.5,0,.06-.06,.12-.06,.12-.06,.31,.12,.62,.5,.69,.25,.06,.5-.12,.62-.37v-.12c.06-.19,.12-.31,.25-.5,.12,0,.12-.06,.19-.19Z"/><path class="cls-13" d="M263.91,229.16c-.25-.31-.69-.44-1-.19-.31,.19-.37,.56-.25,.87,.06,.19,.19,.31,.37,.37,.12,.06,.25,.19,.37,.37,0,.06,.06,.06,.06,.12,.19,.25,.56,.25,.81,.06,.19-.19,.25-.5,.06-.75,0-.06-.06-.06-.06-.12-.12-.12-.19-.31-.25-.5,0-.12-.06-.19-.12-.25Z"/><path class="cls-1" d="M284.59,222.98l-.44,.25c.19,.06,.37-.06,.44-.25h0Z"/><path class="cls-1" d="M263.72,226.23l.06,.81-.06-.81h0Z"/><path class="cls-18" d="M239.79,294.39h0c.81,4.06,4.69,6.69,8.12,5.56l20.68-6.5-3.19-9.75-20.93,3.25c-3.37,.44-5.44,3.75-4.69,7.44Z"/></g><path class="cls-11" d="M264.28,222.04c-.06-.25-.19-.5-.12-.81,.06-.25,.25-.5,.31-.75,.06-.44-.31-.87-.25-1.31,.06-.25,.25-.44,.37-.62,.12-.25,.19-.5,.31-.75,.31-.81,.81-1.62,1.5-2.19,.19-.19,.37-.31,.5-.5,.12-.12,.19-.31,.31-.44,.31-.31,.87-.19,1.19-.44,.19-.12,.31-.44,.56-.5,.25-.06,.5,.06,.75,.06,.19,0,.37-.12,.56-.25,.75-.37,1.69-.37,2.56-.44h2.06c1.06,0,2.19,0,3.25-.06,.81,0,1.81,.06,2.25,.69,.44,.56,.31,1.37,.44,2.06,.06,.31,.12,.56,.25,.81,.31,.75,.69,1.5,1.12,2.19,.81,1.44,1.37,2.69,2.37,4,.19-2,.5-4,0-5.94-.12-.37-.19-.69-.25-1.06-.12-.56,.25-.87-.12-1.5-.37-.69-.25-1.06-.37-1.37-.25-.62-1.06-.81-1.31-1.44-.56-1.25-.75-2.62-1.94-3.44-.5-.31-1.06-.56-1.56-.81-.81-.44-1.5-1.12-2.31-1.5-.62-.25-1.31-.31-2-.37-1.37-.12-2.69,.25-4.06,.25-1,0-1.94-.44-2.87-.25-.69,.12-1.12,.94-1.75,1.25-.94,.5-1.94,.62-2.69,1.31-.5,.5-1,1-1.44,1.5-.56,.62-.5,1.56-.87,2.37-.31,.75-1.06,1.25-1.19,2.06,0,.25-.06,.44,0,.69l.19,.56c.06,.44-.12,.87-.25,1.31-.44,1.75,.56,2.69,.56,4.44,0,.37,.12,1.56,.37,1.81,.69,.75,.94,1.06,1.12,1.19,.81,.56,1.94,4.06,1.87,2.94,0-.56,.75-3.81,.56-4.75Z"/><path class="cls-11" d="M274.66,234.85s1.25,.06,1.87-.62l.56,1.69-.56,.12s.19,.44-.25,.87l-.56-.5-.19,.5c-.12,0-.94-1.37-.87-2.06Z"/></g></g><rect class="cls-7" x="112.53" y="293.82" width="474.62" height="10.19"/><rect class="cls-7" x="116.58" y="304.01" width="468.03" height="42.44"/><rect class="cls-5" x="116.58" y="304.01" width="468.03" height="12.85"/><g><rect class="cls-4" x="385.54" y="274.84" width="44.31" height="18.93"/><g><path class="cls-5" d="M400.11,257.26s1.16,3.83,3.5,8.32c2.34,4.48,3.49,5.98,3.89,5.88,.4-.11-.1-1.78-2.43-6.27-2.34-4.48-4.96-7.92-4.96-7.92Z"/><path class="cls-5" d="M403.08,267.33c-3.89-3.54-7.71-6.03-7.71-6.03,0,0,2.48,3.25,6.36,6.79,3.89,3.54,5.56,4.62,5.93,4.41,.37-.21-.7-1.63-4.59-5.17Z"/><path class="cls-5" d="M401.8,269.52c-4.81-2.42-9.2-3.87-9.2-3.87,0,0,3.41,2.46,8.22,4.88,4.81,2.42,6.74,3.04,7.01,2.77,.27-.28-1.21-1.36-6.02-3.77Z"/><path class="cls-5" d="M400.84,271.32c-5.32-1.49-9.94-2.12-9.94-2.12,0,0,4,1.78,9.32,3.26,5.32,1.49,7.34,1.76,7.51,1.44,.17-.32-1.57-1.1-6.89-2.59Z"/><path class="cls-5" d="M400.14,272.94c-5.63-.68-10.33-.62-10.33-.62,0,0,4.42,1.16,10.05,1.83,2.5,.3,4.3,.46,5.53,.52h1.59c.42-.04,.62-.11,.64-.21,.08-.33-1.85-.85-7.48-1.52Z"/><path class="cls-5" d="M394.5,274.67h10.24c-1.16-.09-2.71-.15-4.71-.17-2.03-.02-3.93,.06-5.53,.17Z"/><path class="cls-5" d="M406.89,263.33c0,5.03,.35,6.81,.78,6.81s.78-1.78,.78-6.81-.78-9.11-.78-9.11c0,0-.78,4.08-.78,9.11Z"/><path class="cls-5" d="M407.8,271.34c.4,.11,1.56-1.39,3.89-5.88,2.34-4.48,3.5-8.32,3.5-8.32,0,0-2.62,3.44-4.96,7.92s-2.83,6.16-2.43,6.27Z"/><path class="cls-5" d="M407.62,272.4c.37,.21,2.05-.87,5.93-4.41,3.89-3.54,6.36-6.79,6.36-6.79,0,0-3.82,2.49-7.71,6.03-3.89,3.54-4.96,4.96-4.59,5.17Z"/><path class="cls-5" d="M407.47,273.19c.27,.28,2.19-.35,7.01-2.77,4.81-2.42,8.22-4.88,8.22-4.88,0,0-4.39,1.45-9.2,3.87-4.81,2.42-6.3,3.5-6.02,3.77Z"/><path class="cls-5" d="M407.57,273.8c.17,.32,2.19,.05,7.51-1.44,5.32-1.49,9.32-3.26,9.32-3.26,0,0-4.62,.63-9.94,2.12-5.32,1.49-7.06,2.27-6.89,2.59Z"/><path class="cls-5" d="M415.15,272.84c-5.63,.68-7.56,1.19-7.48,1.52,.08,.33,2.13,.37,7.76-.31,5.63-.68,10.05-1.83,10.05-1.83,0,0-4.7-.06-10.33,.62Z"/><path class="cls-5" d="M410.55,274.67h10.24c-1.6-.11-3.5-.19-5.53-.17-2,.02-3.55,.08-4.71,.17Z"/><rect class="cls-5" x="407.4" y="268.96" width=".96" height="5.71"/></g></g><g><g><circle class="cls-5" cx="520.28" cy="279.86" r="7.06" transform="translate(-57.13 154.93) rotate(-16.07)"/><rect class="cls-4" x="513.96" y="285.53" width="12.65" height="8.28"/></g><g><circle class="cls-5" cx="224.28" cy="279.86" r="7.06" transform="translate(-68.69 73) rotate(-16.07)"/><rect class="cls-4" x="217.96" y="285.53" width="12.65" height="8.28"/></g><g><rect class="cls-6" x="530.78" y="265.4" width="18.69" height="28.41"/><rect class="cls-5" x="530.78" y="265.4" width="4.46" height="28.41"/></g><g><rect class="cls-7" x="538.41" y="265.4" width="18.69" height="28.41"/><rect class="cls-5" x="538.41" y="265.4" width="4.46" height="28.41"/></g><g><rect class="cls-5" x="546.12" y="270.82" width="18.69" height="22.99"/><rect class="cls-6" x="546.12" y="270.82" width="4.46" height="22.99"/></g></g><g><path class="cls-4" d="M377.69,289.99c-2.2-2.92-5.67-4.62-9.33-4.62h-28.76c-3.35,0-5.47,3.6-3.84,6.53,2.57,4.61,6.07,11.12,9.2,17.79,5.84,12.42,5.64,34.55,5.64,34.55h40.94s1.53-17.26-4.8-37.05c-2.36-7.37-6.17-13.37-9.05-17.19Z"/><rect class="cls-4" x="378.04" y="357.31" width="4.74" height="53.85"/><path class="cls-4" d="M408.52,344.23h-57.91v1.21c0,6.55,5.31,11.87,11.87,11.87h59.13c0-7.22-5.86-13.08-13.08-13.08Z"/><path class="cls-5" d="M372.21,289.99c-2.2-2.92-5.67-4.62-9.33-4.62h-28.76c-3.35,0-5.47,3.6-3.84,6.53,2.57,4.61,6.07,11.12,9.2,17.79,5.84,12.42,5.64,34.55,5.64,34.55h40.94s1.53-17.26-4.8-37.05c-2.36-7.37-6.17-13.37-9.05-17.19Z"/><path class="cls-5" d="M403.03,344.23h-57.91v1.21c0,6.55,5.31,11.87,11.87,11.87h59.13c0-7.22-5.86-13.08-13.08-13.08Z"/><path class="cls-4" d="M401.98,350.81c0,1.1,.89,1.98,1.98,1.98s1.98-.89,1.98-1.98v-14.3h-3.97v14.3Z"/><path class="cls-4" d="M394.98,331.5c0,2.77,2.24,5.01,5.01,5.01h13.25c2.77,0,5.01-2.24,5.01-5.01v-1.46h-23.27v1.46Z"/><polygon class="cls-5" points="370.47 411.16 375.6 411.16 391.33 357.31 386.21 357.31 370.47 411.16"/><polygon class="cls-5" points="343.74 411.16 348.87 411.16 364.6 357.31 359.47 357.31 343.74 411.16"/><rect class="cls-4" x="416.86" y="357.31" width="4.74" height="53.85"/></g><g><g><rect class="cls-5" x="430.07" y="324.68" width="154.63" height="86.54"/><rect class="cls-6" x="430.07" y="324.68" width="95.18" height="86.54"/><rect class="cls-7" x="430.07" y="324.68" width="95.18" height="15.59"/><rect class="cls-7" x="430.07" y="370.22" width="95.18" height="15.59"/><rect class="cls-5" x="430.13" y="324.68" width="95.12" height="4.54"/><rect class="cls-5" x="430.1" y="365.67" width="95.84" height="4.54"/><rect class="cls-5" x="427.15" y="324.68" width="4.54" height="86.54"/><rect class="cls-5" x="430.07" y="406.67" width="95.45" height="4.54"/></g><g><g><rect class="cls-4" x="499.55" y="338.07" width="17.96" height="27.6"/><rect class="cls-7" x="513.22" y="338.07" width="4.29" height="27.6"/></g><g><rect class="cls-6" x="492.22" y="338.07" width="17.96" height="27.6"/><rect class="cls-7" x="505.9" y="338.07" width="4.29" height="27.6"/></g><g><rect class="cls-4" x="484.82" y="343.23" width="17.96" height="22.44"/><rect class="cls-7" x="498.49" y="343.23" width="4.29" height="22.44"/></g></g><g><g><rect class="cls-6" x="447.61" y="338.07" width="17.96" height="27.6"/><rect class="cls-7" x="461.28" y="338.07" width="4.29" height="27.6"/></g><g><rect class="cls-4" x="440.2" y="343.23" width="17.96" height="22.44"/><rect class="cls-7" x="453.88" y="343.23" width="4.29" height="22.44"/></g></g><g><g><rect class="cls-4" x="502.76" y="379.07" width="17.96" height="27.6"/><rect class="cls-7" x="516.44" y="379.07" width="4.29" height="27.6"/></g><g><rect class="cls-7" x="495.36" y="384.22" width="17.96" height="22.44"/><rect class="cls-5" x="509.03" y="384.22" width="4.29" height="22.44"/></g></g><g><g><rect class="cls-4" x="481.95" y="379.07" width="17.96" height="27.6"/><rect class="cls-5" x="495.62" y="379.07" width="4.29" height="27.6"/></g><g><rect class="cls-7" x="474.54" y="384.22" width="17.96" height="22.44"/><rect class="cls-5" x="488.22" y="384.22" width="4.29" height="22.44"/></g></g><g><g><rect class="cls-4" x="461.14" y="379.07" width="17.96" height="27.6"/><rect class="cls-6" x="474.81" y="379.07" width="4.29" height="27.6"/></g><g><rect class="cls-7" x="453.73" y="384.22" width="17.96" height="22.44"/><rect class="cls-6" x="467.4" y="384.22" width="4.29" height="22.44"/></g></g><rect class="cls-7" x="525.25" y="351.29" width="59.45" height="2.91"/><rect class="cls-7" x="525.25" y="379.85" width="59.45" height="2.91"/><rect class="cls-7" x="545.44" y="330.57" width="17.84" height="2.91"/><rect class="cls-7" x="545.44" y="358.89" width="17.84" height="2.91"/><rect class="cls-7" x="545.44" y="387.2" width="17.84" height="2.91"/></g><g><rect class="cls-5" x="116.58" y="324.68" width="59.45" height="86.54"/><rect class="cls-7" x="116.58" y="351.29" width="59.45" height="2.91"/><rect class="cls-7" x="116.58" y="379.85" width="59.45" height="2.91"/></g></g></g><path class="cls-11" d="M209.86,403.86l-15.14,3.13c-1.73,.22-3.24,1.29-4.01,2.85l-.77,1.56h36.12l.2-6.05c.03-.96-.87-1.68-1.8-1.43-2.52,.68-7.53,1.48-14.6-.06Z"/></g><rect class="cls-5" y="411.41" width="622.85" height="6.2"/></g><g><ellipse class="cls-8" cx="90.03" cy="454.07" rx="70.18" ry="10.41"/><g><path class="cls-18" d="M77.72,404.99c.04,.47-13.14,22.12-13.14,22.12,0,0,7.27,11.89,20.48,11.56l13.21-21.63-20.55-12.05Z"/><polygon class="cls-13" points="72.39 414.2 79.03 435.35 81.23 436.35 88.45 415.81 75.9 407.55 72.39 414.2"/><g><g><g><path class="cls-7" d="M66.05,422.53c-2.2,2.36-6.21,6.64-8.49,9.08-.95,1.02-.89,2.61,.14,3.55l6.53,6c.69,.63,1.6,.95,2.53,.88l2.18-.17s1.78,3.74,1.55,6.44l-.23,2.7v.04c-.42,1.92,1.07,3.71,3.03,3.73,6.17,.04,20.38,.12,20.23-.02-.18-.18,2.19-10.4-4.62-11.28l-5.49-9.78s-3.85,.86-10.57-3.93c-3.73-2.66-4.93-5.11-5.26-6.77-.14-.72-1.02-1-1.53-.46Z"/><path class="cls-5" d="M77.7,433.18l1.25,9.91c.05,.38,.06,.75,.03,1.13l-.61,7.61h4.37l-1.3-18.18s-1.92,.17-3.73-.47Z"/><path class="cls-14" d="M85.73,451.83h-13.32c-.8-.14-1.31-.91-1.25-1.71,.41-5.51-1.29-7.97-1.29-7.97-2.23-4.39-7.38-9.59-10.48-12.49-.67,.72-1.3,1.39-1.83,1.95-.95,1.02-.89,2.61,.14,3.55l6.53,6c.69,.63,1.6,.95,2.53,.88l2.18-.16s1.78,3.74,1.55,6.44l-.23,2.7v.04c-.42,1.92,1.07,3.71,3.03,3.73,6.17,.04,20.38,.12,20.23-.02-.09-.09,.4-2.45,.21-5-.54,.08-1.02,.25-1.43,.45-2.06,1-4.28,1.63-6.57,1.63Z"/></g><g><path class="cls-7" d="M82.31,437.93c-.14,0-.28-.06-.38-.18-.18-.21-.15-.53,.06-.7,.16-.14,1.64-1.36,3.05-1.11,.27,.05,.46,.31,.41,.58-.05,.27-.31,.46-.58,.41-.8-.14-1.89,.6-2.24,.89-.09,.08-.21,.12-.32,.12Z"/><path class="cls-7" d="M83.23,439.55c-.14,0-.28-.06-.38-.18-.18-.21-.15-.53,.06-.7,.16-.14,1.66-1.36,3.05-1.11,.27,.05,.46,.31,.41,.58-.05,.27-.31,.45-.58,.41-.81-.14-1.89,.6-2.24,.89-.09,.08-.21,.12-.32,.12Z"/><path class="cls-7" d="M84.06,441.18c-.14,0-.28-.06-.38-.18-.18-.21-.15-.53,.06-.7,.16-.14,1.66-1.35,3.05-1.11,.27,.05,.46,.31,.41,.58-.05,.27-.31,.45-.58,.41-.8-.14-1.89,.6-2.24,.89-.09,.08-.21,.12-.32,.12Z"/></g></g><path class="cls-7" d="M81.43,448.25s1.07-3.52,7.47-4.79c0,0-6.26,.17-7.47,4.79Z"/></g><path class="cls-18" d="M79.94,411.43l1.49,28.73s24.77-2.97,24.77-3.14-1.28-25.6-1.28-25.6h-24.97Z"/><path class="cls-3" d="M114.95,305.58l-45.58,100.61s10.57,14.53,29.5,15.85l50.58-107.9-34.5-8.57Z"/><path d="M107.65,322.3l4.94,70.48-13.72,29.27s-16.27-.93-24.87-10.92l1.32-18.09,32.32-70.74Z"/><g><path class="cls-3" d="M71.88,181.89l-2.02,14.29-6.25,33.87,3.21,9.53,3.06,69.25c.45,10.25,8.89,18.33,19.15,18.33h0c9.7,0,17.87-7.24,19.03-16.87l8.4-69.46-2.61,65.42c-.41,10.38,7.78,19.07,18.17,19.26h0c9.97,.18,18.3-7.56,18.84-17.52l4.36-80.06s0-15.54-.24-17.56-1.67-20.69-1.67-20.69l.24-9.05-81.68,1.25Z"/><path d="M130.15,311.7s5.76,7.25,16,4.05c0,0-10.88,7.04-16-4.05Z"/><path d="M73.07,189.15l-.24,3.51c11.31,7.26,41.91,7.26,41.91,7.26,19.59,0,38.64-9.05,38.64-9.05l-1.25-3.27-79.06,1.55Z"/><polygon class="cls-5" points="70.68 189.8 70.33 194.15 73.07 208.74 76.34 204.98 74.08 192.19 70.68 189.8"/><path class="cls-5" d="M119.86,229.27c-.06,1.49-.48,2.92-1.07,4.29l-2.8,5.77,2.86-3.81c1.43-1.91,2.2-4.23,2.2-6.61v-21.43l-1.19,21.79Z"/><path class="cls-6" d="M154.09,180.81l-82.93,1.85-.48,7.2c5.66,5,27.09,9.05,47.51,7.68,20.42-1.31,35.96-8.22,35.96-8.22l-.06-8.51Z"/><path class="cls-16" d="M106.23,189.15l.18,8.33c0,.42,.36,.77,.77,.83,4.64,.48,11.49-.18,13.75-.42,.42-.06,.77-.42,.77-.83l-.06-8.39-15.42,.48Z"/><path class="cls-7" d="M140.75,185.82c1.49,2.2,1.31,11.85,1.31,11.85l2.86-1.01c.71-3.81,.48-7.68-.65-11.37l-3.51,.54Z"/><path class="cls-7" d="M90.09,187.84c-1.49,2.2-1.31,11.85-1.31,11.85l-2.86-1.01c-.71-3.81-.48-7.68,.65-11.37l3.51,.54Z"/><path class="cls-12" d="M92.18,59.79c-9.41,3.75-20.84,8.28-28.28,11.13-14.64,5.66-17.32,25.18-17.32,25.18l-7.92,59.59c-1.01,7.68,4.23,14.76,11.85,16.13h0c.12,0,.24,.06,.36,.06,7.86,1.19,15.24-4.29,16.37-12.14l5-33.52-1.13,38.46c0,.18-.06,.36-.06,.54v7.62l.36,9.35c1.01,4.17,11.97,6.19,11.97,6.19,31.91,5.18,69.24-3.63,70.55-4.64l2.92-4.88-3.39-4.88v-23.69l3.39,13.75c.06,.24,.12,.48,.18,.77,2.14,7.02,9.64,10.95,16.67,8.81h0c6.79-2.08,10.72-9.11,8.99-16.01-5.42-21.25-16.25-63.22-19.05-71.62-3.75-11.31-15.3-13.34-15.3-13.34l-23.93-11.67c-10.12-4.88-21.79-5.3-32.21-1.19Z"/><path class="cls-20" d="M152.13,169.27l-8.22,6.19-12.38-10.72,6.79-.83c1.79-.24,3.45-.95,4.76-2.2l9.82-8.87-.77,16.43Z"/><polygon class="cls-20" points="149.68 135.15 153.43 150.33 153.26 158.97 149.33 160.81 146.35 117.41 149.68 135.15"/><path class="cls-20" d="M128.55,176.47c-28.58-1.19-52.15-34.95-52.15-34.95,23.87,29.41,52.15,34.95,52.15,34.95Z"/><path class="cls-20" d="M116.52,175.1l-2.62,15.42c-1.49-3.39,2.62-15.42,2.62-15.42Z"/><path class="cls-20" d="M157.6,170.69s-22.68,2.02-22.38,1.96-22.56,8.22-22.56,8.22l-.06,.65v.48c.12,1.07,1.13,1.79,2.2,1.67l2.56-.3s7.68-.06,8.28,.18c.36,.12,2.56-.54,4.29-1.07,1.49-.48,3.16-.42,4.64,.12l9.76,3.75c1.43-.06,9.05-2.32,9.05-2.32l3.16-5.54,1.07-7.8Z"/><path class="cls-16" d="M105.69,81.93c1.91,8.99-.24,59.83-.95,74.59-.12,2.68,.3,5.3,1.25,7.8l4.11,10.95c.18,.42,.42,.71,.77,.95,.95,.65,2.2,.42,2.86-.54,2.32-3.33,4.17-7.56,5.36-10.54,.95-2.38,1.37-4.94,1.37-7.5-.48-22.15-6.73-74.95-6.73-74.95l-8.04-.77Z"/><path class="cls-16" d="M109.32,76.81l-9.23-3.16,.71,4.46c.3,1.73,1.07,3.39,2.2,4.7l4.23,4.76,5.66-.36,2.56-3.16c1.73-2.08,2.44-4.76,1.96-7.44l-.3-1.79-7.8,1.96Z"/><path class="cls-20" d="M96.16,50.2l-4.82,2.44c-2.26,1.13-4.05,3.16-4.82,5.6l-1.31,3.87c-.48,1.37-.42,2.8,.06,4.17l4.88,12.98c3.75,.54,11.79-3.87,11.79-3.87l7.92,2.92,5.36-2.92c.6-.3,1.25-.48,1.91-.54l1.96-.12c.83-.06,1.61-.42,2.14-.95l1.25-1.25,7.8,5.42c.83-3.27-.12-11.07-.65-14.82-.18-1.37-.83-2.56-1.79-3.57l-3.81-3.93-27.86-5.42Z"/><path class="cls-18" d="M94.91,32.28l-2.02,29.11c3.69,9.17,16.37,15.36,16.37,15.36,5.72-1.85,13.69-8.69,13.69-8.69l5.83-24.41-33.87-11.37Z"/><path class="cls-13" d="M107.12,64.01l6.31,10.89c3.39-2.02,6.55-4.29,9.58-6.79l5.83-24.41-28.28-9.47,2.14,16.67c.6,4.58,2.08,9.05,4.41,13.1Z"/><path class="cls-18" d="M95.63,26.21c-.06,.24-.24,.48-.48,.54-.36,.06-.65-.18-.77-.48h0c-2.44,.06-4.35,2.2-4.35,4.88s2.02,4.88,4.52,4.88h.18l.12,3.51c.12,3.04,1.07,6.01,2.8,8.51l3.27,4.82c1.85,2.74,4.76,4.64,8.04,5.24l1.96,.36c3.39,.6,6.91-.24,9.7-2.32l4.58-3.51c2.8-2.08,4.82-5.06,5.77-8.39l.3-1.07c.48,.18,1.01,.3,1.55,.3,2.5,0,4.52-2.2,4.52-4.88,.06-2.14-1.31-4.05-3.33-4.7l.71-15.6s1.49-4.76-4.17-8.93c-5.66-4.17-21.97-4.46-21.97-4.46,0,0-8.63,.36-8.75,9.05h0c.18,2.14-.54,4.29-1.91,5.95-.83,1.01-1.43,2.2-1.73,3.45-.3,1.01-.48,1.96-.6,2.86Z"/><path class="cls-11" d="M94.74,36.03l.12,3.51c.12,3.04,1.07,6.01,2.8,8.51l3.27,4.82c1.85,2.74,4.76,4.64,8.04,5.24l1.96,.36c3.39,.6,6.91-.24,9.7-2.32l4.58-3.51c2.8-2.08,4.82-5.06,5.77-8.39l.3-1.07,2.74-9.29,.06-1.55c-.12,.3-1.79,3.81-2.5,5.24-.42,.83-.89,1.61-1.43,2.32-.42,.65-1.01,1.25-1.61,1.73l-3.1,2.44s-4.41-3.63-7.38-4.88c-1.91-.77-6.13-1.25-9.05-1.43-1.91-.12-3.81,.24-5.54,1.07l-2.2,1.13-2.26-2.68c-1.43-1.67-2.32-3.75-2.68-5.89l-.83-4.41-.36-.24h0c-.36,.06-.65-.12-.77-.48,0,0,.95,7.2,.36,9.76Z"/><path class="cls-11" d="M94.8,20.37c-.3,1.96-.42,3.93-.42,5.89l.18,.71c0,.24,.24,.48,.48,.48s.48-.24,.48-.48c.18-1.07,.36-2.32,.65-3.63,.42-1.73,1.31-3.21,2.62-4.41,.77-.71,1.25-1.79,1.19-2.86l-.12-2.14c.12-8.63,8.75-9.05,8.75-9.05,0,0,16.31,.36,21.97,4.52s4.17,8.87,4.17,8.87l-.71,15.6,2.32-7.98s2.74-8.39-1.13-15.54S120.63,.79,120.63,.79c-17.8-3.27-21.31,4.52-23.1,7.38-1.13,1.91-2.14,8.16-2.74,12.2Z"/><path class="cls-20" d="M146.35,117.41l6.01,31.61c-5-11.79-6.01-31.61-6.01-31.61Z"/><path class="cls-20" d="M73.07,105.15l-1.61,21.55c3.16-10.06,1.61-21.55,1.61-21.55Z"/><path class="cls-20" d="M74.61,114.91c2.74-5.54,.24-13.04,.24-13.04l-.24,13.04Z"/><polygon class="cls-18" points="66.82 199.45 73.07 208.74 63.54 230.29 59.55 222.25 55.8 213.74 66.82 199.45"/><polygon class="cls-13" points="56.16 214.39 58.06 219.15 73.07 208.74 72.35 207.37 56.16 214.39"/><polygon class="cls-12" points="38.78 160.45 55.27 216.59 73.72 207.96 67.05 160.69 38.78 160.45"/><g><path class="cls-20" d="M58.18,162.54s4.35-3.57,8.63-.65c0-.06-2.62-1.31-8.63,.65Z"/><path class="cls-20" d="M54.25,161.65s3.81-2.32,7.86-1.19c0,0-3.93-3.39-7.86,1.19Z"/></g><path class="cls-14" d="M106.76,41.69l12.2,2.68c-8.16,9.17-12.2-2.68-12.2-2.68Z"/><path class="cls-13" d="M114.32,37.58c1.25,.6,2.68,.18,3.45-.95,.89-1.25,.54-2.98-.71-3.87,.18,.42,.24,.83,.24,1.25,0,1.79-1.25,3.27-2.98,3.57Z"/><path class="cls-12" d="M165.28,149.5l-24.41,17.2c-2.86,10.72,.54,15.3,3.1,17.2,1.25,.89,2.8,1.01,4.17,.48l25.84-10.89-8.69-23.99Z"/><path class="cls-20" d="M141.53,180.1c2.32,4.41,5.6,4.11,5.6,4.11,2.5-.6,4.46-3.33,4.35-3.51-.24-6.43-3.51-12.56-5.42-14.11-1.91-1.61-2.32-1.43-2.32-1.43l-1.67,1.31-.54,13.63Z"/><path class="cls-21" d="M102.71,176.35l.54,3.99c.12,.71,.6,1.31,1.25,1.55,4.76,1.67,10.12,.54,12.26-.06,.65-.18,1.13-.65,1.31-1.31l.71-2.5-16.07-1.67Z"/><path class="cls-22" d="M99.14,151.23l2.8,27.21c.06,.65,.54,1.25,1.13,1.43,8.1,2.98,13.69,1.01,15.66,.06,.54-.24,.89-.71,.95-1.31l4.11-25.18c-12.14-6.79-24.65-2.2-24.65-2.2Z"/><g><path class="cls-16" d="M105.09,165.69c-.3,2.14,1.07,4.41,3.1,5.24s4.46,.3,6.07-1.19,2.32-3.81,2.02-5.95c-.18-1.37-.71-2.92,.18-3.93-.89,.36-1.37,1.37-1.43,2.32s.18,1.91,.24,2.86c.06,1.43-.42,2.98-1.49,3.87-1.13,.89-2.68,1.07-4.17,.95-1.07-.12-2.2-.36-2.8-1.19s-.54-2.02-.24-3.04c.18-.6,1.61-4.88,0-4.64-.42,0-1.37,3.99-1.49,4.7Z"/><path class="cls-16" d="M107.42,165.63c-.18,1.31,.65,2.62,1.85,3.16,1.19,.48,2.68,.18,3.63-.71s1.37-2.26,1.19-3.57c-.12-.83-.42-1.73,.12-2.32-.54,.18-.83,.83-.83,1.37-.06,.6,.12,1.13,.12,1.73,.06,.83-.24,1.79-.89,2.32s-1.61,.65-2.5,.54c-.6-.06-1.31-.24-1.67-.71-.36-.48-.3-1.19-.18-1.79,.12-.36,.95-2.92,0-2.8-.24,0-.77,2.38-.83,2.8Z"/></g><path class="cls-21" d="M99.14,151.17l.3,3.04c3.87,5.06,23.81,2.56,23.81,2.56l.54-3.39-24.65-2.2Z"/><path class="cls-22" d="M125.87,153.49v-1.49c0-.3-.18-.54-.42-.65l-1.43-.65-.95-1.61c-1.91-3.21-5.36-5.18-9.05-5.18h-5.06c-3.27,0-6.37,1.55-8.39,4.17l-1.25,1.67-1.61,.65c-.3,.12-.48,.42-.48,.71v1.96c0,.3,.18,.6,.48,.71,6.01,2.62,23.87,.95,27.56,.6,.3-.18,.6-.54,.6-.89Z"/><ellipse class="cls-21" cx="111.52" cy="145.87" rx="6.61" ry="1.55"/><path class="cls-18" d="M151.59,180.46l-.95,.89c-.83,.77-2.02,1.13-3.21,.95l-12.44-2.26c-.95-.18-1.96-.12-2.92,.12l-4.23,1.07c-.65,.18-1.37,.24-2.08,.24l-6.07-.24c-1.13-.06-2.32,.12-3.45,.42l-2.74,.77c-.65,.18-1.37-.06-1.73-.6h0c0-.06-.06-.06-.06-.12-.48-.77-.24-1.79,.54-2.2l2.68-1.61,9.05-3.04-11.01-.3h-1.07l-4.23,.24c-1.01,.06-1.85-.65-2.02-1.61h0c-.18-1.01,.42-2.02,1.43-2.26l2.68-.65c.95-.24,1.91-.36,2.86-.42l11.43-.42-12.86-1.31-4.17-.12c-1.01-.06-1.79-.77-1.96-1.73h0c-.18-1.07,.6-2.08,1.67-2.26l4.05-.54,12.74-.77-3.16-1.37c-1.01-.42-2.08-.65-3.21-.65h-6.25c-.77,0-1.37-.54-1.61-1.25h0c0-.06,0-.12-.06-.18-.18-.89,.48-1.79,1.37-1.91l6.01-1.07c1.13-.18,2.26-.24,3.39-.06l3.33,.42,.48-1.67,1.67,.65c.54,.24,1.07,.54,1.55,.89l9.11,7.26c.71,.54,1.49,.95,2.38,1.13l7.5,1.55c4.64,4.94,5.6,13.99,5.6,13.99Z"/><path class="cls-20" d="M166.95,148.43l-12.03,8.93c3.33-6.43,12.03-8.93,12.03-8.93Z"/><path class="cls-20" d="M155.76,154.44c.77-3.45,3.93-4.94,3.93-4.94l-3.93,4.94Z"/><path class="cls-20" d="M143.25,105.98l-23.4-.83c10,2.5,23.4,.83,23.4,.83Z"/><path d="M119.45,275.92l-4.85,19.21,2.39-55.55s1.46,9.68,2.65,17.38c.97,6.29,.9,12.69-.19,18.96Z"/><path class="cls-20" d="M159.03,178.85l-6.85,1.85c2.08-1.43,6.85-1.85,6.85-1.85Z"/><path class="cls-20" d="M158.61,174.33c-2.86-11.55-10.78-12.62-10.78-12.62,7.68,2.2,10.78,12.62,10.78,12.62Z"/><path class="cls-20" d="M53.3,207.07l18.75-7.86c-10.12,2.32-18.75,7.86-18.75,7.86Z"/><path class="cls-13" d="M151.59,180.46c-1.73,2.44-4.17,1.85-4.17,1.85l.06-.12c.71-1.37,.95-2.92,.65-4.41l-2.08-11.19c4.17,3.63,5.54,13.87,5.54,13.87Z"/><path class="cls-13" d="M91.94,31.33c.24,.24,.42,.54,.48,.89,0,.06,.06,.18,.06,.24,.18,.48,.71,.77,1.19,.65,.6-.12,1.01-.65,.89-1.25,0-.12-.06-.18-.12-.3-.18-.3-.18-.6-.18-.95,.06-.24,0-.48-.06-.71-.3-.71-1.07-1.07-1.79-.77s-1.07,1.07-.77,1.79c.12,.18,.18,.3,.3,.42Z"/><path class="cls-13" d="M133.43,38.47c-.06,.36-.24,.65-.42,.89-.06,.06-.12,.12-.12,.18-.3,.48-.24,1.07,.18,1.43,.42,.42,1.13,.36,1.55-.06,.06-.06,.12-.18,.18-.24,.12-.3,.36-.54,.65-.65s.54-.42,.65-.71c.24-.6,.06-1.31-.54-1.67-.65-.42-1.49-.24-1.91,.36-.12,.18-.18,.3-.24,.48Z"/><path class="cls-1" d="M94.38,26.27c.06,.36,.42,.54,.77,.48l-.77-.48h0Z"/><path class="cls-1" d="M134.03,32.4l-.06,1.55,.06-1.55h0Z"/></g><path class="cls-3" d="M70.48,312.84l8.58,109.21s16.73,4.84,27.3-3.52l.95-104.79-36.83-.9Z"/><path d="M74.7,320.55s9.05,9.7,22.09,3.92c0,0-15.45,9.19-22.09-3.92Z"/><path class="cls-7" d="M107.33,447.36l-1.12-2.74,.83-14.86-5.11,1.02c-1.85,.37-3.19,1.99-3.19,3.88v4.02c-1.75-.96-3.69-1.14-5-1.12-1.31-.02-3.25,.16-5,1.12v-4.02c0-1.89-1.33-3.52-3.19-3.88l-5.11-1.02,.83,14.86-1.12,2.74c-.24,.59-.36,1.22-.36,1.85v5.9c0,1.14,.92,2.06,2.06,2.06h23.8c1.14,0,2.06-.92,2.06-2.06v-5.9c0-.64-.12-1.27-.36-1.85Z"/><path class="cls-14" d="M103.94,453.87c-1.37,0-2.69-.4-3.88-1.07-6.13-3.42-11.5-1.29-13.96,.12-1.11,.64-2.38,.95-3.67,.95h-2.66v1.25c0,1.14,.92,2.06,2.06,2.06h23.8c1.14,0,2.06-.92,2.06-2.06v-1.25h-3.75Z"/><path class="cls-14" d="M87.98,438.52c-.17,0-.33-.09-.43-.24-.14-.24-.07-.54,.17-.69,.17-.1,4.27-2.51,11.49-.33,.26,.08,.41,.36,.33,.62-.08,.27-.36,.42-.62,.33-6.76-2.05-10.64,.2-10.68,.23-.08,.05-.17,.07-.26,.07Z"/><path class="cls-14" d="M87.98,436.93c-.17,0-.33-.09-.43-.24-.14-.24-.07-.54,.17-.69,.17-.1,4.27-2.51,11.49-.33,.26,.08,.41,.36,.33,.62-.08,.26-.36,.41-.62,.33-6.76-2.05-10.64,.2-10.68,.23-.08,.05-.17,.07-.26,.07Z"/><path class="cls-14" d="M87.98,435.35c-.17,0-.33-.09-.43-.24-.14-.24-.07-.54,.17-.69,.17-.1,4.27-2.51,11.49-.33,.26,.08,.41,.36,.33,.62-.08,.27-.36,.42-.62,.33-6.76-2.05-10.64,.2-10.68,.23-.08,.05-.17,.07-.26,.07Z"/><path class="cls-5" d="M83.69,444.24s9.03-7.1,19.1-.77c0,0-6.44-5.01-19.1,.77Z"/></g></g></g></g></svg>